<svg xmlns="http://www.w3.org/2000/svg" width="1328" height="200" viewBox="0 0 1328 200" fill="none"><path fill-rule="evenodd" clip-rule="evenodd" d="M67.4358 37.0312C65.9537 40.7344 64.4716 45.1781 62.9895 51.1031C61.5074 56.2875 59.2842 61.4719 57.8021 65.9156C56.32 70.3594 54.8379 74.8031 54.0968 78.5062C54.0968 79.2469 54.0968 79.2469 54.0968 79.2469V79.9875C55.5789 79.9875 57.0611 79.9875 59.2842 79.9875C61.5074 79.9875 64.4716 79.9875 67.4358 79.9875C71.1411 79.9875 74.1053 79.9875 77.0695 79.9875C80.0337 79.9875 81.5158 79.9875 82.9979 79.9875C82.9979 79.9875 83.7389 79.9875 83.7389 79.2469V78.5062C82.9979 76.2844 81.5158 72.5812 80.0337 67.3969C78.5516 62.2125 77.0695 57.0281 74.8463 51.1031C72.6232 45.1781 71.1411 40.7344 69.6589 36.2906C68.1768 37.0312 68.1768 37.0312 67.4358 37.0312ZM152.657 139.238C152.657 139.978 151.916 140.719 151.916 141.459C148.952 141.459 145.246 141.459 140.059 141.459C134.872 141.459 127.461 140.719 118.568 140.719C112.64 140.719 107.453 140.719 103.006 141.459C99.301 141.459 95.5958 141.459 92.6316 141.459C89.6674 141.459 86.7032 141.459 84.48 141.459C84.48 140.719 83.7389 139.237 83.7389 137.756C83.7389 136.275 83.7389 134.794 84.48 134.053C86.7032 133.312 88.9263 133.312 90.4084 132.572C92.6316 131.831 94.1137 131.831 95.5958 131.091C96.3368 130.35 97.0779 129.609 97.8189 128.869C98.56 128.128 98.56 127.387 97.8189 126.647C97.0779 124.425 96.3368 120.722 94.8547 117.019C93.3726 113.316 92.6316 109.613 91.1495 105.909C89.6674 102.206 88.1853 99.2437 87.4442 96.2812C87.4442 96.2812 86.7032 95.5406 86.7032 94.8C85.9621 93.3188 85.9621 93.3187 85.2211 93.3187C82.9979 93.3187 80.7747 93.3187 77.8105 93.3187C74.8463 93.3187 71.1411 93.3187 68.1768 93.3187C63.7305 93.3187 60.0253 93.3187 57.0611 93.3187C54.0968 93.3187 51.8737 93.3187 49.6505 93.3187C49.6505 93.3187 48.9095 93.3187 48.9095 94.0594C48.1684 94.8 48.1684 95.5406 48.1684 95.5406C46.6863 99.2437 45.2042 102.947 43.7221 106.65C42.24 110.353 41.4989 114.056 40.7579 117.019C40.0168 119.981 39.2758 122.203 39.2758 123.684C39.2758 125.166 39.2758 126.647 40.0168 128.128C40.7579 129.609 42.981 130.35 45.2042 131.091C46.6863 131.831 48.9095 131.831 50.3916 132.572C51.8737 133.312 54.0968 133.312 56.32 134.053C56.32 134.053 56.32 134.794 56.32 136.275C56.32 137.016 56.32 138.497 56.32 139.978C56.32 140.719 56.32 141.459 55.5789 142.2C52.6147 142.2 48.1684 142.2 43.7221 142.2C39.2758 142.2 33.3474 141.459 26.6779 141.459C22.2316 141.459 17.7853 141.459 13.3389 142.2C8.89263 142.2 4.44632 142.2 0.741053 142.2C1.78814e-07 141.459 0 139.978 0 138.497C0 137.016 1.78814e-07 135.534 0.741053 134.794C7.41053 132.572 11.1158 131.831 14.08 130.35C17.0442 129.609 19.2674 128.128 21.4905 125.166C22.9726 122.944 24.4547 119.241 25.9368 115.537C28.9011 108.131 32.6063 99.9844 36.3116 90.3562C40.0168 80.7281 42.9811 71.8406 46.6863 62.2125C50.3916 52.5844 53.3558 44.4375 56.32 36.2906C59.2842 29.625 61.5074 23.7 62.9895 19.2563C63.7305 17.0344 64.4716 14.8125 65.9537 11.85C66.6947 8.8875 67.4358 5.925 68.1768 3.70313C69.659 3.70313 71.8821 3.70313 74.1053 4.44375C76.3284 4.44375 77.8105 4.44375 80.0337 4.44375C82.2568 4.44375 84.48 4.44375 86.7032 4.44375C88.9263 4.44375 90.4084 3.70313 91.8905 3.70313L95.5958 17.0344C97.8189 22.9594 100.042 29.625 103.006 38.5125C105.971 47.4 108.935 55.5469 112.64 64.4344C115.604 73.3219 119.309 82.2094 122.274 90.3562C125.238 98.5031 127.461 105.169 129.684 110.353C131.907 116.278 134.131 121.462 136.354 123.684C137.836 126.647 140.059 128.869 143.023 130.35C145.987 131.831 149.693 132.572 155.621 133.312C155.621 133.312 155.621 134.053 155.621 135.534C153.398 136.275 153.398 137.756 152.657 139.238ZM267.52 1.48125C275.672 2.22187 282.341 2.9625 288.269 3.70313C287.528 5.925 286.787 9.62813 286.046 14.0719C286.046 18.5156 285.305 22.9594 285.305 27.4031C285.305 32.5875 284.564 37.0312 284.564 41.475C283.823 41.475 283.082 42.2156 281.6 42.2156C280.118 42.2156 279.377 42.2156 277.895 42.2156C276.413 42.2156 275.672 42.2156 275.672 41.475C274.931 34.8094 273.448 29.625 271.966 25.1813C270.484 21.4781 267.52 17.775 263.074 14.8125C258.627 12.5906 254.922 11.1094 249.735 10.3688C245.288 9.62813 240.842 9.62812 236.396 9.62812C228.244 9.62812 220.834 11.85 214.905 16.2938C208.977 20.7375 203.789 27.4031 200.825 35.55C197.12 44.4375 195.638 55.5469 195.638 68.8781C195.638 76.2844 196.379 84.4312 198.602 91.8375C200.084 99.2437 203.048 105.909 206.754 112.575C210.459 119.241 215.646 123.684 222.316 127.387C228.985 131.091 236.396 133.312 245.288 133.312C248.253 133.312 251.958 133.312 256.404 131.831C260.109 131.091 263.815 128.869 267.52 125.906C270.484 123.684 273.448 119.981 276.413 116.278C279.377 112.575 282.341 108.131 284.564 103.687C285.305 103.687 286.787 104.428 288.269 105.909C289.752 106.65 291.234 107.391 291.975 108.872C290.493 111.834 289.011 115.537 286.787 119.981C285.305 122.944 283.082 126.647 280.859 130.35C278.636 134.053 276.413 137.016 274.189 138.497C270.484 139.978 266.038 140.719 260.109 142.2C254.922 143.681 248.253 144.422 239.36 144.422C222.316 144.422 208.236 141.459 195.638 136.275C183.04 131.091 174.147 122.944 168.219 111.834C162.291 100.725 159.326 86.6531 159.326 71.1C159.326 62.9531 160.808 54.8062 163.032 46.6594C165.996 38.5125 169.701 31.8469 175.629 25.1813C180.817 18.5156 188.227 13.3312 196.379 9.62812C202.307 6.66562 208.977 3.70312 217.128 2.22187C224.539 0.740624 233.432 0 243.065 0C251.217 0 259.368 0.740624 267.52 1.48125ZM415.73 2.9625C415.73 3.70312 416.472 3.70313 416.472 3.70313C415.731 5.925 414.989 8.8875 414.989 12.5906C414.248 16.2938 414.248 20.7375 414.248 24.4406C414.248 28.8844 413.507 33.3281 413.507 37.7719C412.766 37.7719 412.025 38.5125 410.543 38.5125C409.061 38.5125 408.32 38.5125 406.838 38.5125C406.097 38.5125 405.356 38.5125 404.615 38.5125C403.874 34.0688 403.133 31.1062 402.392 28.1437C401.651 25.1812 400.909 22.9594 400.168 21.4781C398.686 19.2563 397.204 17.775 395.722 17.0344C394.24 16.2937 392.758 15.5531 391.276 15.5531C389.794 15.5531 387.571 15.5531 384.606 15.5531C381.642 15.5531 377.937 15.5531 374.232 15.5531C371.267 15.5531 367.562 15.5531 364.598 15.5531C361.634 15.5531 360.152 15.5531 358.669 15.5531C357.928 15.5531 357.928 16.2937 357.187 17.0344C357.187 17.775 357.187 19.2563 357.187 19.2563C357.187 26.6625 357.187 33.3281 357.187 40.7344C357.187 48.1406 357.187 55.5469 357.187 62.9531C357.187 62.9531 357.187 63.6937 357.928 63.6937L358.669 64.4344C360.893 64.4344 363.857 64.4344 366.821 64.4344C370.526 64.4344 374.232 64.4344 377.937 64.4344C381.642 64.4344 384.606 64.4344 387.571 64.4344C389.794 64.4344 391.276 63.6937 392.758 62.2125C394.24 60.7312 394.981 59.25 395.722 56.2875C395.722 54.8062 396.463 53.325 396.463 52.5844C396.463 51.1031 397.204 49.6219 397.204 48.1406C397.945 48.1406 398.686 48.1406 400.168 48.1406C401.651 48.1406 402.392 48.1406 403.874 48.1406C405.356 48.1406 406.097 48.8812 406.838 48.8812C406.838 51.8438 406.838 54.8062 406.097 59.25C405.356 63.6937 405.356 67.3969 405.356 71.1C405.356 74.0625 405.356 77.7656 405.356 82.2094C405.356 86.6531 405.356 90.3562 405.356 93.3187C405.356 93.3187 404.615 94.0594 402.392 94.0594C400.909 94.0594 400.168 94.0594 398.686 94.0594C397.945 94.0594 396.463 94.0594 395.722 94.0594L393.499 84.4312C392.758 82.95 392.017 81.4687 390.535 79.9875C389.794 79.2469 387.571 78.5062 386.088 77.7656C384.606 77.7656 382.383 77.7656 378.678 77.7656C374.973 77.7656 371.267 77.7656 367.562 77.7656C363.857 77.7656 360.152 77.7656 357.928 77.7656L357.187 78.5062C356.446 78.5062 356.446 79.2469 356.446 79.2469V118.5C356.446 119.981 357.187 122.203 357.928 123.684C358.669 125.166 360.152 125.906 361.634 125.906C363.857 126.647 367.562 126.647 372.008 127.387C377.196 127.387 383.124 127.387 389.794 127.387C394.981 127.387 398.686 127.387 400.909 126.647C403.133 125.906 405.356 123.684 408.32 120.722C410.543 118.5 412.766 114.797 414.989 111.094C417.213 107.391 418.695 103.687 420.918 99.2437C421.659 99.2437 422.4 99.2437 423.882 99.9844C425.364 99.9844 426.105 100.725 426.846 100.725C428.328 101.466 429.069 101.466 429.069 102.206C429.069 104.428 428.328 107.391 426.846 111.834C425.364 116.278 424.623 120.722 423.141 125.166C421.659 129.609 420.177 133.312 418.695 136.275C418.695 137.016 417.213 137.756 415.73 138.497C414.248 139.238 411.284 139.978 406.097 139.978C396.463 139.978 386.829 139.978 375.714 139.978C364.598 139.978 353.482 139.238 341.625 139.238C335.697 139.238 328.286 139.237 320.876 139.978C313.465 139.978 306.796 139.978 300.126 139.978C300.126 139.237 300.126 137.756 300.126 136.275C300.126 134.794 300.126 133.312 300.126 132.572C303.832 131.831 307.537 131.831 310.501 131.091C313.465 130.35 315.688 130.35 317.171 129.609C319.394 128.869 320.876 128.128 321.617 126.647C322.358 125.166 323.099 122.203 323.099 119.241C323.099 113.316 323.84 105.909 323.84 97.0219C323.84 88.1344 323.84 77.7656 323.84 65.175C323.84 59.25 323.84 54.0656 323.84 48.1406C323.84 42.9562 323.84 37.7719 323.099 33.3281C323.099 28.8844 323.099 25.1813 323.099 22.2188C323.099 19.2563 322.358 17.0344 320.876 15.5531C320.135 14.0719 318.653 13.3313 316.429 12.5906C316.429 12.5906 314.206 11.85 311.983 11.85C309.76 11.85 308.278 11.1094 305.314 11.1094C305.314 10.3688 305.314 9.62813 305.314 8.14688C305.314 7.40625 305.314 5.925 305.314 5.18437C305.314 3.70312 305.314 2.9625 306.055 2.9625C310.501 2.9625 316.429 2.9625 322.358 2.9625C329.027 2.9625 334.956 3.70313 340.884 3.70313H386.088C390.535 3.70313 395.722 3.70312 400.909 2.9625C406.097 2.22187 411.284 2.9625 415.73 2.9625ZM489.095 98.5031C488.354 100.725 487.613 101.466 486.872 102.206C486.13 102.206 484.648 102.206 481.684 102.206C478.72 102.206 475.015 102.206 470.568 102.206C466.122 102.206 461.676 102.206 457.229 102.206C452.783 102.206 449.078 102.206 445.373 102.206C441.667 102.206 439.444 102.206 438.703 102.206V101.466C438.703 100.725 438.703 99.9844 438.703 99.9844C438.703 98.5031 438.703 96.2812 439.444 94.0594C439.444 91.8375 440.185 89.6156 440.185 87.3937C440.926 85.1719 440.926 84.4312 441.667 84.4312L489.836 82.95C489.836 82.95 489.836 83.6906 489.836 84.4312C489.836 85.1719 489.836 85.1719 489.836 85.1719C489.836 86.6531 489.836 88.1344 489.095 91.0969C488.354 94.0594 489.836 96.2812 489.095 98.5031ZM614.333 103.687C615.815 100.725 617.297 97.0219 618.779 94.0594C619.52 94.0594 620.261 94.0594 621.743 94.8C623.225 94.8 623.966 95.5406 625.448 95.5406C626.931 96.2812 627.672 96.2812 627.672 97.0219C627.672 98.5031 626.93 100.725 626.189 104.428C625.448 108.131 623.966 111.834 622.484 116.278C621.002 120.722 619.52 124.425 618.779 128.128C617.297 131.831 615.815 135.534 614.333 137.756C614.333 138.497 612.851 139.978 611.368 140.719C609.145 141.459 606.181 141.459 600.994 141.459C595.065 141.459 588.396 141.459 580.985 141.459C574.316 141.459 566.905 141.459 560.236 141.459C552.825 141.459 546.156 140.719 540.227 140.719C531.335 140.719 524.665 140.719 519.478 141.459C514.291 141.459 509.844 141.459 505.398 141.459C504.657 140.719 504.657 139.237 504.657 137.756C504.657 136.275 504.657 134.794 505.398 134.053C509.103 133.312 511.326 133.312 512.808 133.312C514.291 132.572 516.514 132.572 518.737 131.831C520.96 131.091 522.442 130.35 523.183 128.869C523.924 127.387 524.665 125.166 524.665 122.203C524.665 120.722 524.665 117.019 524.665 111.834C524.665 106.65 525.406 99.9844 525.406 92.5781C525.406 85.1719 525.406 77.7656 525.406 70.3594C525.406 61.4719 525.406 54.8062 525.406 48.1406C525.406 42.2156 525.406 37.0313 525.406 33.3281C525.406 29.625 525.406 25.9219 524.665 22.9594C524.665 20.7375 524.665 19.2562 523.924 17.0344C523.183 15.5531 520.96 14.0719 518.737 13.3312C517.255 13.3312 515.773 12.5906 513.549 12.5906C511.326 12.5906 509.103 11.85 506.139 11.85C506.139 11.1094 506.139 10.3687 506.139 8.8875C506.139 8.14687 506.139 6.66562 506.139 5.925C506.139 5.18437 506.88 4.44375 506.88 3.70313C509.844 3.70313 512.808 3.70313 515.773 3.70313C518.737 3.70313 522.442 3.70313 526.147 3.70313C529.853 3.70313 535.04 4.44375 540.968 4.44375C549.12 4.44375 555.789 4.44375 560.236 3.70313C565.423 3.70313 569.87 3.70313 574.316 3.70313C574.316 4.44375 575.057 5.18437 575.057 5.925C575.057 6.66562 575.057 8.14687 574.316 9.62812C574.316 10.3687 574.316 11.1094 574.316 11.85C571.352 11.85 569.128 11.85 567.646 11.85C566.164 11.85 564.682 12.5906 563.2 12.5906C560.977 13.3313 559.495 14.8125 558.754 16.2938C558.013 17.775 558.013 19.9969 558.013 22.9594C558.013 24.4406 558.013 28.8844 558.013 36.2906C558.013 43.6969 558.013 52.5844 558.013 64.4344C558.013 71.8406 558.013 79.9875 558.013 88.1344C558.013 96.2812 558.013 102.947 558.013 108.872C558.013 114.797 558.754 119.241 558.754 121.462C558.754 123.684 559.495 125.166 560.236 125.906C560.977 126.647 561.718 127.388 563.2 128.128C564.682 128.128 567.646 128.869 570.611 128.869C573.575 128.869 577.28 128.869 580.985 128.869C584.691 128.869 588.396 128.869 592.101 128.869C594.324 128.869 595.806 128.128 598.771 127.387C600.994 125.906 602.476 124.425 605.44 121.462C606.922 119.241 609.145 117.019 610.627 114.056C610.627 110.353 612.851 107.391 614.333 103.687ZM685.474 46.6594C693.625 46.6594 700.295 48.8812 705.482 52.5844C710.669 56.2875 714.375 60.7312 716.598 65.9156C718.821 71.1 720.303 75.5437 721.044 79.9875C721.044 80.7281 721.044 81.4687 722.526 82.2094C723.267 82.95 724.008 83.6906 724.75 83.6906C724.75 84.4312 724.75 85.1719 724.75 86.6531C724.75 88.1344 724.008 88.875 723.267 89.6156C721.785 90.3562 718.821 91.0969 713.634 91.8375C709.187 92.5781 704 92.5781 698.813 92.5781C692.884 93.3187 687.697 93.3187 681.768 94.0594C675.84 94.8 671.394 94.8 666.947 94.8C666.947 94.8 666.206 94.8 666.206 95.5406C666.206 96.2812 666.206 96.2812 666.206 96.2812C666.206 99.2437 666.947 102.947 669.171 105.909C670.653 109.613 672.876 112.575 675.099 115.537C677.322 117.759 681.027 119.981 684.733 121.462C688.438 122.944 692.143 123.684 696.589 123.684C701.036 123.684 705.482 122.944 709.928 121.462C714.375 119.981 718.08 117.759 723.267 114.797H724.008C724.008 115.537 724.008 115.537 724.008 116.278C724.008 117.759 724.008 118.5 724.008 119.981C722.526 120.722 722.526 122.203 722.526 122.944C717.339 128.869 710.669 134.053 703.259 137.756C695.848 141.459 688.438 143.681 681.027 143.681C674.358 143.681 668.429 142.941 663.983 140.719C658.796 138.497 655.091 136.275 651.385 132.572C646.198 128.128 643.234 122.203 640.269 115.537C638.046 108.872 637.305 102.206 637.305 94.8C637.305 85.1719 639.528 77.025 643.234 70.3594C646.939 63.6937 652.126 57.7687 658.055 54.0656C662.501 51.8438 666.947 49.6219 671.394 48.1406C675.84 47.4 680.286 46.6594 685.474 46.6594ZM688.438 62.9531C686.215 58.5094 682.509 56.2875 678.063 56.2875C674.358 56.2875 671.394 58.5094 668.429 63.6937C666.206 68.1375 664.724 74.8031 664.724 82.2094C664.724 82.2094 664.724 82.95 665.465 82.95C666.206 82.95 666.206 83.6906 666.206 83.6906C667.688 83.6906 670.653 83.6906 673.617 83.6906C676.581 83.6906 680.286 83.6906 683.25 83.6906C686.215 83.6906 688.438 82.95 689.92 82.95L690.661 82.2094C690.661 81.4687 691.402 81.4687 691.402 80.7281C692.143 73.3219 690.661 67.3969 688.438 62.9531ZM786.257 96.2812V95.5406C784.034 96.2812 781.81 97.0219 779.587 97.7625C776.623 98.5031 774.4 99.9844 772.177 100.725C769.954 101.466 768.472 102.206 767.731 102.947C766.99 103.687 766.989 105.169 766.248 106.65C765.507 108.131 765.507 109.612 765.507 111.094C765.507 114.797 766.248 117.759 767.731 120.722C769.213 123.684 771.436 125.166 773.659 126.647C775.882 127.387 778.105 128.128 781.069 128.128C781.81 128.128 783.293 128.128 783.293 128.128C784.034 128.128 784.775 127.387 785.516 126.647C786.257 126.647 786.257 125.906 786.998 125.166C786.998 124.425 786.998 123.684 786.998 122.944C786.998 120.722 786.998 117.759 786.998 114.056C786.998 111.094 786.998 108.131 786.998 104.428C786.257 99.9844 786.257 97.7625 786.257 96.2812ZM797.373 51.1031C801.819 53.325 805.524 57.0281 808.488 61.4719C810.712 65.175 812.194 68.1375 813.676 71.8406C814.417 75.5437 814.417 79.9875 814.417 83.6906C814.417 87.3937 814.417 91.0969 814.417 95.5406C814.417 99.2437 814.417 103.687 814.417 108.131C814.417 111.834 814.417 115.537 814.417 118.5C814.417 120.722 815.158 122.944 815.899 124.425C816.64 125.906 818.122 127.387 820.345 127.387C821.086 127.387 822.568 127.387 824.05 127.387C825.533 127.387 827.015 127.387 827.756 126.647C827.756 126.647 827.756 127.387 827.756 128.869C827.756 130.35 827.756 131.831 827.756 132.572C827.756 134.053 827.015 134.794 827.015 134.794C824.05 137.756 819.604 139.978 815.158 141.459C810.712 142.941 806.265 143.681 801.819 143.681C798.114 143.681 795.149 142.941 792.185 141.459C789.962 139.978 788.48 138.497 787.739 136.275C787.739 135.534 786.998 135.534 786.998 134.053C786.998 133.312 786.998 132.572 786.257 131.831C780.328 135.534 775.141 138.497 770.695 139.978C766.248 141.459 762.543 142.941 761.061 142.941C758.097 142.941 755.874 142.941 753.651 141.459C751.427 140.719 749.204 139.237 747.722 137.756C744.758 134.794 742.535 131.831 741.053 128.128C739.57 124.425 738.829 119.981 738.829 115.537C738.829 114.797 738.83 113.316 739.571 111.834C739.571 110.353 740.312 108.131 741.053 105.909C741.794 104.428 741.794 102.947 742.535 102.206C744.017 101.466 746.981 99.9844 751.427 98.5031C755.133 97.0219 758.838 96.2812 763.284 94.8C767.73 93.3188 772.177 92.5781 776.623 91.0969C780.328 89.6156 784.034 88.875 786.257 88.1344C786.998 88.1344 786.998 88.1344 787.739 87.3937C787.739 86.6531 788.48 85.9125 788.48 85.1719C788.48 84.4312 789.221 84.4312 789.221 84.4312C789.221 83.6906 789.221 83.6906 789.221 82.95C789.221 80.7281 789.221 78.5062 788.48 76.2844C787.739 74.0625 786.998 72.5812 785.516 70.3594C784.034 68.1375 781.811 65.9156 778.846 64.4344C775.882 63.6937 772.918 62.9531 769.954 62.9531C767.731 62.9531 765.507 62.9531 763.284 63.6937C761.061 64.4344 759.579 65.175 758.838 66.6562C758.097 67.3969 757.356 68.1375 756.615 70.3594C755.133 71.8406 754.392 74.0625 753.651 76.2844C752.909 77.7656 752.168 79.2469 751.427 79.9875C750.686 80.7281 749.945 80.7281 749.204 79.9875C747.722 79.2469 746.981 79.2469 745.499 77.7656C744.017 76.2844 743.276 76.2844 743.276 75.5437C743.276 74.8031 743.276 73.3219 744.017 71.8406C744.758 69.6187 745.499 67.3969 746.24 65.175C746.981 62.9531 747.722 61.4719 748.463 60.7313C752.168 57.7687 756.615 55.5469 761.061 53.325C765.507 51.1031 769.954 49.6219 774.4 48.1406C778.105 46.6594 781.81 45.9188 784.775 45.9188C787.739 46.6594 792.926 48.1406 797.373 51.1031ZM915.2 58.5094C915.2 59.9906 914.459 61.4719 912.977 64.4344C912.236 67.3969 910.754 69.6187 909.272 72.5812C907.789 75.5437 906.307 77.7656 905.566 79.2469C904.825 79.2469 904.084 79.2469 903.343 79.2469C902.602 79.2469 901.861 79.2469 901.861 79.2469C899.638 77.025 896.674 74.8031 893.709 72.5812C890.745 71.1 887.04 69.6187 884.076 69.6187C882.594 69.6187 881.853 69.6187 880.371 70.3594C879.63 70.3594 878.147 71.1 877.406 72.5812L876.665 73.3219C876.665 74.0625 876.665 74.8031 876.665 75.5437C876.665 78.5062 876.665 82.2094 876.665 87.3937C876.665 92.5781 876.665 97.0219 876.665 102.206C876.665 107.391 876.665 111.094 876.665 114.797C876.665 118.5 876.665 120.722 876.665 121.462C876.665 125.166 877.406 127.387 878.147 128.869C878.888 130.35 880.371 131.091 882.594 131.831C884.076 132.572 886.299 132.572 887.781 133.312C890.004 134.053 891.486 134.053 894.451 134.794C894.451 134.794 894.451 135.534 894.451 137.016C894.451 137.756 894.451 139.237 893.709 140.719C893.709 141.459 892.968 142.2 892.968 142.941C890.745 142.941 886.299 142.941 881.112 142.941C875.924 142.941 868.514 142.2 860.362 142.2C855.175 142.2 849.987 142.2 845.541 142.941C841.095 142.941 837.389 142.941 834.425 142.941C834.425 142.2 834.425 140.719 834.425 139.238C834.425 137.756 834.425 136.275 834.425 135.534C835.907 135.534 838.131 134.794 839.613 134.794C841.095 134.794 842.577 134.053 843.318 134.053C844.059 133.312 845.541 132.572 845.541 131.831C846.282 130.35 846.282 128.869 847.023 126.647C847.023 125.166 847.023 122.203 847.023 118.5C847.023 114.797 847.023 110.353 847.023 105.909C847.023 101.466 847.023 96.2812 847.023 91.8375C847.023 88.1344 847.023 84.4312 847.023 80.7281C847.023 77.7656 847.023 74.8031 847.023 73.3219C847.023 71.8406 846.282 70.3594 844.8 69.6187C843.318 68.1375 840.354 66.6562 835.166 64.4344C835.166 63.6937 835.166 62.2125 835.166 60.7313C835.166 59.25 835.907 58.5094 835.907 57.7687C838.872 57.7687 843.318 57.0281 847.764 55.5469C852.211 54.8062 857.398 53.325 862.585 52.5844C867.032 51.1031 871.478 49.6219 874.442 47.4C874.442 47.4 875.183 47.4 875.183 48.1406C875.924 48.8812 875.924 48.8812 876.665 48.8812C876.665 49.6219 876.665 51.8438 876.665 53.325C876.665 55.5469 875.924 57.7687 875.924 60.7313C875.924 62.9531 875.924 65.175 875.924 65.9156C875.924 66.6562 875.924 66.6562 876.665 66.6562H877.406C879.629 63.6937 881.853 61.4719 884.076 59.9906C886.299 57.7687 888.522 56.2875 890.745 54.0656C892.227 52.5844 894.451 51.8437 896.674 51.1031C898.897 50.3625 901.12 49.6219 904.084 48.8812C907.048 48.8812 910.013 49.6219 911.495 51.1031C913.718 52.5844 915.2 54.0656 916.682 55.5469C916.682 56.2875 916.682 57.0281 916.682 58.5094C916.682 59.9906 915.2 57.7687 915.2 58.5094ZM977.448 50.3625C982.636 48.1406 987.082 46.6594 990.787 46.6594C995.975 46.6594 1000.42 47.4 1004.13 49.6219C1007.83 51.8438 1011.54 54.8062 1013.76 58.5094C1015.98 62.2125 1017.47 65.9156 1018.95 70.3594C1020.43 74.8031 1020.43 79.9875 1020.43 85.1719C1020.43 89.6156 1020.43 94.8 1020.43 99.9844C1020.43 105.169 1020.43 110.353 1020.43 114.797C1020.43 119.241 1020.43 122.944 1020.43 125.166C1020.43 125.906 1020.43 126.647 1021.17 127.387C1021.17 128.128 1021.91 128.869 1022.65 128.869C1024.13 130.35 1025.62 131.091 1027.1 131.831C1028.58 132.572 1030.8 133.312 1033.77 133.312C1033.77 134.053 1033.77 135.534 1033.77 137.016C1033.77 139.237 1033.03 139.978 1032.29 140.719C1030.8 140.719 1027.84 140.719 1023.39 140.719C1019.69 140.719 1013.76 139.978 1006.35 139.978C1002.64 139.978 998.939 139.978 995.975 139.978C993.01 139.978 990.787 140.719 988.564 140.719C986.341 140.719 984.118 140.719 981.154 140.719C981.154 139.978 980.413 139.237 980.413 137.756C980.413 136.275 980.413 135.534 980.413 134.794C980.413 134.053 980.413 133.312 981.154 132.572L987.082 131.091C988.564 130.35 989.305 129.609 990.046 128.869C990.787 127.387 991.528 125.906 991.528 124.425C991.528 122.203 991.528 119.241 991.528 114.797C991.528 110.353 991.528 105.909 991.528 101.466C991.528 96.2812 991.528 91.8375 991.528 87.3937C991.528 82.95 991.528 79.2469 990.787 77.025C990.046 74.8031 989.305 72.5812 988.564 71.1C987.082 68.8781 985.6 67.3969 984.118 66.6562C982.636 65.9156 981.154 65.175 978.931 64.4344C977.448 64.4344 975.966 63.6937 973.743 63.6937C972.261 63.6937 970.779 63.6937 969.297 64.4344C967.074 65.175 964.851 65.9156 963.368 66.6562C962.627 67.3969 962.627 68.1375 961.886 68.8781C961.886 69.6187 961.886 70.3594 961.886 71.1C961.886 76.2844 961.886 81.4687 961.886 88.1344C961.886 94.8 961.886 101.466 961.886 107.391C961.886 114.056 961.886 119.241 961.886 122.944C961.886 125.906 962.627 128.128 963.368 129.609C964.109 130.35 965.592 131.091 967.074 131.831C967.815 132.572 969.297 132.572 969.297 132.572C970.038 132.572 971.52 133.312 973.002 133.312C973.002 133.312 973.002 134.053 973.002 135.534C973.002 136.275 973.002 137.756 973.002 139.238C973.002 139.978 972.261 140.719 972.261 141.459C967.815 141.459 963.368 141.459 958.922 141.459C954.476 141.459 950.029 140.719 944.842 140.719C939.655 140.719 935.208 140.719 932.244 140.719C929.28 140.719 926.316 141.459 924.093 141.459C921.869 141.459 920.387 141.459 918.905 141.459C918.164 140.719 918.164 139.237 918.164 137.756C918.164 136.275 918.164 134.794 918.164 134.053C919.646 134.053 920.387 133.312 921.87 133.312C923.352 133.312 924.093 132.572 925.575 132.572C927.057 131.831 928.539 131.091 929.28 129.609C930.021 128.128 930.762 125.906 930.762 123.684C930.762 121.462 930.762 117.759 930.762 114.056C930.762 109.612 930.762 105.169 930.762 100.725C930.762 96.2812 930.762 92.5781 930.762 88.875C930.762 86.6531 930.762 84.4312 930.762 82.2094C930.762 79.9875 930.762 77.7656 930.762 75.5437C930.762 73.3219 930.762 71.8406 930.762 71.1C930.762 70.3594 930.021 68.8781 928.539 67.3969C927.057 65.9156 924.093 64.4344 919.646 62.2125C919.646 61.4719 919.646 59.9906 919.646 59.25C919.646 57.7687 920.387 56.2875 920.387 55.5469C924.834 54.8062 930.021 54.0656 934.467 53.325C938.914 51.8438 943.36 51.1031 947.806 49.6219C952.253 48.1406 955.217 46.6594 958.181 45.1781V45.9188C958.181 46.6594 958.922 46.6594 958.922 46.6594V59.25V59.9906H959.663C967.074 56.2875 972.261 52.5844 977.448 50.3625ZM1050.81 66.6562C1050.07 65.9156 1049.33 65.175 1047.85 64.4344C1046.37 63.6937 1044.88 62.9531 1041.92 61.4719C1041.18 60.7313 1041.18 59.25 1041.18 57.7687C1041.18 56.2875 1041.18 54.8062 1041.92 54.8062C1044.14 54.8062 1047.11 54.8062 1051.55 54.0656C1056.74 53.325 1061.93 52.5844 1067.12 51.1031C1072.3 49.6219 1077.49 48.1406 1081.2 46.6594C1081.2 49.6219 1081.2 53.325 1081.2 57.7687C1081.2 62.2125 1081.2 66.6562 1081.2 71.8406C1081.2 77.025 1081.2 81.4687 1081.2 85.9125C1081.2 91.8375 1081.2 97.7625 1081.2 105.169C1081.2 111.834 1081.2 117.759 1081.2 122.944C1081.2 125.906 1081.2 128.128 1081.94 129.609C1082.68 131.091 1084.16 131.831 1085.64 132.572L1093.79 134.794C1093.79 134.794 1093.79 135.534 1093.79 137.016C1093.79 137.756 1093.79 139.237 1093.79 140.719C1093.79 141.459 1093.05 142.2 1093.05 142.941C1090.83 142.941 1087.12 142.941 1082.68 142.941C1078.23 142.941 1072.3 142.2 1065.63 142.2C1058.96 142.2 1053.78 142.2 1049.33 142.941C1044.88 142.941 1041.92 142.941 1038.96 142.941C1038.96 142.2 1038.21 141.459 1038.21 140.719C1038.21 139.237 1038.21 138.497 1038.21 137.016C1038.21 135.534 1038.21 134.794 1038.96 134.794C1041.18 134.794 1042.66 134.053 1043.4 134.053C1044.88 133.312 1045.63 133.312 1047.11 133.312C1048.59 132.572 1049.33 131.831 1050.07 130.35C1050.81 128.869 1050.81 126.647 1050.81 124.425C1050.81 122.944 1050.81 119.981 1050.81 117.019C1050.81 114.056 1050.81 110.353 1050.81 105.909C1050.81 101.466 1050.81 98.5031 1050.81 94.0594C1050.81 90.3562 1050.81 85.9125 1050.81 82.2094C1050.81 78.5062 1050.81 75.5437 1050.81 74.0625C1050.81 73.3219 1050.81 71.8406 1050.81 71.1C1052.29 68.1375 1051.55 67.3969 1050.81 66.6562ZM1059.71 8.14688C1062.67 7.40625 1066.37 6.66562 1069.34 5.925C1072.3 5.925 1074.53 6.66563 1076.01 6.66563C1078.23 7.40625 1078.97 8.14687 1079.71 8.8875C1080.45 10.3687 1081.2 11.1094 1081.2 12.5906C1081.2 14.8125 1081.2 16.2937 1081.2 17.0344C1081.2 19.2562 1080.45 21.4781 1078.97 23.7C1078.23 25.9219 1076.75 28.1438 1074.53 30.3656C1073.79 31.1063 1072.3 31.1062 1070.08 31.8469C1067.86 32.5875 1065.63 32.5875 1062.67 32.5875C1060.45 32.5875 1058.96 32.5875 1057.48 31.8469C1055.26 31.1062 1053.78 29.625 1053.04 27.4031C1051.55 25.9219 1050.81 23.7 1050.07 21.4781C1050.07 19.9969 1050.07 17.775 1050.07 15.5531C1050.07 13.3313 1050.81 11.1094 1051.55 9.62812C1054.52 10.3687 1056.74 8.8875 1059.71 8.14688ZM1270.91 151.828C1266.46 151.828 1262.75 151.087 1259.05 151.087C1257.57 151.087 1256.08 151.087 1255.34 151.828C1254.6 152.569 1253.86 152.569 1253.12 152.569C1250.9 154.05 1248.67 156.272 1247.93 158.494C1247.19 160.716 1246.45 162.938 1247.19 164.419C1247.19 166.641 1247.19 168.862 1247.93 171.084C1248.67 173.306 1250.16 174.787 1252.38 177.009C1255.34 179.972 1259.05 182.194 1262.75 183.675C1267.2 185.156 1271.65 185.897 1276.83 185.897C1282.76 185.897 1287.95 185.156 1291.65 183.675C1295.36 182.194 1298.32 179.972 1299.81 177.009C1301.29 174.787 1302.03 171.825 1302.03 168.863C1302.03 166.641 1302.03 164.419 1299.81 162.197C1298.32 159.975 1296.84 158.494 1293.88 156.272C1290.91 154.791 1287.21 154.05 1283.5 152.569C1279.06 152.569 1274.61 151.828 1270.91 151.828ZM1203.47 85.9125C1203.47 90.3562 1203.47 95.5406 1203.47 100.725C1203.47 105.909 1203.47 111.094 1203.47 115.537C1203.47 119.981 1203.47 123.684 1203.47 125.906C1203.47 126.647 1203.47 127.388 1204.21 128.128C1204.21 128.869 1204.95 129.609 1205.69 129.609C1207.17 131.091 1208.66 131.831 1210.14 132.572C1211.62 133.312 1213.84 134.053 1216.81 134.053C1216.81 134.794 1216.81 136.275 1216.81 137.756C1216.81 139.978 1216.07 140.719 1215.33 141.459C1213.84 141.459 1210.88 141.459 1206.43 141.459C1202.73 141.459 1196.8 140.719 1189.39 140.719C1185.68 140.719 1181.98 140.719 1179.01 140.719C1176.05 140.719 1173.83 141.459 1171.6 141.459C1169.38 141.459 1167.16 141.459 1164.19 141.459C1164.19 140.719 1163.45 139.978 1163.45 138.497C1163.45 137.016 1163.45 136.275 1163.45 135.534C1163.45 134.794 1163.45 134.053 1164.19 133.312L1170.12 131.831C1171.6 131.091 1172.35 130.35 1173.09 129.609C1173.83 128.128 1174.57 126.647 1174.57 125.166C1174.57 122.944 1174.57 119.981 1174.57 115.537C1174.57 111.094 1174.57 106.65 1174.57 102.206C1174.57 97.0219 1174.57 92.5781 1174.57 88.1344C1174.57 83.6906 1174.57 79.9875 1173.83 77.7656C1173.09 75.5437 1172.35 73.3219 1171.6 71.8406C1170.12 69.6187 1168.64 68.1375 1167.16 67.3969C1165.68 66.6562 1164.19 65.9156 1161.97 65.175C1160.49 65.175 1159.01 64.4344 1156.78 64.4344C1155.3 64.4344 1153.82 64.4344 1152.34 65.175C1150.11 65.9156 1147.89 66.6562 1146.41 67.3969C1145.67 68.1375 1145.67 68.8781 1144.93 69.6187C1144.93 70.3594 1144.93 71.1 1144.93 71.8406C1144.93 77.025 1144.93 82.2094 1144.93 88.875C1144.93 95.5406 1144.93 102.206 1144.93 108.131C1144.93 114.797 1144.93 119.981 1144.93 123.684C1144.93 126.647 1145.67 128.869 1146.41 130.35C1147.15 131.091 1148.63 131.831 1150.11 132.572C1150.85 133.312 1152.34 133.312 1152.34 133.312C1153.08 133.312 1154.56 134.053 1156.04 134.053C1156.04 134.053 1156.04 134.794 1156.04 136.275C1156.04 137.016 1156.04 138.497 1156.04 139.978C1156.04 140.719 1155.3 141.459 1155.3 142.2C1150.85 142.2 1146.41 142.2 1141.96 142.2C1137.52 142.2 1133.07 141.459 1127.88 141.459C1122.69 141.459 1118.25 141.459 1115.28 141.459C1112.32 141.459 1109.36 142.2 1107.13 142.2C1104.91 142.2 1103.43 142.2 1101.95 142.2C1101.2 141.459 1101.2 139.978 1101.2 138.497C1101.2 137.016 1101.2 135.534 1101.2 134.794C1102.69 134.794 1103.43 134.053 1104.91 134.053C1106.39 134.053 1107.13 133.312 1108.61 133.312C1110.1 132.572 1111.58 131.831 1112.32 130.35C1113.06 128.869 1113.8 126.647 1113.8 124.425C1113.8 122.203 1113.8 118.5 1113.8 114.797C1113.8 110.353 1113.8 105.909 1113.8 101.466C1113.8 97.0219 1113.8 93.3187 1113.8 89.6156C1113.8 87.3937 1113.8 85.1719 1113.8 82.95C1113.8 80.7281 1113.8 78.5062 1113.8 76.2844C1113.8 74.0625 1113.8 72.5812 1113.8 71.8406C1113.8 71.1 1113.06 69.6187 1111.58 68.1375C1110.1 66.6562 1107.13 65.175 1102.69 62.9531C1102.69 62.2125 1102.69 60.7312 1102.69 59.9906C1102.69 58.5094 1103.43 57.0281 1103.43 56.2875C1107.87 55.5469 1113.06 54.8062 1117.51 54.0656C1121.95 52.5844 1126.4 51.8437 1130.85 50.3625C1135.29 48.8812 1138.26 47.4 1141.22 45.9188V46.6594C1141.22 47.4 1141.96 47.4 1141.96 47.4V59.9906V60.7313H1142.7C1147.89 56.2875 1153.08 52.5844 1158.27 50.3625C1163.45 48.1406 1167.9 46.6594 1171.6 46.6594C1176.79 46.6594 1181.24 47.4 1184.94 49.6219C1188.65 51.8438 1192.35 54.8062 1194.58 58.5094C1196.8 62.2125 1198.28 65.9156 1199.76 70.3594C1201.25 74.8031 1203.47 80.7281 1203.47 85.9125ZM1267.2 54.8062C1263.49 54.8062 1261.27 56.2875 1258.31 59.9906C1256.08 63.6937 1255.34 68.1375 1255.34 74.8031C1255.34 85.9125 1256.83 93.3188 1259.79 98.5031C1262.75 103.688 1266.46 105.909 1270.91 105.909C1272.39 105.909 1273.87 105.909 1274.61 105.169C1276.09 104.428 1276.83 103.688 1278.32 102.206C1279.8 100.725 1280.54 98.5031 1281.28 94.8C1282.02 91.8375 1282.76 88.1344 1282.76 83.6906C1282.76 78.5062 1282.02 73.3219 1281.28 68.8781C1279.8 64.4344 1278.32 60.7312 1276.09 58.5094C1273.87 56.2875 1270.91 54.8062 1267.2 54.8062ZM1284.24 48.1406C1287.95 48.8812 1292.4 50.3625 1296.1 51.8437C1298.32 52.5844 1301.29 52.5844 1303.51 53.325C1305.73 54.0656 1307.96 54.0656 1310.18 54.0656C1313.89 54.0656 1316.85 54.0656 1319.07 53.325C1320.56 52.5844 1322.78 51.1031 1324.26 49.6219C1325 49.6219 1325.74 49.6219 1326.48 50.3625C1327.23 51.1031 1327.97 51.1031 1327.97 51.8437C1327.97 52.5844 1327.97 54.0656 1327.23 56.2875C1326.48 58.5094 1325.74 59.9906 1325 62.2125C1324.26 63.6937 1323.52 65.175 1322.04 65.9156C1321.3 66.6562 1319.81 67.3969 1318.33 68.1375C1316.85 68.1375 1315.37 68.8781 1313.89 68.8781C1313.15 68.8781 1311.66 68.8781 1310.92 68.8781C1310.18 68.8781 1310.18 68.8781 1308.7 68.8781V69.6187C1309.44 71.1 1309.44 72.5812 1310.18 74.0625C1310.18 75.5437 1310.18 77.7656 1310.18 79.2469C1310.18 85.9125 1309.44 91.0969 1307.22 96.2812C1304.99 100.725 1301.29 104.428 1297.58 107.391C1296.1 108.872 1293.14 110.353 1288.69 111.834C1284.24 113.316 1278.32 114.797 1270.91 115.537C1270.16 115.537 1269.42 115.537 1268.68 115.537C1267.2 115.537 1266.46 115.537 1264.98 115.537C1263.49 115.537 1262.75 115.537 1262.75 115.537C1262.01 115.537 1261.27 116.278 1260.53 117.019C1259.79 117.759 1259.05 118.5 1259.05 119.241C1259.05 120.722 1259.79 122.203 1261.27 122.944C1262.75 123.684 1264.98 124.425 1267.2 125.166C1270.91 125.166 1274.61 125.906 1279.8 125.906C1284.99 125.906 1289.43 126.647 1294.62 127.387C1299.07 128.128 1303.51 128.869 1306.48 129.609C1309.44 130.35 1312.4 131.831 1315.37 133.312C1318.33 134.794 1320.56 137.756 1322.78 141.459C1324.26 144.422 1325.74 148.866 1325.74 153.309C1325.74 162.197 1322.78 170.344 1316.85 177.009C1310.92 183.675 1303.51 189.6 1294.62 193.303C1290.17 195.525 1285.73 197.006 1280.54 198.488C1275.35 199.228 1270.91 199.969 1266.46 199.969C1261.27 199.969 1256.83 199.228 1251.64 198.488C1247.19 197.006 1242.75 195.525 1239.04 193.303C1235.33 191.081 1231.63 187.378 1229.41 183.675C1227.18 179.972 1225.7 176.269 1225.7 172.566C1225.7 171.084 1225.7 168.862 1225.7 167.381C1225.7 165.9 1226.44 164.419 1226.44 163.678C1227.92 162.197 1230.15 160.716 1233.11 159.234C1235.33 157.753 1238.3 156.272 1240.52 154.791C1242.75 153.309 1244.97 151.828 1246.45 151.087C1242 148.866 1238.3 146.644 1235.33 143.681C1232.37 140.719 1231.63 137.016 1231.63 132.572C1231.63 131.831 1231.63 131.091 1231.63 130.35C1231.63 129.609 1232.37 128.869 1232.37 128.128C1233.11 127.388 1235.33 126.647 1237.56 125.166C1240.52 123.684 1242.75 122.203 1245.71 120.722C1248.67 119.241 1250.16 117.759 1251.64 117.019V116.278V115.537C1243.49 112.575 1237.56 108.872 1233.85 102.947C1230.15 97.7625 1227.92 91.0969 1227.92 84.4312C1227.92 79.2469 1229.41 74.0625 1231.63 69.6187C1233.85 65.175 1237.56 60.7313 1242 57.7687C1245.71 54.8062 1250.9 52.5844 1256.08 51.1031C1261.27 49.6219 1266.46 48.8812 1271.65 48.8812C1276.83 48.8812 1280.54 47.4 1284.24 48.1406Z" fill="black"></path></svg>