<svg xmlns="http://www.w3.org/2000/svg" width="1027" height="191" viewBox="0 0 1027 191" fill="none"><path d="M121.841 84.2654C131.942 84.2654 140.131 76.0784 140.131 65.9792C140.131 55.8801 131.942 47.6931 121.841 47.6931C111.74 47.6931 103.551 55.8801 103.551 65.9792C103.551 76.0784 111.74 84.2654 121.841 84.2654Z" fill="white"></path><path d="M86.5546 189.537H96.7971C95.7317 167.489 91.3296 145.73 83.7408 125.001C85.823 126.183 87.849 127.364 89.875 128.658C102.309 136.525 113.66 145.982 123.641 156.791C117.767 168.758 110.184 179.807 101.13 189.593H118.745C124.196 182.733 129.035 175.41 133.209 167.706C138.768 174.646 143.845 181.959 148.403 189.593H156.282L158.871 187.174C152.862 176.664 145.912 166.72 138.105 157.466C142.155 148.237 145.047 138.542 146.715 128.602C149.333 113.916 148.131 98.8037 143.226 84.7154C140.099 88.2769 136.134 91.0034 131.689 92.6488C134.787 103.631 135.364 115.171 133.377 126.408C132.27 133.204 130.498 139.875 128.087 146.326C118.189 136.312 107.181 127.459 95.2776 119.937C89.5642 116.365 83.6447 113.134 77.5502 110.26C74.6869 104.179 71.4543 98.2788 67.8705 92.5925C60.362 80.6639 51.5057 69.6385 41.4764 59.7338C47.9281 57.3233 54.6008 55.5518 61.3986 54.4448C65.9969 53.7181 70.6438 53.3419 75.2992 53.3195C82.0629 53.2974 88.7936 54.2642 95.2776 56.1891C96.4158 53.0247 98.1122 50.09 100.286 47.5243C101.209 46.5824 102.207 45.7169 103.269 44.9361C89.159 40.0233 74.0182 38.841 59.3164 41.5039C49.3944 43.0629 39.7117 45.8801 30.5023 49.8874C21.2236 42.0431 11.2387 35.074 0.675329 29.0693L0 29.8008V40.5474C7.0645 44.8609 13.85 49.6153 20.3161 54.7824C13.2132 58.6595 6.42085 63.0801 0 68.0047L0 85.1655C9.40159 76.7625 19.934 69.7172 31.2902 64.235C42.0872 74.2272 51.5453 85.5744 59.4289 97.9939C60.7233 100.019 61.9051 102.045 63.087 104.127C42.8161 96.7271 21.5515 92.4031 0 91.2984L0 101.539C24.1087 102.9 47.7886 108.5 69.9528 118.081C79.7071 140.718 85.3297 164.919 86.5546 189.537Z" fill="white"></path><path d="M0 40.5475V68.0049C6.42085 63.0802 13.2132 58.6596 20.3161 54.7826C13.85 49.6155 7.0645 44.861 0 40.5475Z" fill="black"></path><path d="M30.5028 49.8874C39.7043 45.8222 49.3872 42.9482 59.3168 41.3351C74.0332 38.7264 89.1742 39.9668 103.269 44.9361C102.193 45.8244 101.196 46.8032 100.287 47.8619C98.1467 50.3261 96.4519 53.1439 95.2781 56.1891C88.7941 54.2642 82.0634 53.2975 75.2996 53.3196C70.6443 53.3419 65.9974 53.7181 61.3991 54.4449C54.6012 55.5518 47.9285 57.3233 41.4769 59.7338C51.5062 69.6385 60.3624 80.6639 67.871 92.5925C71.4548 98.2788 74.6874 104.179 77.5507 110.26L78.5637 110.766L109.798 79.5391C106.371 76.3033 104.326 71.8698 104.089 67.1632C103.852 62.4566 105.442 57.8404 108.527 54.2772C111.612 50.7141 115.953 48.4792 120.646 48.0387C125.339 47.5982 130.021 48.9861 133.716 51.9129C134.358 52.4894 134.96 53.1098 135.516 53.7697L155.889 33.6831C135.652 12.9673 108.164 0.909991 79.2139 0.0494324C50.2634 -0.811126 22.1082 9.59225 0.675781 29.0694C11.2283 35.0911 21.2117 42.0591 30.5028 49.8874Z" fill="black"></path><path d="M59.3164 98.1065C51.4328 85.6869 41.9747 74.3397 31.1777 64.3475C19.8676 69.804 9.37401 76.8108 0 85.1655L0 91.2984C21.5192 92.4504 42.7453 96.8122 62.9744 104.239C61.9051 102.158 60.6107 100.132 59.3164 98.1065Z" fill="black"></path><path d="M69.9528 118.081C47.7886 108.5 24.1087 102.9 0 101.539L0 189.537L70.3467 119.15C70.2342 118.756 70.0654 118.418 69.9528 118.081Z" fill="black"></path><path d="M0 189.537H86.5546C85.3353 165.31 79.8683 141.485 70.403 119.15L0 189.537Z" fill="black"></path><path d="M135.74 77.8511C132.589 81.535 128.105 83.8177 123.272 84.1975C118.439 84.5773 113.652 83.0232 109.965 79.8767L78.7871 110.935C84.5737 113.69 90.2094 116.752 95.6703 120.106C107.574 127.627 118.582 136.481 128.48 146.494C130.891 140.044 132.663 133.373 133.77 126.577C135.756 115.34 135.179 103.8 132.082 92.8176C136.527 91.1723 140.492 88.4457 143.619 84.8843C148.524 98.9725 149.726 114.085 147.108 128.771C145.3 138.67 142.276 148.308 138.103 157.466C145.905 166.684 152.855 176.59 158.87 187.061C178.033 165.938 188.397 138.292 187.843 109.78C187.288 81.2682 175.857 54.0458 155.887 33.6831L135.515 53.9948C138.413 57.2806 140.031 61.5001 140.073 65.881C140.114 70.262 138.576 74.5113 135.74 77.8511Z" fill="black"></path><path d="M118.744 189.537H148.402C143.844 181.903 138.767 174.59 133.207 167.65C129.034 175.353 124.194 182.677 118.744 189.537Z" fill="black"></path><path d="M90.0444 128.658C88.0184 127.364 85.9924 126.183 83.9102 125.001C91.4414 145.739 95.7866 167.498 96.7977 189.537H101.3C110.354 179.751 117.936 168.701 123.811 156.735C113.826 145.946 102.475 136.507 90.0444 128.658Z" fill="black"></path><path d="M494.622 10.0518V39.3096H446.899V189.199H410.825V39.3096H363.158V10.0518H494.622Z" fill="black"></path><path d="M629.912 10.0518V39.3096H582.188V189.199H546.227V39.3096H498.504V10.0518H629.912Z" fill="black"></path><path d="M673.471 179.241C659.607 171.52 648.079 160.208 640.098 146.494C631.765 132.114 627.504 115.737 627.774 99.1192C627.533 82.5941 631.793 66.3149 640.098 52.0254C648.079 38.3117 659.607 27.0001 673.471 19.2792C687.678 11.5625 703.59 7.52026 719.759 7.52026C735.928 7.52026 751.84 11.5625 766.047 19.2792C779.841 26.9955 791.279 38.3141 799.138 52.0254C807.383 66.3347 811.603 82.6073 811.351 99.1192C811.631 115.723 807.412 132.094 799.138 146.494C791.253 160.224 779.774 171.545 765.935 179.241C751.748 186.957 735.854 191 719.703 191C703.552 191 687.658 186.957 673.471 179.241ZM748.489 151.839C756.796 146.873 763.483 139.602 767.736 130.909C772.522 121.088 774.896 110.267 774.658 99.3442C774.887 88.2827 772.415 77.3321 767.454 67.442C763.219 58.9589 756.636 51.87 748.489 47.0178C739.712 42.2901 729.898 39.8153 719.928 39.8153C709.958 39.8153 700.144 42.2901 691.367 47.0178C682.939 51.7459 676.089 58.849 671.67 67.442C666.878 77.221 664.504 88.0073 664.748 98.8941C664.51 109.816 666.883 120.638 671.67 130.459C675.879 139.352 682.637 146.794 691.086 151.839C699.875 156.686 709.75 159.228 719.787 159.228C729.825 159.228 739.699 156.686 748.489 151.839Z" fill="black"></path><path d="M1026.67 10.0518V189.199H990.482V72.6747L942.478 189.199H915.296L867.235 72.6747V189.199H831.273V10.0518H872.3L929.252 143.287L986.092 10.0518H1026.67Z" fill="black"></path><path d="M333.274 154.822H261.915L250.096 188.974H212.391L276.828 9.54541H318.642L383.08 188.974H345.093L333.274 154.822ZM323.538 126.07L297.595 51.1252L271.651 126.07H323.538Z" fill="black"></path></svg>