<svg xmlns="http://www.w3.org/2000/svg" width="1477" height="289" viewBox="0 0 1477 289" fill="none"><path d="M740.164 226.489C730.188 226.489 721.276 223.463 713.429 217.41C705.583 211.356 701.659 200.651 701.659 185.294V89.9574H686.695C684.565 89.9574 682.996 89.2848 681.987 87.9397C681.09 86.4825 680.642 84.1845 680.642 81.0458V77.3467C680.642 74.208 681.09 71.9661 681.987 70.621C682.996 69.1638 684.565 68.4351 686.695 68.4351H701.659L705.19 37.1606C705.415 32.7889 708.609 30.603 714.775 30.603H717.633C720.772 30.603 723.07 31.1635 724.527 32.2845C725.984 33.2933 726.713 34.9187 726.713 37.1606V68.4351H751.766C753.896 68.4351 755.409 69.1638 756.306 70.621C757.315 71.9661 757.819 74.208 757.819 77.3467V81.0458C757.819 84.1845 757.315 86.4825 756.306 87.9397C755.409 89.2848 753.896 89.9574 751.766 89.9574H726.713V182.94C726.713 191.123 728.114 196.84 730.916 200.091C733.831 203.342 737.754 204.967 742.686 204.967C746.497 204.967 749.412 204.743 751.43 204.294C753.559 203.846 754.961 203.622 755.633 203.622C757.427 203.622 758.884 205.415 760.005 209.002C761.238 212.589 761.855 215.448 761.855 217.578C761.855 223.519 754.624 226.489 740.164 226.489Z" fill="black"></path><path d="M539.91 225.311C531.951 225.311 527.972 223.125 527.972 218.754V6.55757C527.972 2.18586 531.951 0 539.91 0H541.087C549.158 0 553.193 2.18586 553.193 6.55757V87.2661C559.022 81.325 565.86 76.4489 573.707 72.6377C581.553 68.7143 589.904 66.7527 598.76 66.7527C611.314 66.7527 622.356 70.2837 631.884 77.3457C641.524 84.4077 646.344 96.9623 646.344 115.01V218.754C646.344 223.125 642.365 225.311 634.406 225.311H633.229C625.158 225.311 621.123 223.125 621.123 218.754V117.532C621.123 108.452 618.545 101.334 613.388 96.1777C608.232 91.0213 600.665 88.4431 590.689 88.4431C584.075 88.4431 577.966 90.0124 572.361 93.1511C566.869 96.2897 562.273 99.7086 558.574 103.408C554.987 106.995 553.193 109.013 553.193 109.461V218.754C553.193 223.125 549.158 225.311 541.087 225.311H539.91Z" fill="black"></path><path d="M412.621 288.195C393.564 288.195 378.488 285.224 367.39 279.283C356.293 273.342 350.744 263.982 350.744 251.204C350.744 242.46 353.266 234.838 358.311 228.336C363.355 221.835 369.912 216.958 377.983 213.708L378.32 213.035C374.396 210.009 371.37 206.534 369.24 202.61C367.222 198.687 366.213 194.035 366.213 188.654C366.213 175.651 371.818 165.227 383.028 157.38C374.62 153.344 368.231 147.684 363.859 140.397C359.488 132.999 357.302 124.704 357.302 115.512C357.302 106.321 359.544 98.0255 364.027 90.6272C368.623 83.229 375.349 77.4 384.205 73.1404C393.06 68.8808 403.709 66.751 416.152 66.751C422.765 66.751 428.65 67.3115 433.807 68.4324H488.117C490.247 68.4324 491.76 69.161 492.657 70.6183C493.665 71.9634 494.17 74.2053 494.17 77.344V81.0431C494.17 84.1818 493.665 86.4797 492.657 87.937C491.76 89.2821 490.247 89.9547 488.117 89.9547C480.606 89.9547 473.656 89.6744 467.267 89.114L466.931 89.6184C469.509 93.2054 471.415 97.2409 472.648 101.725C473.993 106.096 474.665 110.692 474.665 115.512C474.665 124.704 472.367 132.999 467.771 140.397C463.288 147.796 456.618 153.625 447.762 157.884C439.019 162.144 428.37 164.274 415.815 164.274C406.399 164.61 399.281 166.348 394.461 169.486C389.753 172.625 387.399 177.781 387.399 184.955C387.399 190.224 389.081 194.259 392.444 197.062C395.918 199.864 400.234 201.826 405.391 202.947C410.547 204.068 417.721 205.132 426.913 206.141L435.656 207.15C444.96 208.383 452.751 210.065 459.028 212.194C465.305 214.324 470.462 217.855 474.497 222.787C478.645 227.72 480.718 234.501 480.718 243.133C480.718 257.593 474.946 268.69 463.4 276.425C451.854 284.272 434.928 288.195 412.621 288.195ZM415.815 144.433C426.801 144.433 435.544 142.191 442.046 137.707C448.547 133.223 451.798 125.881 451.798 115.681C451.798 96.4001 439.804 86.76 415.815 86.76C392.163 86.76 380.337 96.4001 380.337 115.681C380.337 125.881 383.532 133.223 389.921 137.707C396.423 142.191 405.054 144.433 415.815 144.433ZM415.815 267.85C429.715 267.85 440.028 266 446.754 262.301C453.479 258.714 456.842 253.221 456.842 245.823C456.842 241.003 455.049 237.248 451.462 234.557C447.875 231.979 443.447 230.13 438.178 229.009C433.022 228 426.184 227.047 417.665 226.15C411.836 225.478 407.016 224.861 403.205 224.301C399.506 223.74 396.087 222.956 392.948 221.947C379.721 227.551 373.107 235.678 373.107 246.327C373.107 260.676 387.343 267.85 415.815 267.85Z" fill="black"></path><path d="M295.596 30.7701C287.638 30.7701 283.658 28.5843 283.658 24.2126V6.55757C283.658 2.18586 287.638 0 295.596 0H299.127C307.198 0 311.234 2.18586 311.234 6.55757V24.2126C311.234 28.5843 307.198 30.7701 299.127 30.7701H295.596ZM296.773 225.311C288.815 225.311 284.835 223.125 284.835 218.754V74.4872C284.835 70.1155 288.815 67.9297 296.773 67.9297H297.95C306.021 67.9297 310.057 70.1155 310.057 74.4872V218.754C310.057 223.125 306.021 225.311 297.95 225.311H296.773Z" fill="black"></path><path d="M187.311 225.31C183.052 225.31 179.969 224.805 178.063 223.796C176.158 222.675 175.205 220.994 175.205 218.752V113.831C175.205 100.828 174.588 91.468 173.355 85.7511C172.122 79.9222 171.506 76.7274 171.506 76.167C171.506 73.7009 173.355 71.9634 177.055 70.9545C180.866 69.8336 184.453 69.2731 187.816 69.2731C190.506 69.2731 192.524 70.7304 193.869 73.6448C195.214 76.4472 196.391 80.4266 197.4 85.583L198.241 89.114C208.89 74.2053 220.435 66.751 232.878 66.751C238.595 66.751 242.91 67.8159 245.825 69.9457C248.739 71.9634 250.197 74.7097 250.197 78.1847C250.197 81.5475 249.58 85.1346 248.347 88.9458C247.226 92.645 245.881 94.4945 244.312 94.4945C243.527 94.4945 242.126 94.1582 240.108 93.4857C238.315 92.701 236.521 92.1405 234.728 91.8042C232.934 91.3559 230.636 91.1317 227.834 91.1317C223.238 91.1317 218.866 92.4768 214.719 95.1671C210.683 97.8574 207.264 100.828 204.462 104.079C201.659 107.329 200.258 109.123 200.258 109.459V218.752C200.258 220.994 199.305 222.675 197.4 223.796C195.494 224.805 192.524 225.31 188.488 225.31H187.311Z" fill="black"></path><path d="M9.07971 224.807C5.94104 224.807 3.64309 224.078 2.18586 222.621C0.728618 221.164 0 218.922 0 215.895V24.5488C0 21.4101 0.728618 19.1682 2.18586 17.8231C3.64309 16.3658 5.94104 15.6372 9.07971 15.6372H62.5491C77.1215 15.6372 89.3959 17.8231 99.3723 22.1948C109.349 26.5665 116.859 32.7317 121.903 40.6905C126.948 48.6492 129.47 57.8971 129.47 68.434C129.47 74.9355 127.957 81.4371 124.93 87.9386C121.903 94.328 117.868 99.8767 112.824 104.585C107.779 109.181 102.399 112.263 96.6821 113.833V115.01C96.6821 114.225 100.549 115.738 108.284 119.549C116.018 123.249 122.968 128.797 129.134 136.196C135.411 143.482 138.55 152.954 138.55 164.612C138.55 204.742 112.544 224.807 60.5314 224.807H9.07971ZM61.2039 105.762C69.0506 105.762 76.1126 104.248 82.3899 101.222C88.6673 98.0832 93.5434 93.8796 97.0183 88.6111C100.605 83.2306 102.399 77.2895 102.399 70.788C102.399 59.5785 99.0361 51.3956 92.3104 46.2392C85.5846 40.9707 74.8235 38.3365 60.027 38.3365H26.3984V105.762H61.2039ZM70.1155 202.107C83.2306 202.107 93.3753 198.689 100.549 191.851C107.723 184.901 111.31 175.429 111.31 163.435C111.31 152.337 107.387 143.762 99.5405 137.709C91.6938 131.544 80.148 128.461 64.9031 128.461H26.3984V202.107H70.1155Z" fill="black"></path><path d="M1320.82 249.195C1308.82 249.195 1302.83 246.057 1302.83 239.779V48.4329C1302.83 45.1822 1304.28 42.7721 1307.2 41.2028C1310.11 39.5214 1314.65 38.6807 1320.82 38.6807H1333.6C1338.42 38.6807 1342.4 39.2411 1345.54 40.3621C1348.67 41.483 1351.25 43.6689 1353.27 46.9197L1423.89 155.708L1431.96 167.814V48.4329C1431.96 45.1822 1433.42 42.7721 1436.33 41.2028C1439.25 39.5214 1443.79 38.6807 1449.95 38.6807H1458.53C1464.69 38.6807 1469.18 39.5214 1471.98 41.2028C1474.89 42.7721 1476.35 45.1822 1476.35 48.4329V239.779C1476.35 246.057 1470.41 249.195 1458.53 249.195H1447.09C1442.16 249.195 1438.18 248.691 1435.16 247.682C1432.13 246.561 1429.61 244.431 1427.59 241.293L1353.61 128.133L1347.22 118.717V239.779C1347.22 246.057 1341.28 249.195 1329.39 249.195H1320.82Z" fill="black"></path><path d="M1234.55 249.532C1228.5 249.532 1223.96 248.691 1220.93 247.01C1218.02 245.328 1216.56 242.918 1216.56 239.78V48.4331C1216.56 41.8195 1222.56 38.5127 1234.55 38.5127H1244.98C1251.14 38.5127 1255.63 39.3534 1258.43 41.0348C1261.34 42.7163 1262.8 45.1824 1262.8 48.4331V239.78C1262.8 246.281 1256.86 249.532 1244.98 249.532H1234.55Z" fill="black"></path><path d="M1088.44 251.214C1068.04 251.214 1050.66 247.066 1036.32 238.771C1022.08 230.476 1011.21 218.37 1003.7 202.452C996.299 186.423 992.6 166.918 992.6 143.939C992.6 121.071 996.299 101.679 1003.7 85.7614C1011.21 69.7318 1022.08 57.6255 1036.32 49.4426C1050.66 41.1475 1068.04 37 1088.44 37C1108.95 37 1126.33 41.1475 1140.57 49.4426C1154.91 57.6255 1165.79 69.7318 1173.18 85.7614C1180.58 101.679 1184.28 121.071 1184.28 143.939C1184.28 166.918 1180.58 186.423 1173.18 202.452C1165.79 218.37 1154.91 230.476 1140.57 238.771C1126.33 247.066 1108.95 251.214 1088.44 251.214ZM1088.44 211.868C1104.47 211.868 1116.58 206.096 1124.76 194.55C1132.94 182.892 1137.03 166.021 1137.03 143.939C1137.03 121.856 1132.94 105.098 1124.76 93.6641C1116.58 82.2304 1104.47 76.5135 1088.44 76.5135C1072.52 76.5135 1060.42 82.2864 1052.12 93.8322C1043.94 105.266 1039.85 121.968 1039.85 143.939C1039.85 166.021 1044 182.892 1052.29 194.55C1060.59 206.096 1072.64 211.868 1088.44 211.868Z" fill="black"></path><path d="M905.67 251.214C872.042 251.214 847.213 242.47 831.183 224.984C815.265 207.497 807.307 180.314 807.307 143.434C807.307 72.4781 840.599 37 907.183 37C916.263 37 925.679 37.8968 935.431 39.6903C945.184 41.4838 953.311 44.0059 959.812 47.2567C966.426 50.3954 969.733 53.9264 969.733 57.8497C969.733 60.6521 968.612 64.3512 966.37 68.9471C964.128 73.4309 961.437 77.4103 958.299 80.8852C955.272 84.3602 952.582 86.0977 950.228 86.0977C949.667 86.0977 948.154 85.5372 945.688 84.4162C940.308 82.1743 934.647 80.3248 928.706 78.8675C922.877 77.2982 915.422 76.5135 906.343 76.5135C888.744 76.5135 875.685 82.1183 867.165 93.3278C858.758 104.425 854.555 121.239 854.555 143.771C854.555 166.302 858.814 183.284 867.334 194.718C875.853 206.152 888.632 211.868 905.67 211.868C914.526 211.868 922.204 210.972 928.706 209.178C935.319 207.385 941.765 205.087 948.042 202.284C948.378 202.172 949.387 201.78 951.069 201.107C952.75 200.323 953.983 199.93 954.768 199.93C957.682 199.93 960.485 201.668 963.175 205.143C965.865 208.506 968.051 212.373 969.733 216.745C971.414 221.004 972.255 224.087 972.255 225.992C972.255 231.485 968.556 236.137 961.157 239.948C953.871 243.759 945.016 246.618 934.591 248.524C924.278 250.317 914.638 251.214 905.67 251.214Z" fill="black"></path></svg>