<svg width="502" height="356" viewBox="0 0 502 356" fill="none" xmlns="http://www.w3.org/2000/svg">
<path d="M349.495 108.011H60.3362C55.5899 108.011 51.7363 111.857 51.7363 116.603V303.747C51.7363 308.486 55.5827 312.339 60.3362 312.339H349.495C354.241 312.339 358.087 308.486 358.087 303.747V116.603C358.087 111.864 354.241 108.011 349.495 108.011Z" fill="#59585B"/>
<path d="M244.774 317.587C244.258 316.68 243.692 316.193 243.17 316.193H163.949C163.427 316.193 162.861 316.68 162.353 317.587L151.692 336.376C149.341 340.512 149.152 348.996 151.481 348.996H255.645C257.975 348.996 257.786 340.512 255.435 336.376L244.774 317.587Z" fill="#59585B"/>
<path d="M338.834 126.684H70.9902V280.937H338.834V126.684Z" fill="white"/>
<path d="M327.317 139.036H82.5225V217.727H327.317V139.036Z" fill="#25A8E0"/>
<path d="M140.98 223.394H82.5225V230.165H140.98V223.394Z" fill="#B9E5F8"/>
<path d="M203.015 236.4H82.5225V270.582H203.015V236.4Z" fill="#B9E5F8"/>
<path d="M203.087 223.394H144.63V230.165H203.087V223.394Z" fill="#B9E5F8"/>
<path d="M265.202 223.394H206.745V230.165H265.202V223.394Z" fill="#B9E5F8"/>
<path d="M327.238 235.999H206.745V241.13H327.238V235.999Z" fill="#25A8E0"/>
<path d="M327.238 244.817H206.745V249.948H327.238V244.817Z" fill="#25A8E0"/>
<path d="M327.238 253.62H206.745V258.751H327.238V253.62Z" fill="#25A8E0"/>
<path d="M269.499 262.438H206.745V267.576H269.499V262.438Z" fill="#25A8E0"/>
<path d="M327.311 223.394H268.854V230.165H327.311V223.394Z" fill="#B9E5F8"/>
<path d="M467.388 208H295.398C292.575 208 290.289 210.293 290.289 213.116V318.935C290.289 321.758 292.575 324.044 295.398 324.044H467.388C470.211 324.044 472.497 321.758 472.497 318.935V213.116C472.505 210.293 470.211 208 467.388 208Z" fill="#59585B"/>
<path d="M473.913 327.592C472.999 326.728 471.86 326.264 470.677 326.264H292.112C290.929 326.264 289.789 326.728 288.875 327.592L270.884 344.508C267.168 347.999 269.317 354.937 274.121 354.937H488.675C493.479 354.937 495.634 348.006 491.911 344.508L473.913 327.592Z" fill="#59585B"/>
<path d="M460.459 219.11H301.996V312.606H460.459V219.11Z" fill="white"/>
<path d="M452.606 227.051H308.948V270.899H452.606V227.051Z" fill="#25A8E0"/>
<path d="M343.253 274.738H308.948V278.998H343.253V274.738Z" fill="#B9E5F8"/>
<path d="M379.656 282.866H308.948V304.399H379.656V282.866Z" fill="#B9E5F8"/>
<path d="M379.707 274.738H345.401V278.998H379.707V274.738Z" fill="#B9E5F8"/>
<path d="M416.154 274.738H381.849V278.998H416.154V274.738Z" fill="#B9E5F8"/>
<path d="M452.556 282.612H381.849V285.849H452.556V282.612Z" fill="#25A8E0"/>
<path d="M452.556 288.164H381.849V291.394H452.556V288.164Z" fill="#25A8E0"/>
<path d="M452.556 293.716H381.849V296.945H452.556V293.716Z" fill="#25A8E0"/>
<path d="M418.672 299.267H381.849V302.503H418.672V299.267Z" fill="#25A8E0"/>
<path d="M452.607 274.738H418.302V278.998H452.607V274.738Z" fill="#B9E5F8"/>
<path d="M83.4078 240H6.34285C2.83759 240 0 242.845 0 246.35V348.968C0 352.473 2.83759 355.311 6.34285 355.311H83.4005C86.9058 355.311 89.7434 352.466 89.7434 348.968V246.35C89.7506 242.845 86.9131 240 83.4078 240Z" fill="#59585B"/>
<path d="M79.8 248.759H9.95605V338.771H79.8V248.759Z" fill="white"/>
<path d="M75.2862 253.708H14.4268V291.366H75.2862V253.708Z" fill="#3897C6"/>
<path d="M34.8052 293.869H14.4268V297.396H34.8052V293.869Z" fill="#B9E5F8"/>
<path d="M43.3542 300.416H14.4268V317.093H43.3542V300.416Z" fill="#B9E5F8"/>
<path d="M44.5744 293.869H35.3867V297.396H44.5744V293.869Z" fill="#B9E5F8"/>
<path d="M54.3414 293.869H45.1465V297.396H54.3414V293.869Z" fill="#B9E5F8"/>
<path d="M75.323 300.86H45.7568V303.255H75.323V300.86Z" fill="#3897C6"/>
<path d="M75.323 304.974H45.7568V307.376H75.323V304.974Z" fill="#3897C6"/>
<path d="M75.323 309.104H45.7568V311.498H75.323V309.104Z" fill="#3897C6"/>
<path d="M55.3292 313.225H45.7568V315.627H55.3292V313.225Z" fill="white"/>
<path d="M75.323 319.17H45.7568V321.565H75.323V319.17Z" fill="#3897C6"/>
<path d="M75.323 323.283H45.7568V325.685H75.323V323.283Z" fill="#3897C6"/>
<path d="M75.2944 293.869H54.916V297.396H75.2944V293.869Z" fill="#B9E5F8"/>
<path d="M49.5371 347.008C49.5371 348.518 48.1582 349.737 46.46 349.737H43.2958C41.5976 349.737 40.2188 348.518 40.2188 347.008C40.2188 345.499 41.5976 344.279 43.2958 344.279H46.46C48.1582 344.272 49.5371 345.499 49.5371 347.008Z" fill="white"/>
<path d="M135.401 285H99.202C96.8796 285 95 286.887 95 289.202V350.954C95 353.276 96.8796 355.156 99.202 355.156H135.401C137.724 355.156 139.603 353.276 139.603 350.954V289.202C139.596 286.88 137.724 285 135.401 285Z" fill="#59585B"/>
<path d="M133.006 290.798H101.589V342.97H133.006V290.798Z" fill="white"/>
<path d="M130.025 294.071H104.552V312.831H130.025V294.071Z" fill="#25A8E0"/>
<path d="M110.632 314.479H104.551V316.808H110.632V314.479Z" fill="#B9E5F8"/>
<path d="M116.293 318.818H104.551V329.857H116.293V318.818Z" fill="#B9E5F8"/>
<path d="M117.098 314.479H111.017V316.808H117.098V314.479Z" fill="#B9E5F8"/>
<path d="M123.564 314.479H117.482V316.808H123.564V314.479Z" fill="#B9E5F8"/>
<path d="M130.045 319.108H117.882V320.698H130.045V319.108Z" fill="#25A8E0"/>
<path d="M130.045 321.836H117.882V323.425H130.045V321.836Z" fill="#25A8E0"/>
<path d="M130.045 324.566H117.882V326.156H130.045V324.566Z" fill="#25A8E0"/>
<path d="M124.217 327.295H117.882V328.884H124.217V327.295Z" fill="#25A8E0"/>
<path d="M130.045 331.229H117.882V332.819H130.045V331.229Z" fill="#25A8E0"/>
<path d="M130.045 333.957H117.882V335.546H130.045V333.957Z" fill="#25A8E0"/>
<path d="M130.023 314.479H123.941V316.808H130.023V314.479Z" fill="#B9E5F8"/>
<path d="M127.807 348.786C127.807 349.94 126.871 350.876 125.717 350.876H123.569C122.415 350.876 121.479 349.94 121.479 348.786C121.479 347.632 122.415 346.696 123.569 346.696H125.717C126.878 346.696 127.807 347.632 127.807 348.786Z" fill="white"/>
<path d="M207.445 0H71.7848C68.1847 0 65.2734 2.92427 65.2734 6.53365V86.9036C65.2734 90.513 68.1902 93.4317 71.7848 93.4317H126.081L142.737 117.377V93.4317H207.44C211.04 93.4317 213.951 90.5074 213.951 86.9036V6.53365C213.957 2.92427 211.04 0 207.445 0Z" fill="#25A8E0"/>
<path d="M110.659 46.1686C110.659 50.0596 107.159 53.2112 102.831 53.2112C98.5093 53.2112 95.0088 50.0596 95.0088 46.1686C95.0088 42.2776 98.5093 39.126 102.831 39.126C107.159 39.126 110.659 42.2776 110.659 46.1686Z" fill="white"/>
<path d="M146.655 46.1686C146.655 50.0596 143.503 53.2112 139.612 53.2112C135.721 53.2112 132.569 50.0596 132.569 46.1686C132.569 42.2776 135.721 39.126 139.612 39.126C143.503 39.126 146.655 42.2776 146.655 46.1686Z" fill="white"/>
<path d="M184.216 46.1686C184.216 50.0596 180.714 53.2112 176.391 53.2112C172.067 53.2112 168.565 50.0596 168.565 46.1686C168.565 42.2776 172.067 39.126 176.391 39.126C180.708 39.126 184.216 42.2776 184.216 46.1686Z" fill="white"/>
<path d="M493.113 84H371.338C366.733 84 363 87.7332 363 92.3377V179.079C363 183.684 366.733 187.417 371.338 187.417H417.597V218L438.931 187.417H493.113C497.717 187.417 501.45 183.684 501.45 179.079V92.3377C501.457 87.7332 497.724 84 493.113 84Z" fill="#3897C6"/>
<path d="M483.905 111.655C483.905 113.726 482.223 115.408 480.151 115.408H382.981C380.91 115.408 379.228 113.726 379.228 111.655C379.228 109.584 380.91 107.901 382.981 107.901H480.151C482.229 107.901 483.905 109.584 483.905 111.655Z" fill="white"/>
<path d="M483.905 133.342C483.905 135.413 482.223 137.095 480.151 137.095H382.981C380.91 137.095 379.228 135.413 379.228 133.342C379.228 131.271 380.91 129.589 382.981 129.589H480.151C482.229 129.589 483.905 131.264 483.905 133.342Z" fill="white"/>
<path d="M436.365 155.025C436.365 157.096 434.683 158.778 432.612 158.778H382.981C380.91 158.778 379.228 157.096 379.228 155.025C379.228 152.954 380.91 151.271 382.981 151.271H432.612C434.683 151.271 436.365 152.954 436.365 155.025Z" fill="white"/>
<path d="M288.206 51.6445H225.771C223.565 51.6445 221.775 53.3855 221.775 55.5316V99.2401C221.775 101.386 223.565 103.127 225.771 103.127H255.83L266.049 117.376V103.127H288.206C290.412 103.127 292.202 101.386 292.202 99.2401V55.5276C292.202 53.3815 290.412 51.6445 288.206 51.6445Z" fill="#B9E5F8"/>
<path d="M272.371 72.317C271.751 72.7991 271.681 73.6482 272.219 74.2081L278.637 80.9161C279.175 81.476 280.112 81.5391 280.732 81.0533C281.353 80.5712 281.422 79.7221 280.884 79.1622L274.462 72.4579C273.928 71.8943 272.991 71.8313 272.371 72.317Z" fill="white"/>
<path d="M258.286 72.317C257.666 72.7991 257.596 73.6482 258.134 74.2081L264.552 80.9161C265.09 81.476 266.027 81.5391 266.647 81.0533C267.268 80.5712 267.337 79.7221 266.799 79.1622L260.377 72.4579C259.843 71.8943 258.902 71.8313 258.286 72.317Z" fill="white"/>
<path d="M245.765 72.317C245.145 72.7991 245.075 73.6482 245.613 74.2081L252.031 80.9161C252.569 81.476 253.506 81.5391 254.127 81.0533C254.747 80.5712 254.817 79.7221 254.279 79.1622L247.857 72.4579C247.323 71.8943 246.386 71.8313 245.765 72.317Z" fill="white"/>
<path d="M233.245 72.317C232.625 72.7991 232.555 73.6482 233.093 74.2081L239.511 80.9161C240.049 81.476 240.986 81.5391 241.606 81.0533C242.227 80.5712 242.296 79.7221 241.758 79.1622L235.336 72.4579C234.806 71.8943 233.865 71.8313 233.245 72.317Z" fill="white"/>
</svg>
