<svg width="450" height="398" viewBox="0 0 450 398" fill="none" xmlns="http://www.w3.org/2000/svg">
<path d="M163.549 65.8655C162.952 61.981 160.164 59.0538 156.807 59.0538C156.252 59.0538 155.711 59.1371 155.197 59.2897C154.004 52.1173 148.802 46.7207 142.559 46.7207C137.523 46.7207 133.153 50.2445 131.031 55.3775C130.282 55.1694 129.505 55.0584 128.7 55.0584C125.259 55.0584 122.194 57.0422 120.224 60.1082C119.225 59.4284 118.087 59.0261 116.866 59.0261C113.509 59.0261 110.721 61.9672 110.124 65.8377H163.549V65.8655Z" fill="#8CBDFF"/>
<path d="M402.984 96.9562C401.999 90.4775 397.338 85.5665 391.719 85.5665C390.79 85.5665 389.888 85.7191 389.028 85.9688C387.03 73.9825 378.332 64.9512 367.899 64.9512C359.465 64.9512 352.181 70.8472 348.63 79.4346C347.367 79.1017 346.063 78.9074 344.731 78.9074C338.974 78.9074 333.855 82.2231 330.567 87.3561C328.902 86.2185 326.988 85.5526 324.948 85.5526C319.344 85.5526 314.682 90.4637 313.684 96.9424H402.984V96.9562Z" fill="#B9E5F8"/>
<path d="M92.561 108.858C92.6858 108.247 92.7552 107.623 92.7552 106.985C92.7552 101.047 87.2337 96.2194 80.4082 96.2194C79.7839 96.2194 79.1735 96.2749 78.577 96.3442C77.148 87.8262 68.741 81.292 58.5721 81.292C48.417 81.292 40.01 87.8123 38.5672 96.3165C38.0122 96.261 37.4573 96.2194 36.8885 96.2194C28.8699 96.2194 22.3635 101.88 22.3496 108.858H92.561Z" fill="#8CBDFF"/>
<path d="M419.201 120.316H35.7924C30.1183 120.316 25.5264 124.908 25.5264 130.582V373.027H429.453V130.569C429.467 124.908 424.861 120.316 419.201 120.316Z" fill="#25A8E0"/>
<path d="M410.557 138.213H44.4346V357.088H410.557V138.213Z" fill="#8CBDFF"/>
<path d="M0 370.78C0 385.819 12.1805 397.999 27.2189 397.999H421.892C436.931 397.999 449.111 385.819 449.111 370.78H0Z" fill="#25A8E0"/>
<path d="M258.357 378.078H182.888C178.962 378.078 175.785 374.901 175.785 370.975H265.46C265.46 374.901 262.283 378.078 258.357 378.078Z" fill="#59585B"/>
<path d="M380.232 331.603C373.212 331.603 366.636 333.865 360.921 337.791C349.642 320.116 332.037 308.74 312.24 308.74C307.634 308.74 303.139 309.379 298.825 310.544C292.513 295.256 282.732 282.451 270.746 273.656C270.746 273.35 270.774 273.059 270.774 272.754C270.774 257.882 263.74 244.661 252.822 236.198C253.862 233.16 254.459 229.914 254.459 226.529C254.459 217.123 250.103 208.73 243.305 203.25C244.443 200.697 245.095 197.867 245.095 194.898C245.095 183.55 235.897 174.353 224.549 174.353C213.201 174.353 204.003 183.55 204.003 194.898C204.003 197.881 204.655 200.697 205.792 203.25C198.995 208.73 194.639 217.109 194.639 226.529C194.639 229.914 195.235 233.16 196.276 236.198C185.357 244.647 178.324 257.882 178.324 272.754C178.324 275.279 178.532 277.762 178.92 280.19C170.458 288.347 163.48 298.696 158.583 310.558C154.254 309.393 149.773 308.754 145.167 308.754C125.371 308.754 107.752 320.13 96.4869 337.804C90.7712 333.878 84.1954 331.617 77.1757 331.617C57.8783 331.617 41.8549 348.501 38.4561 370.794H111.955H345.438H418.938C415.553 348.487 399.529 331.603 380.232 331.603Z" fill="white"/>
<path opacity="0.2" d="M128.95 370.78C136.247 358.614 148.996 349.735 163.036 347.502C165.949 332.685 181.112 321.351 196.15 322.752C189.921 308.047 193.764 289.665 205.362 278.691C201.214 264.999 206.847 248.934 218.639 240.832C212.049 229.026 216.266 212.406 227.698 205.178C221.663 195.675 223.605 184.993 224.146 174.366C212.992 174.588 204.016 183.675 204.016 194.884C204.016 197.867 204.669 200.683 205.806 203.236C199.008 208.716 194.652 217.095 194.652 226.515C194.652 229.9 195.249 233.146 196.289 236.184C185.371 244.633 178.338 257.868 178.338 272.74C178.338 275.265 178.546 277.748 178.934 280.176C170.472 288.333 163.493 298.682 158.596 310.544C154.268 309.378 149.787 308.74 145.181 308.74C125.384 308.74 107.765 320.116 96.5006 337.79C90.7849 333.864 84.2091 331.603 77.1893 331.603C57.892 331.603 41.8686 348.487 38.4697 370.78H111.969H128.95Z" fill="url(#paint0_linear_327_772)"/>
<path d="M288.171 118.167C290.293 126.671 287.81 135.564 285.355 143.971C280.402 160.91 275.449 177.849 270.497 194.774C269.72 197.451 268.402 200.615 265.627 200.975C261.784 201.475 260.009 196.342 259.939 192.471C259.828 186.006 260.522 179.528 262.006 173.229C262.464 171.273 263.005 169.206 262.395 167.292C261.826 165.474 260.314 164.129 258.829 162.935C252.975 158.219 246.372 154.459 239.338 151.809C241.017 141.46 242.223 114.824 250.797 107.735C255.791 103.614 286.7 112.285 288.171 118.167Z" fill="#59585B"/>
<path d="M160.747 120.082C158.888 128.642 161.621 137.451 164.326 145.789C169.778 162.575 175.244 179.348 180.696 196.134C181.556 198.784 182.971 201.905 185.746 202.183C189.603 202.557 191.226 197.383 191.184 193.512C191.101 187.047 190.213 180.582 188.548 174.339C188.021 172.397 187.425 170.344 187.98 168.416C188.493 166.584 189.963 165.183 191.406 163.949C197.122 159.065 203.615 155.098 210.565 152.254C208.581 141.96 206.569 115.379 197.788 108.54C192.669 104.558 162.037 114.144 160.747 120.082Z" fill="#59585B"/>
<path d="M245.164 179.014C267.805 125.7 264.892 62.6332 241.086 9.79085C239.116 5.43472 235.231 2.07745 230.542 1.10634C230.376 1.06472 230.195 1.03697 230.029 1.00923C223.786 -0.142232 217.515 2.84047 214.061 8.18158C182.999 56.3071 179.85 128.821 206.57 179.597C219.028 181.15 232.637 178.195 245.164 179.014Z" fill="#B9E5F8"/>
<path d="M212.59 109.885C197.011 50.1337 212.119 19.1275 222.232 1.64746C218.93 2.82667 216.031 5.10184 214.061 8.16778C182.999 56.2933 179.85 128.808 206.57 179.583C212.202 180.29 218.056 180.068 223.952 179.694C221.996 162.63 220.304 139.476 212.59 109.885Z" fill="url(#paint1_linear_327_772)"/>
<path d="M224.618 128.391L219.069 117.293L201.839 169.65C203.296 173.049 204.877 176.364 206.57 179.597C212.41 180.332 218.5 180.068 224.618 179.666V128.391Z" fill="url(#paint2_linear_327_772)"/>
<path d="M224.397 30.5721C234.164 30.4334 242.196 38.23 242.349 47.9967C242.487 57.7633 234.691 65.7957 224.924 65.9483C215.158 66.1009 207.125 58.2904 206.973 48.5238C206.834 38.7572 214.63 30.7109 224.397 30.5721Z" fill="url(#paint3_linear_327_772)"/>
<path d="M225.964 29.0471C235.731 28.8945 243.764 36.705 243.916 46.4716C244.055 56.2382 236.258 64.2707 226.492 64.4233C216.725 64.5759 208.693 56.7654 208.54 46.9988C208.401 37.2183 216.198 29.1859 225.964 29.0471Z" fill="#25A8E0"/>
<path d="M226.02 32.1258C234.08 32.001 240.711 38.438 240.836 46.5121C240.961 54.5724 234.524 61.2037 226.45 61.3285C218.389 61.4534 211.758 55.0163 211.633 46.9422C211.522 38.882 217.959 32.2507 226.02 32.1258Z" fill="#59585B"/>
<path d="M260.466 107.249L238.852 178.889C239.809 178.875 240.766 178.875 241.709 178.889C241.876 178.889 242.042 178.889 242.195 178.903C243.194 178.931 244.179 178.958 245.15 179.028C254.792 156.332 259.772 131.873 260.521 107.193L260.466 107.249Z" fill="url(#paint4_linear_327_772)"/>
<path d="M234.177 30.9336C231.375 38.7719 226.172 53.4218 222.648 64.0346C223.897 64.2982 225.173 64.4231 226.505 64.4092C236.272 64.2566 244.068 56.2241 243.93 46.4575C243.819 39.6459 239.865 33.7914 234.177 30.9336Z" fill="url(#paint5_linear_327_772)"/>
<path d="M220.332 194.636L221.747 207.025C222.024 209.494 224.147 211.353 226.63 211.325C229.155 211.284 231.236 209.314 231.402 206.789L236.702 125.313C237.146 118.39 231.735 112.494 224.813 112.355C217.446 112.203 211.633 118.584 212.479 125.909L214.158 140.573" fill="#59585B"/>
<path d="M225.291 341H231.349C233.176 341 234.657 339.512 234.657 337.674V331.999C239.504 331.273 243.732 329.74 247.319 327.374C252.968 323.61 255.869 318.434 255.996 311.814C256.079 307.686 254.946 304.175 252.582 301.298C248.751 296.694 242.773 293.813 234.657 292.669V281.174C236.08 281.851 237.462 282.757 238.784 283.915C239.598 284.596 240.543 284.944 241.617 284.948C242.486 284.952 243.682 284.341 243.682 284.341L243.703 284.331L250.493 280.038C251.419 279.448 251.894 278.693 251.91 277.777C251.922 277.041 251.625 276.397 251.022 275.842C246.787 270.988 241.326 267.976 234.656 266.806V260.336C234.657 258.495 233.176 257 231.349 257H225.291C223.462 257 221.982 258.495 221.982 260.336V266.637C218.846 267.075 216.011 267.876 213.49 269.038C205.339 272.777 201.341 278.381 201.478 285.804C201.542 289.459 202.632 292.692 204.741 295.505C208.286 300.295 214.037 303.292 221.982 304.527V318.877C218.548 317.654 215.303 315.381 212.247 312.04C211.576 311.161 210.682 310.723 209.568 310.723C208.955 310.723 207.755 311.254 207.755 311.254L207.737 311.263L201.557 314.915C200.5 315.531 199.986 316.35 200 317.357C200.013 318.017 200.255 318.602 200.724 319.132C202.334 321.393 204.489 323.562 207.196 325.632C211.568 329.022 216.5 331.132 221.981 332.01V337.676C221.981 339.512 223.462 341 225.291 341ZM234.657 306.064C237.927 307.103 239.58 309.019 239.559 311.849C239.537 314.476 238.342 316.512 235.986 317.958C235.568 318.222 235.113 318.447 234.657 318.657V306.064ZM217.985 285.84C217.974 283.786 219.145 282.184 221.517 281.044L221.982 280.861V291.05C219.338 290.027 218.006 288.293 217.985 285.84Z" fill="#25A8E0"/>
<defs>
<linearGradient id="paint0_linear_327_772" x1="125.322" y1="269.358" x2="213.308" y2="316.592" gradientUnits="userSpaceOnUse">
<stop stop-color="#1762FF" stop-opacity="0.89"/>
<stop offset="1" stop-color="#1B61FC" stop-opacity="0"/>
</linearGradient>
<linearGradient id="paint1_linear_327_772" x1="130.315" y1="109.898" x2="252.729" y2="84.5403" gradientUnits="userSpaceOnUse">
<stop stop-color="#8CBDFF"/>
<stop offset="1" stop-color="#83B8FF" stop-opacity="0"/>
</linearGradient>
<linearGradient id="paint2_linear_327_772" x1="237.397" y1="131.703" x2="189.642" y2="183.197" gradientUnits="userSpaceOnUse">
<stop stop-color="#8CBDFF"/>
<stop offset="1" stop-color="#83B8FF" stop-opacity="0"/>
</linearGradient>
<linearGradient id="paint3_linear_327_772" x1="196.676" y1="63.9614" x2="234.829" y2="42.5487" gradientUnits="userSpaceOnUse">
<stop stop-color="#8CBDFF"/>
<stop offset="1" stop-color="#83B8FF" stop-opacity="0"/>
</linearGradient>
<linearGradient id="paint4_linear_327_772" x1="274.811" y1="144.895" x2="224.467" y2="141.155" gradientUnits="userSpaceOnUse">
<stop stop-color="#8CBDFF"/>
<stop offset="1" stop-color="#83B8FF" stop-opacity="0"/>
</linearGradient>
<linearGradient id="paint5_linear_327_772" x1="220.818" y1="47.6708" x2="254.73" y2="47.6708" gradientUnits="userSpaceOnUse">
<stop stop-color="white" stop-opacity="0"/>
<stop offset="1" stop-color="white"/>
</linearGradient>
</defs>
</svg>
