<svg xmlns="http://www.w3.org/2000/svg" width="1410" height="226" viewBox="0 0 1410 226" fill="none"><path d="M1148.76 78.3901C1149.86 78.9764 1149.86 78.9764 1150.98 79.5745C1160.03 84.8661 1165.74 92.876 1169.21 102.724C1169.93 105.933 1170.06 108.877 1170.02 112.152C1170.01 113.055 1170.01 113.055 1170 113.976C1169.8 124.084 1166.31 132.768 1159.25 140.254C1149.73 148.948 1139.38 151.875 1126.77 151.601C1116.51 151.112 1107.49 146.218 1100.5 138.799C1094.19 130.973 1091.14 122.663 1091.26 112.669C1091.26 111.977 1091.27 111.284 1091.27 110.57C1091.4 105.376 1092.06 101.054 1094.59 96.4467C1094.98 95.7474 1095.36 95.0482 1095.75 94.3277C1101.24 85.1048 1108.92 78.5175 1119.25 75.2308C1129.02 73.0538 1139.94 73.5632 1148.76 78.3901Z" fill="black"></path><path d="M751.726 75.8211C760.351 79.5441 766.362 90.6416 771.831 97.951C774.769 96.9717 775.851 95.1321 777.615 92.7315C778.288 91.8387 778.961 90.9462 779.634 90.0541C780.134 89.3866 780.134 89.3866 780.645 88.7056C789.403 77.0465 789.403 77.0465 794.402 75.3802C802.983 74.5134 802.983 74.5134 806.158 77.026C809.309 80.7582 809.672 84.0169 809.656 88.7844C809.66 89.3647 809.663 89.9451 809.667 90.543C809.678 92.455 809.677 94.3667 809.675 96.2787C809.678 97.612 809.682 98.9452 809.685 100.278C809.691 103.071 809.691 105.863 809.687 108.655C809.682 112.228 809.695 115.801 809.713 119.374C809.724 122.127 809.724 124.879 809.722 127.632C809.722 128.949 809.726 130.266 809.734 131.583C809.743 133.427 809.738 135.271 809.729 137.115C809.735 137.655 809.741 138.196 809.747 138.753C809.71 142.256 809.023 144.627 807.192 147.607C804.371 150.355 801.983 150.864 798.164 151.039C795.271 150.939 793.236 150.771 790.922 148.97C787.375 144.769 787.386 140.933 787.319 135.648C787.305 134.935 787.29 134.223 787.275 133.488C787.23 131.22 787.195 128.951 787.161 126.682C787.132 125.14 787.102 123.599 787.072 122.057C787 118.285 786.937 114.513 786.878 110.741C786.333 111.458 785.788 112.174 785.227 112.913C784.492 113.866 783.758 114.819 783.023 115.772C782.666 116.243 782.309 116.714 781.941 117.199C776.164 124.655 776.164 124.655 771.784 125.459C766.927 124.529 764.485 120.455 761.862 116.619C759.863 113.542 759.863 113.542 757.536 110.741C757.525 111.697 757.514 112.654 757.503 113.639C757.459 117.198 757.401 120.757 757.339 124.315C757.314 125.853 757.293 127.392 757.276 128.93C757.25 131.145 757.211 133.36 757.169 135.575C757.164 136.259 757.159 136.943 757.155 137.649C757.065 141.519 756.681 144.26 754.527 147.607C751.779 150.217 749.564 150.842 745.875 150.992C742.186 150.842 739.971 150.217 737.223 147.607C735.073 144.111 734.64 141.157 734.674 137.138C734.67 136.559 734.666 135.98 734.662 135.383C734.652 133.479 734.658 131.575 734.666 129.671C734.664 128.34 734.662 127.01 734.659 125.679C734.656 122.895 734.661 120.11 734.671 117.326C734.684 113.766 734.677 110.206 734.663 106.645C734.655 103.899 734.658 101.153 734.664 98.4062C734.665 97.0939 734.663 95.7816 734.658 94.4693C734.652 92.6311 734.661 90.7934 734.674 88.9552C734.669 88.4184 734.664 87.8816 734.66 87.3286C734.708 83.5195 735.493 80.963 737.223 77.6373C741.321 74.2688 746.766 74.5449 751.726 75.8211Z" fill="black"></path><path d="M1287.24 76.3683C1293.31 79.9044 1297.65 86.4589 1301.91 91.9327C1302.24 92.3478 1302.56 92.7628 1302.89 93.1904C1304.29 95.029 1305.27 96.4931 1306.01 98.704C1309 96.5044 1311.2 94.0518 1313.39 91.0863C1314.05 90.2152 1314.71 89.3443 1315.37 88.4737C1316.56 86.8887 1317.75 85.2991 1318.93 83.7068C1321.83 79.9123 1324.04 77.0458 1328.58 75.3809C1332.59 74.8714 1336.77 74.49 1340.33 76.6975C1342.92 79.1491 1343.56 80.5237 1343.84 84.1254C1343.85 85.2366 1343.86 86.3479 1343.87 87.4592C1343.88 88.3718 1343.88 88.3718 1343.89 89.3028C1343.91 91.3129 1343.92 93.3228 1343.93 95.333C1343.94 96.733 1343.95 98.133 1343.96 99.533C1343.97 102.468 1343.98 105.403 1343.99 108.339C1343.99 112.093 1344.03 115.847 1344.07 119.601C1344.1 122.493 1344.11 125.386 1344.11 128.278C1344.12 129.662 1344.13 131.045 1344.15 132.429C1344.17 134.369 1344.17 136.306 1344.16 138.246C1344.17 138.814 1344.19 139.381 1344.2 139.965C1344.14 143.956 1342.94 145.967 1340.23 148.862C1338 150.864 1336.15 150.762 1333.23 150.805C1332.45 150.824 1331.67 150.844 1330.87 150.864C1328.19 150.575 1326.91 150.05 1324.81 148.36C1322.18 144.327 1322.2 140.656 1322.17 135.999C1322.16 135.254 1322.15 134.508 1322.13 133.741C1322.09 131.372 1322.07 129.004 1322.04 126.635C1322.02 125.025 1321.99 123.414 1321.96 121.804C1321.9 117.866 1321.85 113.928 1321.81 109.989C1321.53 110.365 1321.25 110.741 1320.97 111.128C1319.7 112.838 1318.43 114.541 1317.15 116.243C1316.72 116.834 1316.28 117.426 1315.83 118.035C1311.64 123.595 1311.64 123.595 1308.26 125.037C1305.77 125.225 1305.77 125.225 1303 124.284C1298.4 120.271 1295.16 114.967 1291.71 109.989C1291.71 110.405 1291.7 110.821 1291.7 111.249C1291.65 115.582 1291.59 119.915 1291.51 124.248C1291.49 125.864 1291.47 127.48 1291.45 129.097C1291.43 131.422 1291.39 133.747 1291.34 136.072C1291.34 137.154 1291.34 137.154 1291.33 138.257C1291.22 143.084 1290.37 145.61 1287.24 149.347C1283.66 151.32 1279.91 151.207 1275.91 150.617C1272.76 149.191 1271.37 147.705 1269.89 144.598C1269.67 142.489 1269.58 140.548 1269.59 138.441C1269.58 137.831 1269.58 137.222 1269.57 136.593C1269.56 134.584 1269.56 132.574 1269.57 130.565C1269.56 129.164 1269.56 127.763 1269.55 126.362C1269.55 123.429 1269.55 120.495 1269.56 117.561C1269.57 113.806 1269.55 110.051 1269.53 106.296C1269.51 103.403 1269.51 100.511 1269.52 97.619C1269.52 96.2346 1269.51 94.8503 1269.51 93.4661C1269.49 91.5283 1269.5 89.5916 1269.52 87.6539C1269.51 87.0851 1269.5 86.5163 1269.49 85.9302C1269.55 82.0634 1270.47 79.8697 1272.9 76.8856C1276.82 74.1281 1282.96 74.5798 1287.24 76.3683Z" fill="black"></path><path d="M1193.25 76.368C1195.23 78.2224 1196.33 79.7052 1197.73 81.9872C1199.83 85.3313 1201.96 88.6375 1204.15 91.9177C1204.45 92.3615 1204.75 92.8053 1205.05 93.2626C1205.96 94.6222 1206.87 95.9811 1207.78 97.34C1208.41 98.2809 1209.03 99.2218 1209.66 100.163C1211.18 102.436 1212.7 104.708 1214.22 106.98C1214.23 106.27 1214.24 105.56 1214.25 104.829C1214.3 102.186 1214.35 99.5431 1214.42 96.9001C1214.44 95.7582 1214.46 94.6161 1214.48 93.4741C1214.51 91.8283 1214.54 90.1834 1214.59 88.538C1214.61 87.5491 1214.63 86.5601 1214.65 85.5412C1215.16 81.3813 1217.13 78.8503 1220.24 76.1329C1224.02 74.8718 1227.27 74.9243 1230.96 76.274C1233.64 78.0431 1235.35 80.0334 1236.79 82.9041C1236.87 84.7856 1236.91 86.6464 1236.91 88.5284C1236.92 89.3985 1236.92 89.3985 1236.92 90.2861C1236.93 92.2103 1236.94 94.1344 1236.94 96.0586C1236.95 97.3951 1236.95 98.7316 1236.96 100.068C1236.96 102.874 1236.97 105.679 1236.97 108.485C1236.97 112.076 1236.99 115.666 1237.01 119.257C1237.03 122.02 1237.03 124.782 1237.03 127.545C1237.04 128.868 1237.04 130.191 1237.05 131.515C1237.06 133.37 1237.06 135.224 1237.06 137.079C1237.06 137.623 1237.07 138.167 1237.08 138.728C1237.05 142.243 1236.37 144.617 1234.53 147.607C1231.1 150.95 1227.8 150.989 1223.25 151.09C1216.7 149.716 1213.5 142.816 1210.08 137.638C1209.53 136.815 1208.98 135.991 1208.41 135.143C1207.33 133.532 1206.26 131.918 1205.18 130.301C1204.23 128.858 1203.26 127.42 1202.28 125.99C1201.87 125.384 1201.45 124.779 1201.03 124.155C1200.67 123.63 1200.31 123.106 1199.93 122.565C1199.17 121.274 1199.17 121.274 1199.17 119.77C1198.68 119.77 1198.18 119.77 1197.67 119.77C1197.68 120.498 1197.7 121.227 1197.71 121.977C1197.77 124.694 1197.8 127.412 1197.83 130.129C1197.85 131.303 1197.87 132.476 1197.89 133.649C1197.93 135.342 1197.95 137.033 1197.96 138.726C1197.98 139.245 1197.99 139.765 1198.01 140.301C1198.01 144.088 1197.01 146.189 1194.66 149.112C1191.21 151.578 1186.65 151.15 1182.62 150.616C1179.65 149.193 1177.75 146.911 1176.6 143.845C1176.45 141.841 1176.38 139.916 1176.38 137.912C1176.38 137.317 1176.37 136.722 1176.37 136.109C1176.35 134.144 1176.35 132.179 1176.35 130.215C1176.34 128.846 1176.34 127.478 1176.33 126.11C1176.32 123.243 1176.32 120.375 1176.32 117.508C1176.32 113.838 1176.3 110.168 1176.28 106.498C1176.26 103.672 1176.26 100.847 1176.26 98.0208C1176.26 96.668 1176.25 95.3152 1176.24 93.9624C1176.22 92.0679 1176.23 90.1743 1176.24 88.2797C1176.23 87.7238 1176.22 87.1679 1176.21 86.5951C1176.26 82.7591 1177.19 80.5886 1179.61 77.6376C1183.89 74.6533 1188.5 74.3752 1193.25 76.368Z" fill="black"></path><path d="M1362.35 75.0763C1363.22 75.0668 1364.1 75.0572 1365 75.0474C1365.93 75.0496 1366.87 75.0518 1367.84 75.0541C1368.81 75.0501 1369.78 75.0462 1370.77 75.0421C1372.82 75.0354 1374.87 75.0372 1376.92 75.0447C1379.54 75.0534 1382.15 75.0382 1384.77 75.0162C1387.28 74.999 1389.78 75.0042 1392.29 75.0071C1393.23 74.9986 1394.16 74.9902 1395.13 74.9814C1403.19 75.0464 1403.19 75.0464 1406.82 78.3897C1409.37 81.2766 1409.47 84.1332 1409.34 87.8412C1408.85 91.2848 1407.17 93.3192 1404.5 95.4245C1401.46 96.8408 1398.84 96.7288 1395.52 96.6667C1394.88 96.6636 1394.23 96.6604 1393.56 96.6571C1391.51 96.6445 1389.46 96.6162 1387.4 96.5874C1386.01 96.5761 1384.61 96.5658 1383.21 96.5565C1379.8 96.5317 1376.38 96.4928 1372.97 96.4463C1372.97 98.4326 1372.97 100.419 1372.97 102.465C1373.94 102.442 1373.94 102.442 1374.94 102.417C1377.39 102.366 1379.83 102.328 1382.28 102.3C1383.33 102.285 1384.39 102.264 1385.44 102.238C1391.48 102.092 1396.39 102.008 1401.56 105.475C1403.77 107.829 1403.97 109.872 1404.1 112.998C1403.97 116.864 1402.92 118.925 1400.43 121.838C1397.82 124.01 1394.75 123.629 1391.55 123.605C1390.76 123.603 1390.76 123.603 1389.95 123.601C1388.25 123.597 1386.56 123.588 1384.86 123.578C1383.71 123.574 1382.56 123.571 1381.41 123.568C1378.6 123.56 1375.78 123.547 1372.97 123.531C1372.97 125.766 1372.97 128 1372.97 130.302C1373.85 130.283 1374.74 130.263 1375.66 130.243C1378.96 130.174 1382.27 130.131 1385.58 130.096C1387 130.077 1388.43 130.051 1389.86 130.019C1391.92 129.973 1393.98 129.952 1396.04 129.935C1396.67 129.916 1397.31 129.896 1397.96 129.876C1401.15 129.875 1403.17 130.063 1405.69 132.112C1408.39 134.907 1409.31 136.824 1409.46 140.694C1409.39 144.351 1408.38 146.19 1405.92 148.829C1403.01 151.052 1400.18 151.559 1396.58 151.587C1395.75 151.597 1394.92 151.606 1394.07 151.616C1392.74 151.619 1392.74 151.619 1391.38 151.621C1390 151.629 1390 151.629 1388.59 151.636C1386.65 151.644 1384.71 151.648 1382.77 151.647C1379.8 151.651 1376.83 151.678 1373.86 151.706C1371.97 151.711 1370.08 151.714 1368.2 151.715C1367.31 151.726 1366.42 151.737 1365.51 151.748C1360.9 151.722 1357.67 151.704 1354.16 148.359C1351.72 145.165 1351.58 142.311 1351.61 138.429C1351.6 137.818 1351.6 137.207 1351.6 136.577C1351.59 134.564 1351.59 132.551 1351.6 130.538C1351.6 129.135 1351.6 127.733 1351.59 126.33C1351.59 123.393 1351.6 120.456 1351.61 117.519C1351.62 113.757 1351.61 109.995 1351.6 106.233C1351.59 103.338 1351.59 100.442 1351.6 97.547C1351.6 96.16 1351.6 94.773 1351.59 93.386C1351.59 91.4464 1351.6 89.5074 1351.61 87.5679C1351.6 86.9964 1351.6 86.4249 1351.59 85.8361C1351.63 82.4666 1352 80.2642 1354.16 77.6374C1356.9 75.5244 1358.92 75.0945 1362.35 75.0763Z" fill="black"></path><path d="M827.992 75.224C829.3 75.2023 829.3 75.2023 830.633 75.18C834.619 75.1366 838.605 75.0993 842.591 75.0764C844.693 75.063 846.794 75.0368 848.896 74.9992C851.927 74.9451 854.957 74.9281 857.989 74.9138C858.926 74.8929 859.862 74.8719 860.827 74.8503C865.729 74.862 868.904 75.0759 872.458 78.6303C874.827 81.8103 875.249 84.1881 874.905 88.1712C873.593 91.6935 871.993 93.5975 868.886 95.6948C866.011 96.6531 863.314 96.5401 860.319 96.5206C859.705 96.5195 859.09 96.5185 858.457 96.5174C856.494 96.5131 854.532 96.5037 852.57 96.4941C851.239 96.4904 849.908 96.4869 848.577 96.4838C845.315 96.4756 842.054 96.4626 838.792 96.4471C838.792 98.4333 838.792 100.42 838.792 102.466C839.816 102.442 839.816 102.442 840.861 102.418C843.411 102.367 845.959 102.329 848.509 102.301C849.609 102.286 850.71 102.265 851.81 102.239C853.398 102.202 854.984 102.185 856.572 102.172C857.526 102.156 858.479 102.141 859.462 102.124C863.52 102.647 865.79 104.503 868.416 107.544C869.881 110.475 870.241 112.826 869.639 116.008C868.609 118.914 867.274 120.87 864.617 122.54C861.701 123.696 859.539 123.79 856.408 123.752C855.88 123.749 855.352 123.746 854.808 123.743C853.137 123.73 851.466 123.702 849.795 123.673C848.656 123.662 847.517 123.651 846.377 123.642C843.598 123.617 840.819 123.579 838.04 123.532C838.04 125.767 838.04 128.001 838.04 130.303C838.905 130.291 839.77 130.28 840.662 130.267C843.884 130.226 847.106 130.201 850.328 130.179C851.72 130.168 853.113 130.153 854.505 130.133C856.511 130.105 858.516 130.093 860.522 130.083C861.141 130.071 861.759 130.06 862.397 130.048C866.134 130.046 868.64 130.52 871.896 132.56C874.075 134.914 874.847 137.357 875.234 140.507C874.74 144.393 873.635 146.717 870.72 149.347C868.02 151.217 866.621 151.47 863.358 151.502C862.096 151.517 862.096 151.517 860.808 151.532C859.894 151.537 858.98 151.543 858.039 151.549C857.102 151.555 856.164 151.561 855.199 151.567C853.211 151.577 851.223 151.586 849.235 151.591C847.201 151.598 845.168 151.614 843.134 151.638C840.202 151.67 837.271 151.682 834.34 151.69C833.433 151.703 832.527 151.716 831.594 151.73C826.582 151.717 823.224 151.522 819.231 148.36C817.237 145.562 817.498 142.44 817.495 139.141C817.489 138.517 817.483 137.892 817.476 137.249C817.458 135.187 817.452 133.124 817.447 131.061C817.44 129.626 817.433 128.19 817.426 126.755C817.414 123.746 817.408 120.737 817.406 117.727C817.402 113.875 817.373 110.023 817.339 106.171C817.317 103.206 817.311 100.241 817.31 97.2756C817.307 95.8556 817.298 94.4355 817.282 93.0156C817.262 91.0272 817.266 89.0402 817.275 87.0518C817.264 86.4678 817.253 85.8837 817.241 85.2819C817.282 82.2842 817.605 80.4239 819.494 78.0373C822.291 75.3662 824.269 75.282 827.992 75.224Z" fill="black"></path><path d="M1027.28 75.2279C1028.21 75.2215 1028.21 75.2215 1029.16 75.2149C1030.47 75.2078 1031.79 75.2029 1033.1 75.2C1035.1 75.1927 1037.1 75.1693 1039.11 75.1456C1040.38 75.1407 1041.66 75.1368 1042.94 75.1339C1043.53 75.1246 1044.13 75.1153 1044.74 75.1057C1048.2 75.1196 1050.38 75.4423 1053.21 77.6378C1055.92 80.6213 1055.85 83.8252 1055.74 87.6741C1055.36 90.5153 1054.4 92.0996 1052.46 94.1897C1049.34 96.5194 1046.97 96.739 1043.12 96.7789C1042.59 96.7888 1042.07 96.7987 1041.53 96.809C1039.86 96.8396 1038.19 96.856 1036.52 96.87C1034.84 96.8879 1033.17 96.909 1031.49 96.939C1029.98 96.9657 1028.46 96.9807 1026.95 96.9951C1024.55 96.9556 1024.55 96.9556 1023.12 98.7038C1023.34 101.192 1023.34 101.192 1024.62 103.218C1025.97 103.291 1027.31 103.317 1028.66 103.324C1029.5 103.338 1030.34 103.353 1031.2 103.368C1032.96 103.393 1034.72 103.407 1036.48 103.409C1043.61 103.564 1050.75 104.873 1055.89 110.224C1059.86 115.125 1060.38 120.783 1060.31 126.823C1060.31 127.522 1060.31 128.22 1060.3 128.939C1060.19 133.893 1059.64 138.059 1056.98 142.341C1056.56 143.039 1056.14 143.737 1055.71 144.457C1049.69 150.15 1042.32 151.604 1034.3 151.595C1033.67 151.598 1033.03 151.602 1032.38 151.605C1031.05 151.609 1029.72 151.61 1028.39 151.606C1026.36 151.604 1024.33 151.622 1022.3 151.641C1021 151.642 1019.71 151.643 1018.41 151.642C1017.81 151.649 1017.2 151.656 1016.58 151.663C1012.39 151.629 1009.99 150.755 1006.76 147.983C1004.59 145.382 1004.82 142.227 1004.85 139.014C1005.19 135.938 1006.22 134.281 1008.07 131.808C1010.91 129.743 1014.22 130.066 1017.58 130.044C1018.2 130.033 1018.83 130.022 1019.48 130.011C1022.15 129.964 1024.83 129.934 1027.51 129.903C1029.46 129.878 1031.42 129.844 1033.38 129.809C1033.98 129.805 1034.59 129.801 1035.22 129.797C1038.55 129.871 1038.55 129.871 1041.18 128.046C1040.93 125.714 1040.93 125.714 1040.42 123.532C1039.87 123.525 1039.32 123.518 1038.75 123.51C1036.2 123.47 1033.66 123.407 1031.11 123.344C1030.24 123.333 1029.37 123.322 1028.48 123.311C1021.67 123.119 1015.31 122.028 1010.05 117.372C1009.36 116.797 1009.36 116.797 1008.67 116.211C1004.6 111.054 1003.83 105.873 1003.93 99.4562C1003.92 98.754 1003.91 98.0519 1003.9 97.3284C1003.94 90.6309 1006.01 85.2379 1010.55 80.274C1015.46 75.9536 1020.96 75.2617 1027.28 75.2279Z" fill="black"></path><path d="M920.798 75.3804C924.599 77.4781 926.312 79.6183 927.943 83.5447C928.162 84.0423 928.381 84.54 928.606 85.0528C929.278 86.5881 929.93 88.1305 930.579 89.6752C930.963 90.5682 931.347 91.4612 931.743 92.3812C932.893 95.0772 934.02 97.7819 935.14 100.49C935.981 102.52 936.824 104.549 937.668 106.577C937.883 107.096 938.099 107.615 938.321 108.15C939.952 112.057 941.635 115.941 943.334 119.819C944.065 121.5 944.795 123.18 945.524 124.86C945.995 125.94 946.471 127.017 946.95 128.093C947.621 129.6 948.278 131.113 948.932 132.627C949.311 133.487 949.69 134.348 950.081 135.234C951.247 138.957 951.601 142.327 949.905 145.961C947.461 149.13 945.861 150.37 941.864 151.369C938.756 151.702 937.039 151.576 934.2 150.24C929.808 146.336 928.988 141.996 927.57 136.321C919.873 136.321 912.176 136.321 904.246 136.321C903.502 138.556 902.757 140.79 901.989 143.093C900.539 146.586 899.118 148.492 895.97 150.616C892.77 151.683 890.019 152.064 886.845 150.66C883.801 148.872 881.466 147.244 880.171 143.845C879.916 140.01 880.378 137.496 882.052 134.053C882.672 132.753 882.672 132.753 883.305 131.427C883.765 130.488 884.225 129.549 884.685 128.61C885.404 127.114 886.118 125.617 886.833 124.12C887.336 123.067 887.84 122.014 888.345 120.962C890.241 117.007 892.083 113.029 893.899 109.037C894.162 108.456 894.426 107.876 894.698 107.278C895.734 104.998 896.767 102.718 897.8 100.437C899.204 97.335 900.62 94.2387 902.056 91.1516C902.516 90.1609 902.973 89.1687 903.427 88.1753C904.09 86.7338 904.767 85.3003 905.448 83.8679C905.834 83.046 906.219 82.2241 906.615 81.3772C909.967 75.9991 914.485 73.556 920.798 75.3804Z" fill="black"></path><path d="M972.899 76.2737C975.209 77.7967 976.446 79.0943 977.977 81.3991C978.339 83.7081 978.339 83.7081 978.319 86.3154C978.318 87.7836 978.318 87.7836 978.318 89.2814C978.303 90.3423 978.287 91.4032 978.271 92.4641C978.265 93.5551 978.261 94.6462 978.258 95.7372C978.247 98.6007 978.217 101.464 978.184 104.327C978.153 107.252 978.139 110.177 978.124 113.103C978.092 118.836 978.04 124.569 977.977 130.302C978.413 130.291 978.849 130.279 979.299 130.267C981.287 130.219 983.276 130.19 985.265 130.161C985.952 130.142 986.638 130.124 987.345 130.104C991.112 130.063 993.753 130.053 996.786 132.559C999.542 135.688 1000.28 138.146 1000.09 142.205C999.5 145.494 997.679 147.575 995.234 149.723C992.077 151.658 988.948 151.514 985.368 151.548C984.764 151.554 984.16 151.56 983.538 151.566C982.26 151.577 980.982 151.585 979.704 151.591C977.757 151.603 975.811 151.636 973.864 151.67C972.62 151.677 971.377 151.684 970.133 151.689C969.555 151.702 968.976 151.715 968.38 151.729C964.484 151.713 962.189 151.034 959.168 148.359C956.99 144.848 956.585 141.852 956.619 137.81C956.615 137.222 956.611 136.634 956.607 136.029C956.597 134.096 956.604 132.164 956.611 130.232C956.61 128.883 956.608 127.534 956.605 126.185C956.601 123.362 956.606 120.539 956.617 117.715C956.63 114.103 956.622 110.491 956.609 106.878C956.601 104.093 956.603 101.309 956.609 98.5246C956.61 97.1928 956.609 95.861 956.603 94.5292C956.598 92.6655 956.606 90.8025 956.619 88.9389C956.614 88.3924 956.61 87.8458 956.605 87.2828C956.649 83.771 957.289 81.359 959.168 78.3897C963.705 75.0091 967.43 74.2756 972.899 76.2737Z" fill="black"></path><path d="M1138.42 96.7764C1142.88 99.4083 1146.39 103.409 1148.39 108.156C1149.34 114.693 1148.72 118.719 1145 124.284C1141.85 127.704 1138.71 130.1 1134.01 130.583C1123.94 130.881 1123.94 130.881 1119.83 127.658C1119.44 127.29 1119.06 126.921 1118.67 126.542C1118.3 126.189 1117.93 125.835 1117.56 125.472C1113.74 121.316 1112.14 116.77 1112.34 111.209C1113.12 106.179 1115.42 102.205 1119.42 99.0805C1124.98 95.2222 1132.05 94.0145 1138.42 96.7764Z" fill="#FDFBFB"></path><path d="M916.284 106.979C918.356 109.051 918.898 111.492 919.764 114.221C919.936 114.752 920.109 115.284 920.287 115.831C920.712 117.143 921.132 118.456 921.551 119.77C918.075 119.77 914.599 119.77 911.018 119.77C912.756 115.549 914.493 111.328 916.284 106.979Z" fill="#FBF3F2"></path><path d="M336.933 0.911796C337.493 0.909099 338.054 0.906402 338.631 0.903622C348.703 0.877568 358.398 1.7787 368.109 4.62657C368.777 4.82175 369.446 5.01693 370.134 5.21802C385.939 10.0092 399.306 18.0186 411.558 28.9842C412.193 29.5282 412.828 30.0723 413.483 30.6329C417.206 33.8414 420.495 37.2101 423.595 41.0219C424.467 42.0766 424.467 42.0766 425.356 43.1526C441.014 62.5198 449.528 86.9263 449.411 111.791C449.406 112.743 449.402 113.696 449.398 114.678C449.127 135.829 443.541 157.54 431.119 174.942C430.355 176.025 430.355 176.025 429.576 177.131C425.454 182.805 420.897 187.929 416.072 192.998C415.626 193.484 415.18 193.97 414.72 194.471C397.813 212.34 371.909 223.982 347.483 224.849C344.186 224.936 340.89 224.964 337.591 224.974C336.963 224.977 336.335 224.981 335.688 224.984C323.824 225.01 311.849 223.999 300.585 220.036C299.936 219.813 299.288 219.59 298.62 219.36C283.316 213.863 270.441 204.967 258.829 193.751C258.141 193.111 257.454 192.47 256.745 191.811C243.159 178.827 233.517 162.259 228.735 144.095C228.554 143.433 228.374 142.771 228.188 142.089C220.666 113.524 224.356 82.6862 238.883 56.9213C252.541 33.8203 274.248 15.4839 299.456 6.41342C300.243 6.12732 301.029 5.84121 301.84 5.54644C313.416 1.65823 324.838 0.935288 336.933 0.911796Z" fill="black"></path><path d="M495.398 1.61697C499.749 5.64984 502.118 9.63543 504.473 15.0184C504.792 15.7333 505.111 16.4483 505.439 17.1849C508.788 24.7534 511.974 32.3923 515.153 40.0336C517.198 44.9498 519.265 49.856 521.357 54.7523C521.724 55.6109 521.724 55.6109 522.098 56.4869C523.058 58.7353 524.017 60.9837 524.983 63.2298C525.646 64.7731 526.305 66.3178 526.965 67.8627C527.533 69.1885 527.533 69.1885 528.113 70.541C528.925 72.6208 528.925 72.6208 528.925 74.1255C529.67 74.1255 530.415 74.1255 531.182 74.1255C531.631 72.7085 531.631 72.7085 532.089 71.2628C533.49 67.0662 535.22 63.0395 536.989 58.9872C537.502 57.8021 537.502 57.8021 538.026 56.5931C539.127 54.0504 540.233 51.5094 541.339 48.9685C542.845 45.5012 544.349 42.0332 545.853 38.5648C546.218 37.7231 546.583 36.8814 546.959 36.0142C548.93 31.4632 550.877 26.9044 552.765 22.3186C553.136 21.4209 553.507 20.5233 553.889 19.5984C554.523 18.0552 555.149 16.5092 555.767 14.9598C558.151 9.16336 561.337 3.04223 567.295 0.394391C572.86 -0.360222 577.789 -0.0384816 582.342 3.40382C586.233 7.59346 588.421 12.4802 590.58 17.7075C590.919 18.5088 591.258 19.3101 591.607 20.1357C592.712 22.7528 593.804 25.3746 594.897 27.9965C595.668 29.8281 596.439 31.6594 597.212 33.4903C598.782 37.2154 600.347 40.9427 601.908 44.6719C603.956 49.564 606.014 54.4516 608.078 59.337C608.382 60.057 608.687 60.7771 609 61.519C609.6 62.9381 610.199 64.3572 610.799 65.7762C611.686 67.8758 612.572 69.9759 613.457 72.0762C616.975 80.4208 620.522 88.7526 624.098 97.0724C628.275 106.79 632.404 116.527 636.512 126.273C641.908 139.075 647.335 151.864 652.782 164.644C653.146 165.497 653.509 166.35 653.884 167.23C655.328 170.617 656.772 174.004 658.216 177.392C661.443 184.962 664.666 192.534 667.886 200.107C668.438 201.404 668.989 202.7 669.541 203.997C670.292 205.763 671.043 207.528 671.794 209.294C672.011 209.804 672.228 210.314 672.451 210.839C676.14 219.524 676.14 219.524 675.635 222.34C673.442 224.665 672.164 225.311 668.966 225.737C667.814 225.757 666.661 225.76 665.509 225.751C664.877 225.757 664.245 225.764 663.595 225.771C661.512 225.788 659.429 225.783 657.346 225.776C655.895 225.78 654.443 225.784 652.992 225.79C649.952 225.798 646.912 225.794 643.872 225.783C639.98 225.77 636.088 225.788 632.197 225.814C629.2 225.831 626.203 225.83 623.206 225.824C621.771 225.823 620.337 225.828 618.902 225.839C616.894 225.852 614.887 225.841 612.879 225.824C612.289 225.833 611.699 225.842 611.091 225.851C606.782 225.777 604.91 224.686 601.904 221.588C600.79 219.768 599.87 218.091 598.985 216.171C598.734 215.648 598.483 215.124 598.224 214.584C597.429 212.913 596.653 211.234 595.885 209.55C595.512 208.734 595.512 208.734 595.131 207.902C593.618 204.573 592.139 201.229 590.672 197.88C589.375 194.921 588.065 191.967 586.757 189.013C586.503 188.441 586.249 187.868 585.988 187.278C583.982 182.756 581.949 178.247 579.85 173.766C579.464 172.929 579.464 172.929 579.07 172.075C577.507 168.54 577.507 168.54 574.819 165.913C572.795 166.102 571.98 166.484 570.577 167.976C570.151 168.588 569.724 169.2 569.285 169.831C568.761 170.582 568.237 171.333 567.697 172.107C563.409 178.449 559.215 184.853 555.022 191.258C544.201 207.777 544.201 207.777 539.331 214.925C539.005 215.41 538.678 215.894 538.341 216.393C536.647 218.86 534.984 221.159 532.687 223.092C529.475 223.628 528 223.491 525.3 221.634C522.231 218.935 520.175 215.561 517.983 212.145C517.296 211.094 517.296 211.094 516.595 210.021C515.134 207.784 513.682 205.54 512.232 203.296C510.327 200.366 508.418 197.439 506.51 194.512C506.047 193.801 505.585 193.09 505.109 192.358C496.991 177.387 496.991 177.387 485.517 166.874C484.659 166.771 484.659 166.771 483.783 166.666C480.131 172.113 477.447 177.94 474.708 183.876C474.211 184.944 473.714 186.013 473.217 187.081C471.718 190.304 470.226 193.532 468.736 196.76C468.509 197.252 468.282 197.745 468.047 198.252C465.323 204.153 465.323 204.153 462.61 210.058C461.946 211.504 461.278 212.948 460.606 214.39C460.035 215.618 459.473 216.85 458.924 218.088C458.681 218.614 458.439 219.141 458.188 219.683C457.989 220.129 457.789 220.575 457.584 221.034C456.268 222.975 454.896 224.049 452.937 225.35C450.957 225.626 449.302 225.733 447.33 225.691C446.779 225.692 446.228 225.692 445.66 225.693C443.848 225.69 442.038 225.667 440.226 225.643C438.966 225.638 437.706 225.634 436.447 225.631C433.138 225.619 429.83 225.59 426.521 225.556C423.142 225.525 419.763 225.512 416.384 225.497C409.759 225.464 403.134 225.413 396.51 225.35C398.781 222.942 401.444 221.429 404.268 219.754C411.169 215.562 417.433 210.593 423.042 204.771C424.347 203.531 424.347 203.531 425.852 203.531C426.143 202.866 426.143 202.866 426.44 202.188C427.433 200.383 428.477 199.327 429.99 197.936C450.995 177.387 461.893 146.767 462.24 117.826C462.251 115.908 462.252 113.991 462.247 112.073C462.247 111.41 462.246 110.748 462.246 110.066C462.205 95.8482 460.38 83.0524 455.543 69.6437C455.369 69.1447 455.194 68.6456 455.014 68.1314C454.454 66.5729 454.454 66.5729 453.692 65.0034C452.209 61.5478 452.007 59.471 453.319 55.9073C453.954 54.4625 454.611 53.0276 455.288 51.6018C456 50.0032 456.712 48.4044 457.424 46.8055C457.801 45.9811 458.177 45.1568 458.564 44.3074C460.452 40.1268 462.211 35.8933 463.987 31.6643C464.682 30.0292 465.378 28.3942 466.074 26.7593C467.255 23.9677 468.409 21.1692 469.518 18.3481C474.721 5.13668 474.721 5.13668 480.774 1.14675C485.339 -0.472759 491.067 -0.430539 495.398 1.61697Z" fill="black"></path><path d="M108.627 0.829791C115.655 3.82595 118.453 12.1115 121.238 18.6748C121.589 19.487 121.94 20.2991 122.301 21.1359C123.428 23.7492 124.545 26.3665 125.661 28.9845C126.415 30.7425 127.17 32.5005 127.924 34.2583C129.823 38.6871 131.712 43.1199 133.596 47.5546C134.758 50.2896 135.922 53.0237 137.086 55.7578C137.832 57.5113 138.578 59.2649 139.324 61.0185C139.669 61.8287 140.014 62.639 140.369 63.4738C140.688 64.2262 141.008 64.9786 141.337 65.7538C141.617 66.4104 141.896 67.0671 142.183 67.7436C142.966 69.6126 143.723 71.4903 144.47 73.3736C144.967 73.3736 145.463 73.3736 145.975 73.3736C150.53 63.2652 155.014 53.1337 159.286 42.9017C159.895 41.4409 160.507 39.9808 161.118 38.5208C162.966 34.1076 164.805 29.6914 166.617 25.2635C167.408 23.3377 168.208 21.4158 169.011 19.4947C169.561 18.1679 170.099 16.836 170.637 15.5039C173.185 9.42555 176.429 3.09095 182.84 0.394834C187.595 -0.257828 192.431 -0.288913 196.383 2.65191C201.261 7.21153 203.672 12.5454 206.163 18.6395C206.781 20.1321 207.401 21.624 208.021 23.1157C208.458 24.1672 208.893 25.2193 209.326 26.2721C210.761 29.7291 212.29 33.1279 213.89 36.5117C215.005 38.8815 216.086 41.2661 217.165 43.653C217.692 44.7999 218.234 45.9404 218.791 47.0733C221.575 52.7556 223.527 57.232 221.531 63.4852C220.734 65.5808 219.848 67.6137 218.885 69.6375C212.891 82.6094 211.907 96.785 211.945 110.861C211.947 112.722 211.929 114.583 211.91 116.445C211.779 150.411 226.145 179.874 249.33 204.049C256.047 210.572 263.632 215.944 271.575 220.856C273.721 222.24 275.658 223.741 277.638 225.35C270.483 225.472 263.328 225.566 256.172 225.623C252.849 225.65 249.527 225.687 246.204 225.747C242.994 225.805 239.785 225.836 236.574 225.85C235.353 225.859 234.131 225.878 232.91 225.907C222.155 226.148 222.155 226.148 218.323 223.006C216.097 220.56 214.574 217.988 213.264 214.943C213.055 214.47 212.846 213.996 212.631 213.508C211.965 211.991 211.321 210.466 210.678 208.939C210.217 207.88 209.755 206.821 209.291 205.763C208.176 203.211 207.077 200.652 205.982 198.091C204.751 195.223 203.483 192.371 202.214 189.519C201.99 189.014 201.767 188.509 201.537 187.988C199.53 183.465 197.423 178.989 195.301 174.519C194.972 173.823 194.642 173.128 194.303 172.411C193.997 171.771 193.691 171.131 193.376 170.472C192.967 169.614 192.967 169.614 192.549 168.739C191.963 167.436 191.963 167.436 191.116 166.666C189.361 166.635 187.605 166.634 185.85 166.666C185.643 167.221 185.437 167.776 185.224 168.348C184.403 170.292 183.497 171.869 182.315 173.61C181.907 174.213 181.5 174.817 181.08 175.439C180.638 176.085 180.197 176.731 179.743 177.396C179.282 178.077 178.821 178.757 178.347 179.458C176.87 181.639 175.388 183.816 173.906 185.992C172.457 188.127 171.01 190.262 169.562 192.397C168.607 193.806 167.651 195.215 166.694 196.623C163.268 201.669 159.876 206.736 156.526 211.832C149.866 221.9 149.866 221.9 147.48 223.093C145.128 223.563 145.128 223.563 142.213 223.093C137.663 219.058 134.315 213.785 131.045 208.71C130.584 208.004 130.122 207.299 129.647 206.572C128.188 204.339 126.736 202.102 125.285 199.864C123.368 196.917 121.447 193.973 119.525 191.03C119.068 190.33 118.612 189.631 118.142 188.911C115.39 184.712 112.58 180.592 109.561 176.58C107.722 174.079 106.063 171.466 104.398 168.847C103.164 167.284 103.164 167.284 101.195 166.695C99.3551 166.478 99.3551 166.478 98.2472 167.463C96.5907 169.52 95.5519 171.814 94.45 174.195C94.1998 174.727 93.9495 175.258 93.6917 175.805C92.87 177.553 92.0554 179.304 91.2407 181.055C90.6712 182.268 90.1013 183.481 89.531 184.693C86.6505 190.835 83.8229 196.998 81.0604 203.194C80.8061 203.762 80.5519 204.33 80.29 204.915C79.0789 207.622 77.8766 210.332 76.691 213.05C76.2551 214.03 75.819 215.01 75.3824 215.99C75.0107 216.838 74.639 217.686 74.2561 218.559C72.4456 221.83 70.5704 224.152 66.9772 225.35C64.9718 225.438 62.9853 225.484 60.9792 225.495C60.3685 225.501 59.7578 225.507 59.1286 225.514C57.1072 225.532 55.0859 225.545 53.0644 225.556C52.3739 225.56 51.6835 225.564 50.9721 225.568C47.3189 225.588 43.6656 225.603 40.0124 225.613C36.9881 225.623 33.9642 225.644 30.94 225.675C27.2884 225.712 23.6372 225.731 19.9855 225.736C18.5942 225.741 17.203 225.753 15.8118 225.771C13.8647 225.794 11.9189 225.795 9.97169 225.789C9.39781 225.801 8.82393 225.814 8.23266 225.826C5.24749 225.791 3.90174 225.445 1.5122 223.597C0.017266 221.588 0.017266 221.588 0 219.11C0.869554 215.96 1.97955 213.068 3.30296 210.085C3.56322 209.484 3.82349 208.883 4.09165 208.264C4.65654 206.962 5.22432 205.661 5.79466 204.36C7.03334 201.536 8.2577 198.706 9.48299 195.876C10.1269 194.389 10.7716 192.903 11.4169 191.416C14.4447 184.438 17.4077 177.433 20.3571 170.421C25.9537 157.115 31.5969 143.83 37.259 130.553C42.6086 118.006 47.9448 105.455 53.2466 92.8879C53.5359 92.2024 53.8251 91.5168 54.1231 90.8105C56.7477 84.5892 59.3701 78.367 61.9917 72.1444C65.8518 62.9825 69.719 53.8236 73.5948 44.6684C74.5254 42.4686 75.4545 40.2683 76.3835 38.0679C77.9315 34.4024 79.4851 30.7394 81.0425 27.0779C81.6269 25.7019 82.2095 24.3252 82.7903 22.9477C83.5941 21.0423 84.4042 19.1397 85.216 17.2377C85.563 16.4089 85.563 16.4089 85.9171 15.5633C90.4046 5.12017 96.1964 -2.21618 108.627 0.829791Z" fill="black"></path><path d="M355.13 68.1069C355.931 68.3804 356.732 68.6539 357.558 68.9357C374.525 75.0949 387.676 86.4026 395.757 102.715C398.767 109.868 398.767 109.868 398.767 112.496C399.589 112.449 400.412 112.403 401.259 112.355C404.033 112.496 404.033 112.496 405.491 113.389C406.582 115.25 406.609 116.392 406.29 118.515C404.683 120.861 402.714 121.245 400.007 121.773C399.505 121.861 399.002 121.95 398.485 122.042C397.988 122.139 397.492 122.237 396.98 122.337C391.528 123.363 391.528 123.363 388.986 123.029C388.071 121.743 387.16 120.453 386.291 119.135C383.827 115.965 380.76 114.979 376.881 114.415C371.759 114.146 368.115 114.699 364.014 117.874C361.074 120.885 359.871 124.286 358.892 128.296C355.136 129.041 351.378 129.777 347.618 130.504C346.345 130.752 345.072 131.002 343.799 131.255C337.461 132.513 331.124 133.716 324.683 134.303C323.802 134.385 322.921 134.467 322.013 134.552C319.769 134.314 319.769 134.314 318.053 132.858C316.807 131.164 316.807 131.164 315.649 129.277C313.824 126.517 311.63 125.39 308.484 124.534C303.368 123.759 299.153 124.489 294.941 127.543C291.348 130.626 289.9 133.559 289.166 138.211C288.923 139.581 288.923 139.581 288.17 140.333C275.601 142.966 275.601 142.966 270.114 141.838C268.533 140.177 267.924 139.213 267.527 136.948C267.975 134.391 268.761 133.553 270.866 132.057C272.37 132.007 273.876 132.002 275.38 132.057C275.396 131.084 275.396 131.084 275.412 130.091C276.021 114.504 280.84 99.5487 291.18 87.6682C291.505 87.2357 291.831 86.8031 292.167 86.3575C300.622 75.4364 314.85 68.4831 328.198 66.1878C337.192 65.1237 346.525 65.094 355.13 68.1069Z" fill="#FEFDFD"></path><path d="M379.419 117.56C382.659 119.041 384.777 120.734 386.731 123.782C387.991 127.563 388.236 131.497 386.854 135.288C384.679 139.178 381.985 141.351 377.703 142.591C373.934 143.282 371.042 142.919 367.687 141.039C364.207 138.552 362.323 136.008 361.595 131.764C361.305 126.931 362.501 123.662 365.665 120.02C369.671 116.293 374.308 115.924 379.419 117.56Z" fill="#FCF7F6"></path><path d="M308.484 127.543C312.463 128.869 314.352 131.012 316.76 134.314C317.911 137.768 318.221 141.368 316.972 144.85C315.024 148.485 312.553 150.665 308.954 152.559C305.536 153.536 302.769 153.49 299.409 152.324C295.972 150.057 293.246 147.286 291.932 143.342C291.54 139.604 291.501 136.68 293.202 133.28C297.972 127.865 301.473 127.007 308.484 127.543Z" fill="#FCF7F6"></path><path d="M367.921 152.371C365.664 158.043 358.09 160.38 352.897 162.845C346.902 164.977 340.996 165.401 334.676 165.349C333.964 165.355 333.253 165.361 332.52 165.367C328.476 165.355 325.097 164.989 321.274 163.656C321.274 162.911 321.274 162.167 321.274 161.399C322.125 161.395 322.125 161.395 322.993 161.39C337.551 161.251 350.257 160.5 363.118 153.226C364.911 152.371 364.911 152.371 367.921 152.371Z" fill="white"></path><path d="M376.949 123.781C379.16 124.957 379.16 124.957 380.711 126.791C381.182 129.377 381.182 129.377 380.711 132.057C378.871 134.601 377.782 135.646 374.692 136.289C371.602 135.646 370.514 134.601 368.674 132.057C368.2 129.055 368.199 127.531 369.849 124.957C372.403 123.32 373.968 123.363 376.949 123.781Z" fill="black"></path><path d="M307.733 134.314C309.614 135.537 309.614 135.537 310.742 137.323C311.106 140.235 310.965 142.429 309.238 144.847C307.224 146.413 306.14 146.349 303.548 146.258C300.962 145.599 300.962 145.599 299.504 144.377C298.376 141.855 298.363 140.055 298.705 137.323C300.879 133.789 303.907 133.546 307.733 134.314Z" fill="black"></path><path d="M326.541 60.5831C327.952 61.6646 327.952 61.6646 328.798 62.8402C328.798 63.3367 328.798 63.8333 328.798 64.3449C324.826 65.338 320.854 66.3311 316.761 67.3543C317.009 65.6164 317.257 63.8784 317.513 62.0878C320.62 59.7758 322.863 59.4386 326.541 60.5831Z" fill="#FBF1F1"></path><path d="M352.121 74.8782C363.506 77.0818 371.141 81.6247 378.454 90.6777C375.593 90.6777 375.311 90.0154 373.328 88.0444C367.293 82.5013 360.017 78.5611 352.121 76.3829C352.121 75.8863 352.121 75.3898 352.121 74.8782Z" fill="black"></path><path d="M321.274 161.399C326.737 161.399 332.199 161.399 337.826 161.399C337.826 161.648 337.826 161.896 337.826 162.152C336.947 162.197 336.067 162.243 335.161 162.29C333.996 162.353 332.831 162.417 331.666 162.481C331.088 162.511 330.509 162.54 329.913 162.571C326.968 162.735 324.155 162.97 321.274 163.656C321.274 162.912 321.274 162.167 321.274 161.399Z" fill="white"></path><path d="M264.096 28.2317C262.905 31.4475 260.706 32.9455 258.077 35.0029C258.077 32.7458 258.077 32.7458 259.012 31.538C259.62 30.9488 259.62 30.9488 260.24 30.3477C260.642 29.9491 261.043 29.5505 261.457 29.1398C262.591 28.2317 262.591 28.2317 264.096 28.2317Z" fill="#B81112"></path><path d="M371.683 85.4111C375.289 86.0198 376.298 87.8637 378.454 90.6776C376.197 90.6776 376.197 90.6776 374.989 89.5256C374.596 89.0368 374.203 88.548 373.799 88.0444C373.4 87.5556 373.001 87.0668 372.591 86.5632C372.291 86.183 371.991 85.8028 371.683 85.4111Z" fill="black"></path><path d="M427.357 200.522C427.606 201.019 427.854 201.515 428.11 202.027C425.517 205.638 425.517 205.638 423.407 206.4C422.756 206.47 422.756 206.47 422.091 206.541C423.125 205.036 423.125 205.036 424.348 203.531C424.844 203.531 425.341 203.531 425.853 203.531C426.349 202.538 426.846 201.545 427.357 200.522Z" fill="black"></path></svg>