<svg xmlns="http://www.w3.org/2000/svg" width="1606" height="305" viewBox="0 0 1606 305" fill="none"><path d="M352.16 122.927H384.299C392.065 123.528 399.753 121.026 405.676 115.967C408.152 113.344 410.062 110.241 411.288 106.85C412.515 103.458 413.032 99.851 412.807 96.2519C412.995 92.7498 412.459 89.2466 411.232 85.9611C410.006 82.6756 408.115 79.6784 405.676 77.1572C399.755 72.0938 392.067 69.5863 384.299 70.1848H352.16V123.005V122.927ZM408.859 239.964L364.585 159.597H352.148V239.964H300.309V27.0962H387.336C402.123 26.6791 416.806 29.6892 430.236 35.8908C441.303 41.0765 450.548 49.4802 456.763 60.0036C462.663 70.3931 465.694 82.1653 465.544 94.1127C465.725 107.706 461.53 120.997 453.581 132.025C444.82 143.682 432.363 152.021 418.247 155.675L467.379 239.964H408.859Z" fill="black"></path><path d="M557.866 158.251C558.002 155.021 557.411 151.801 556.136 148.829C554.86 145.858 552.934 143.211 550.497 141.085C545.361 136.747 538.796 134.474 532.078 134.707C525.595 134.514 519.264 136.698 514.278 140.847C509.233 145.343 506.04 151.557 505.327 158.278L557.866 158.251ZM600.118 181.586H505.05C505.185 188.906 508.13 195.894 513.275 201.102C518.092 205.603 524.485 208.027 531.075 207.85C535.634 208.185 540.186 207.094 544.098 204.728C548.011 202.363 551.092 198.839 552.914 194.645H597.596C595.322 203.549 591.08 211.829 585.184 218.876C579.094 226.161 571.415 231.951 562.737 235.806C553.232 240.003 542.931 242.098 532.54 241.946C520.058 242.176 507.724 239.218 496.704 233.35C486.317 227.713 477.787 219.186 472.145 208.802C466.048 197.325 463.001 184.476 463.298 171.483C463.002 158.503 466.001 145.659 472.013 134.152C477.582 123.758 486.074 115.224 496.44 109.603C507.546 103.725 519.964 100.766 532.526 101.007C544.825 100.781 556.98 103.656 567.874 109.366C578.054 114.8 586.452 123.052 592.064 133.135C598.055 144.204 601.059 156.642 600.779 169.225C600.768 173.33 600.517 177.431 600.026 181.506L600.118 181.586Z" fill="black"></path><path d="M708.471 146.671C705.727 143.808 702.435 141.527 698.791 139.966C695.145 138.405 691.223 137.594 687.258 137.583C683.292 137.572 679.366 138.361 675.713 139.902C672.059 141.442 668.753 143.705 665.994 146.552C662.979 149.88 660.656 153.776 659.16 158.01C657.664 162.245 657.024 166.735 657.279 171.219C656.795 180.347 659.927 189.3 665.994 196.137C668.718 199.034 672.004 201.344 675.652 202.927C679.299 204.51 683.231 205.332 687.207 205.343C691.184 205.355 695.12 204.555 698.776 202.992C702.432 201.429 705.731 199.138 708.471 196.256C714.12 189.222 717.198 180.471 717.198 171.45C717.198 162.429 714.12 153.678 708.471 146.644V146.671ZM622.553 134.152C627.348 124.095 634.875 115.587 644.273 109.603C653.472 103.867 664.119 100.884 674.959 101.007C683.792 100.808 692.532 102.833 700.377 106.897C707.266 110.46 713.075 115.804 717.199 122.373V102.961H759.241V239.992H717.199V220.593C712.936 227.129 707.061 232.455 700.14 236.057C692.294 240.118 683.554 242.143 674.722 241.947C663.943 242.049 653.365 239.021 644.273 233.231C634.863 227.151 627.34 218.561 622.553 208.431C617.288 196.757 614.565 184.097 614.565 171.292C614.565 158.486 617.288 145.826 622.553 134.152Z" fill="black"></path><path d="M831.614 58.2866V239.99H789.571V58.2866H831.614Z" fill="black"></path><path d="M938.405 204.377V240.031H916.988C904.133 240.823 891.437 236.84 881.337 228.845C876.705 224.049 873.166 218.307 870.961 212.014C868.758 205.72 867.941 199.025 868.569 192.386V137.875H851.879V103H868.569V69.6172H910.545V103H938.115V137.875H910.651V192.874C910.5 194.472 910.684 196.084 911.193 197.605C911.703 199.127 912.525 200.524 913.608 201.709C916.441 203.785 919.937 204.748 923.433 204.416L938.405 204.377Z" fill="black"></path><path d="M1101.66 102.961L1015.73 305H970.558L1001.98 235.276L946.25 102.92H993.135L1024.83 188.622L1056.25 102.92L1101.66 102.961Z" fill="black"></path><path d="M1235.77 27.0981V68.6418H1179.31V239.966H1127.47V68.6549H1071.07V27.0981H1235.77Z" fill="black"></path><path d="M1275.33 107.991C1282.78 103.633 1291.26 101.382 1299.89 101.482V145.93H1288.36C1279.94 145.304 1271.59 147.696 1264.79 152.678C1261.84 155.827 1259.61 159.573 1258.24 163.661C1256.88 167.749 1256.4 172.082 1256.87 176.369V240.044H1214.89V102.96H1256.85V125.806C1261.53 118.506 1267.86 112.405 1275.33 107.991Z" fill="black"></path><path d="M1404.31 146.671C1401.57 143.808 1398.27 141.527 1394.63 139.966C1390.98 138.405 1387.06 137.594 1383.1 137.583C1379.13 137.572 1375.21 138.361 1371.55 139.902C1367.9 141.442 1364.59 143.705 1361.83 146.552C1358.81 149.88 1356.49 153.776 1355 158.01C1353.51 162.245 1352.87 166.735 1353.11 171.219C1352.63 180.348 1355.77 189.3 1361.83 196.137C1364.55 199.034 1367.85 201.344 1371.49 202.927C1375.14 204.51 1379.07 205.332 1383.05 205.343C1387.02 205.355 1390.96 204.555 1394.62 202.992C1398.27 201.429 1401.57 199.138 1404.31 196.256C1409.96 189.222 1413.04 180.471 1413.04 171.45C1413.04 162.429 1409.96 153.678 1404.31 146.644V146.671ZM1318.39 134.152C1323.19 124.098 1330.72 115.591 1340.11 109.603C1349.31 103.867 1359.95 100.884 1370.8 101.007C1379.63 100.808 1388.37 102.833 1396.22 106.897C1403.1 110.46 1408.92 115.804 1413.04 122.373V102.961H1455.01V239.992H1413.04V220.593C1408.78 227.129 1402.9 232.456 1395.97 236.057C1388.13 240.119 1379.39 242.145 1370.56 241.947C1359.78 242.051 1349.2 239.022 1340.11 233.231C1330.71 227.148 1323.19 218.559 1318.39 208.431C1313.12 196.757 1310.4 184.097 1310.4 171.292C1310.4 158.486 1313.12 145.826 1318.39 134.152Z" fill="black"></path><path d="M1479.68 134.152C1485.23 123.783 1493.68 115.254 1503.99 109.603C1514.95 103.744 1527.22 100.786 1539.64 101.007C1555.12 100.468 1570.33 105.234 1582.74 114.516C1594.61 124.077 1602.66 137.58 1605.43 152.573H1560.83C1559.52 147.862 1556.64 143.74 1552.67 140.887C1548.69 138.032 1543.86 136.617 1538.98 136.872C1535.42 136.761 1531.87 137.518 1528.67 139.077C1525.46 140.637 1522.68 142.953 1520.56 145.826C1516.06 153.627 1513.69 162.476 1513.69 171.483C1513.69 180.49 1516.06 189.339 1520.56 197.141C1522.68 200.014 1525.46 202.329 1528.67 203.888C1531.87 205.448 1535.42 206.205 1538.98 206.094C1543.86 206.351 1548.7 204.937 1552.67 202.083C1556.64 199.228 1559.52 195.105 1560.83 190.393H1605.5C1602.59 205.309 1594.52 218.715 1582.67 228.239C1570.36 237.633 1555.17 242.489 1539.69 241.986C1527.27 242.213 1515 239.253 1504.05 233.389C1493.73 227.739 1485.28 219.209 1479.73 208.84C1474 197.232 1471.01 184.458 1471.01 171.509C1471.01 158.561 1474 145.787 1479.73 134.178L1479.68 134.152Z" fill="black"></path><path d="M197.377 42.5605L139.002 100.94L177.703 139.645L166.505 150.725L155.414 139.645V240.004H198.288C223.859 213.449 238.068 177.968 237.895 141.102C237.723 104.235 223.182 68.8886 197.363 42.5737L197.377 42.5605Z" fill="black"></path><path d="M73.2823 35.1392L139.065 100.927L197.439 42.5473C189.388 34.3357 180.376 27.1263 170.596 21.0756C168.695 19.8871 166.758 18.7559 164.786 17.6819L164.589 17.563C162.687 16.5066 160.733 15.503 158.778 14.539L158.409 14.3277C156.521 13.4034 154.593 12.5318 152.652 11.6867L152.045 11.4093C150.182 10.617 148.308 9.8644 146.419 9.15132L145.522 8.79477C143.726 8.12131 141.89 7.47428 140.042 6.91965L138.853 6.51032C137.097 5.9689 135.315 5.46703 133.572 4.97845C133.07 4.8464 132.582 4.68796 132.08 4.55591C130.364 4.10693 128.62 3.71074 126.878 3.34099C126.297 3.22215 125.742 3.0505 125.161 2.94486C123.471 2.58832 121.754 2.31101 120.038 2.0205C119.404 1.90164 118.717 1.76959 118.124 1.66395C116.446 1.41305 114.769 1.21502 113.092 1.01695C112.379 0.937714 111.679 0.818811 110.967 0.752785C109.25 0.567913 107.494 0.462294 105.685 0.343447C104.998 0.343447 104.365 0.224579 103.651 0.198169C101.222 0.0749201 98.7747 0.00890242 96.3101 9.89774e-05C60.656 -0.0420949 26.3061 13.4075 0.158203 37.6481V108.335L73.2823 35.1392Z" fill="black"></path><path d="M102.001 190.141H49.7793L0 239.911V239.977H155.412V139.617L166.503 150.697L177.687 139.617L138.986 100.913L102.014 137.887L102.001 190.141Z" fill="white"></path><path d="M0.0146484 108.348V239.926L49.7939 190.155H49.3714V137.505H102.015V137.928L138.987 100.954L73.2047 35.1655L0.0146484 108.348Z" fill="white"></path><path d="M51.1396 190.827H103.361V138.601L51.1396 190.827Z" fill="black"></path><path d="M50.7168 138.191V190.841H51.1393L103.361 138.614V138.191H50.7168Z" fill="black"></path></svg>