<svg width="401" height="409" viewBox="0 0 401 409" fill="none" xmlns="http://www.w3.org/2000/svg">
<path d="M115.637 257.865L120.214 255.205L126.419 258.785L121.843 261.444L115.637 257.865Z" fill="#B9E5F8"/>
<path d="M127.361 255.87L131.927 253.21L127.251 260.856L122.674 263.516L127.361 255.87Z" fill="#B9E5F8"/>
<path d="M138.177 260.524L142.754 257.875L142.743 259.46L138.177 262.108V260.524Z" fill="#919DD6"/>
<path d="M126.519 253.797L131.095 251.138L142.754 257.875L138.177 260.524L126.519 253.797Z" fill="#B9E5F8"/>
<path d="M138.177 260.525V262.109L127.361 255.87L122.674 263.517L115.637 259.45V257.865L121.843 261.444L126.519 253.798L138.177 260.525Z" fill="#919DD6"/>
<path d="M132.625 248.191L137.202 245.531L143.408 249.111L138.831 251.77L132.625 248.191Z" fill="#B9E5F8"/>
<path d="M144.35 246.196L148.916 243.536L144.239 251.183L139.662 253.842L144.35 246.196Z" fill="#B9E5F8"/>
<path d="M155.165 250.85L159.742 248.19L159.731 249.775L155.165 252.435V250.85Z" fill="#919DD6"/>
<path d="M143.508 244.124L148.085 241.464L159.743 248.191L155.166 250.85L143.508 244.124Z" fill="#B9E5F8"/>
<path d="M155.166 250.851V252.435L144.35 246.196L139.662 253.843L132.625 249.776V248.191L138.831 251.771L143.507 244.124L155.166 250.851Z" fill="#919DD6"/>
<path d="M148.894 238.494L153.47 235.834L159.676 239.413L155.099 242.073L148.894 238.494Z" fill="#B9E5F8"/>
<path d="M160.618 236.5L165.195 233.84L160.507 241.486L155.941 244.146L160.618 236.5Z" fill="#B9E5F8"/>
<path d="M171.434 241.165L176.01 238.505V240.09L171.434 242.749V241.165Z" fill="#919DD6"/>
<path d="M159.775 234.427L164.352 231.778L176.01 238.505L171.434 241.165L159.775 234.427Z" fill="#B9E5F8"/>
<path d="M171.434 241.165V242.749L160.618 236.499L155.942 244.146L148.894 240.079V238.494L155.099 242.073L159.776 234.427L171.434 241.165Z" fill="#919DD6"/>
<path d="M98.8477 268.382L103.413 265.733L109.619 269.313L105.042 271.961L98.8477 268.382Z" fill="#B9E5F8"/>
<path d="M110.561 266.398L115.138 263.738L110.462 271.385L105.885 274.044L110.561 266.398Z" fill="#B9E5F8"/>
<path d="M121.388 271.052L125.954 268.393V269.977L121.377 272.637L121.388 271.052Z" fill="#919DD6"/>
<path d="M109.73 264.326L114.307 261.666L125.954 268.393L121.389 271.052L109.73 264.326Z" fill="#B9E5F8"/>
<path d="M121.389 271.053L121.378 272.638L110.562 266.398L105.885 274.045L98.8369 269.978L98.848 268.382L105.043 271.962L109.73 264.326L121.389 271.053Z" fill="#919DD6"/>
<path d="M166.979 228.277L171.556 225.617L177.762 229.197L173.185 231.856L166.979 228.277Z" fill="#B9E5F8"/>
<path d="M178.703 226.282L183.28 223.622L178.592 231.269L174.026 233.928L178.703 226.282Z" fill="#B9E5F8"/>
<path d="M189.52 230.936L194.096 228.287V229.872L189.52 232.531V230.936Z" fill="#919DD6"/>
<path d="M177.861 224.209L182.438 221.55L194.096 228.288L189.519 230.936L177.861 224.209Z" fill="#B9E5F8"/>
<path d="M189.52 230.937V232.532L178.704 226.282L174.028 233.929L166.979 229.862V228.277L173.185 231.856L177.862 224.21L189.52 230.937Z" fill="#919DD6"/>
<path d="M184.367 218.402L188.944 215.742L195.139 219.322L190.573 221.981L184.367 218.402Z" fill="#B9E5F8"/>
<path d="M196.092 216.407L200.658 213.759L195.981 221.405L191.404 224.054L196.092 216.407Z" fill="#B9E5F8"/>
<path d="M206.907 221.073L211.484 218.413L211.473 219.998L206.907 222.657V221.073Z" fill="#919DD6"/>
<path d="M195.249 214.346L199.826 211.687L211.484 218.413L206.907 221.073L195.249 214.346Z" fill="#B9E5F8"/>
<path d="M206.908 221.073V222.658L196.092 216.408L191.404 224.054L184.367 219.987V218.403L190.573 221.982L195.25 214.347L206.908 221.073Z" fill="#919DD6"/>
<path d="M301.824 258.098L297.248 255.438L291.053 259.018L295.618 261.678L301.824 258.098Z" fill="#B9E5F8"/>
<path d="M290.11 256.104L285.533 253.455L290.21 261.091L294.787 263.75L290.11 256.104Z" fill="#B9E5F8"/>
<path d="M279.284 260.769L274.718 258.109V259.694L279.295 262.354L279.284 260.769Z" fill="#919DD6"/>
<path d="M290.942 254.031L286.365 251.383L274.718 258.11L279.284 260.769L290.942 254.031Z" fill="#B9E5F8"/>
<path d="M279.283 260.769L279.294 262.354L290.11 256.104L294.787 263.75L301.835 259.683L301.824 258.098L295.618 261.678L290.941 254.031L279.283 260.769Z" fill="#919DD6"/>
<path d="M284.835 248.423L280.258 245.764L274.063 249.343L278.629 252.003L284.835 248.423Z" fill="#B9E5F8"/>
<path d="M273.121 246.429L268.544 243.77L273.22 251.416L277.797 254.076L273.121 246.429Z" fill="#B9E5F8"/>
<path d="M262.294 251.094L257.729 248.435V250.019L262.305 252.679L262.294 251.094Z" fill="#919DD6"/>
<path d="M273.952 244.357L269.376 241.708L257.729 248.435L262.294 251.094L273.952 244.357Z" fill="#B9E5F8"/>
<path d="M262.294 251.094L262.305 252.679L273.121 246.429L277.798 254.075L284.846 250.008L284.835 248.424L278.629 252.003L273.952 244.356L262.294 251.094Z" fill="#919DD6"/>
<path d="M268.568 238.728L263.991 236.079L257.796 239.659L262.362 242.318L268.568 238.728Z" fill="#B9E5F8"/>
<path d="M256.843 236.744L252.277 234.084L256.954 241.731L261.531 244.39L256.843 236.744Z" fill="#B9E5F8"/>
<path d="M246.027 241.398L241.45 238.738L241.461 240.323L246.027 242.983V241.398Z" fill="#919DD6"/>
<path d="M257.685 234.671L253.108 232.012L241.45 238.738L246.027 241.398L257.685 234.671Z" fill="#B9E5F8"/>
<path d="M246.026 241.398V242.982L256.842 236.743L261.53 244.39L268.567 240.323V238.727L262.361 242.317L257.685 234.671L246.026 241.398Z" fill="#919DD6"/>
<path d="M318.625 268.626L314.048 265.967L307.842 269.546L312.419 272.206L318.625 268.626Z" fill="#B9E5F8"/>
<path d="M306.9 266.631L302.323 263.972L307.011 271.618L311.577 274.278L306.9 266.631Z" fill="#B9E5F8"/>
<path d="M296.084 271.285L291.507 268.637V270.221L296.084 272.881V271.285Z" fill="#919DD6"/>
<path d="M307.742 264.559L303.165 261.899L291.507 268.637L296.084 271.286L307.742 264.559Z" fill="#B9E5F8"/>
<path d="M296.084 271.285V272.881L306.9 266.631L311.576 274.277L318.625 270.21V268.626L312.419 272.205L307.742 264.559L296.084 271.285Z" fill="#919DD6"/>
<path d="M250.482 228.509L245.905 225.85L239.699 229.429L244.276 232.089L250.482 228.509Z" fill="#B9E5F8"/>
<path d="M238.757 226.515L234.191 223.866L238.868 231.513L243.445 234.161L238.757 226.515Z" fill="#B9E5F8"/>
<path d="M227.941 231.18L223.364 228.521L223.375 230.105L227.941 232.765V231.18Z" fill="#919DD6"/>
<path d="M239.599 224.454L235.022 221.794L223.364 228.521L227.941 231.18L239.599 224.454Z" fill="#B9E5F8"/>
<path d="M227.941 231.18V232.765L238.757 226.514L243.445 234.161L250.482 230.094V228.509L244.276 232.089L239.6 224.453L227.941 231.18Z" fill="#919DD6"/>
<path d="M233.094 218.647L228.528 215.987L222.322 219.567L226.899 222.226L233.094 218.647Z" fill="#B9E5F8"/>
<path d="M221.381 216.652L216.804 213.992L221.48 221.639L226.057 224.298L221.381 216.652Z" fill="#B9E5F8"/>
<path d="M210.553 221.306L205.987 218.646V220.242L210.564 222.891L210.553 221.306Z" fill="#919DD6"/>
<path d="M222.211 214.58L217.645 211.92L205.987 218.647L210.553 221.306L222.211 214.58Z" fill="#B9E5F8"/>
<path d="M210.554 221.306L210.565 222.891L221.381 216.651L226.057 224.298L233.105 220.231L233.094 218.646L226.9 222.226L222.212 214.579L210.554 221.306Z" fill="#919DD6"/>
<path d="M307.715 268L307.682 278.949L209.662 335.91L209.695 324.961L307.715 268Z" fill="#59585B"/>
<path d="M209.695 324.961L209.662 335.91L111 278.949L111.033 268L209.695 324.961Z" fill="#59585B"/>
<path d="M307.509 268.438L209.489 325.399L110.827 268.438L208.847 211.477L307.509 268.438Z" fill="#25A8E0"/>
<path d="M284.016 265.656L284.005 271.131L209.391 314.494L209.402 309.02L284.016 265.656Z" fill="#B9E5F8"/>
<path d="M209.401 309.02L209.39 314.494L134.288 271.131L134.299 265.656L209.401 309.02Z" fill="#B9E5F8"/>
<path d="M284.015 265.656L209.401 309.02L134.299 265.656L208.913 222.304L284.015 265.656Z" fill="white"/>
<path d="M102.782 296.685L98.2051 294.026L102.826 281.016L107.403 283.675L102.782 296.685Z" fill="#B9E5F8"/>
<path d="M107.403 283.675L102.826 281.016L114.484 274.289L119.05 276.938L107.403 283.675Z" fill="#B9E5F8"/>
<path d="M96.5758 300.265L91.999 297.617L98.2049 294.026L102.782 296.686L96.5758 300.265Z" fill="#B9E5F8"/>
<path d="M96.5758 301.861L91.999 299.201V297.616L96.5758 300.265V301.861Z" fill="#B9E5F8"/>
<path d="M119.05 276.938L119.061 278.533L108.245 284.772L103.624 297.794L96.5762 301.861V300.265L102.782 296.685L107.403 283.675L119.05 276.938Z" fill="#919DD6"/>
<path d="M119.97 306.526L115.404 303.867L120.025 290.856L124.591 293.516L119.97 306.526Z" fill="#B9E5F8"/>
<path d="M124.591 293.516L120.025 290.857L131.684 284.13L136.249 286.79L124.591 293.516Z" fill="#B9E5F8"/>
<path d="M113.764 310.116L109.198 307.457L115.404 303.866L119.97 306.526L113.764 310.116Z" fill="#B9E5F8"/>
<path d="M113.775 311.701L109.198 309.042V307.457L113.764 310.117L113.775 311.701Z" fill="#B9E5F8"/>
<path d="M136.249 286.789L136.26 288.374L125.433 294.613L120.823 307.634L113.775 311.701L113.764 310.116L119.97 306.526L124.591 293.516L136.249 286.789Z" fill="#919DD6"/>
<path d="M137.036 316.478L132.459 313.818L137.08 300.797L141.657 303.457L137.036 316.478Z" fill="#B9E5F8"/>
<path d="M141.657 303.457L137.08 300.797L148.738 294.07L153.315 296.73L141.657 303.457Z" fill="#B9E5F8"/>
<path d="M130.83 320.057L126.253 317.398L132.459 313.818L137.036 316.478L130.83 320.057Z" fill="#B9E5F8"/>
<path d="M130.83 321.642L126.264 318.982L126.253 317.397L130.83 320.057V321.642Z" fill="#B9E5F8"/>
<path d="M153.315 296.729V298.314L142.499 304.564L137.878 317.575L130.83 321.642V320.057L137.036 316.477L141.657 303.456L153.315 296.729Z" fill="#919DD6"/>
<path d="M154.091 326.352L149.515 323.692L154.136 310.671L158.713 313.331L154.091 326.352Z" fill="#B9E5F8"/>
<path d="M158.713 313.331L154.136 310.671L165.794 303.944L170.371 306.604L158.713 313.331Z" fill="#B9E5F8"/>
<path d="M147.885 329.932L143.309 327.272L149.514 323.692L154.091 326.352L147.885 329.932Z" fill="#B9E5F8"/>
<path d="M147.885 331.516L143.309 328.856V327.271L147.885 329.931V331.516Z" fill="#B9E5F8"/>
<path d="M170.37 306.604V308.189L159.554 314.439L154.933 327.45L147.885 331.517V329.932L154.091 326.352L158.712 313.331L170.37 306.604Z" fill="#919DD6"/>
<path d="M171.357 336.148L166.78 333.489L171.401 320.479L175.978 323.138L171.357 336.148Z" fill="#B9E5F8"/>
<path d="M175.978 323.138L171.401 320.479L183.06 313.752L187.636 316.412L175.978 323.138Z" fill="#B9E5F8"/>
<path d="M165.151 339.739L160.574 337.08L166.78 333.489L171.357 336.149L165.151 339.739Z" fill="#B9E5F8"/>
<path d="M165.162 341.323L160.585 338.664L160.574 337.079L165.151 339.739L165.162 341.323Z" fill="#B9E5F8"/>
<path d="M187.637 316.412L187.648 317.997L176.821 324.236L172.199 337.257L165.162 341.324L165.151 339.74L171.357 336.149L175.978 323.139L187.637 316.412Z" fill="#919DD6"/>
<path d="M188.301 346.044L183.725 343.385L188.346 330.363L192.923 333.023L188.301 346.044Z" fill="#B9E5F8"/>
<path d="M192.923 333.023L188.346 330.363L200.004 323.637L204.581 326.296L192.923 333.023Z" fill="#B9E5F8"/>
<path d="M182.095 349.624L177.519 346.964L183.724 343.385L188.301 346.044L182.095 349.624Z" fill="#B9E5F8"/>
<path d="M182.095 351.208L177.519 348.549V346.964L182.095 349.624V351.208Z" fill="#B9E5F8"/>
<path d="M204.581 326.296V327.881L193.765 334.131L189.144 347.141L182.096 351.208V349.623L188.302 346.044L192.923 333.023L204.581 326.296Z" fill="#919DD6"/>
<path d="M315.898 296.862L320.475 294.214L315.854 281.192L311.277 283.852L315.898 296.862Z" fill="#B9E5F8"/>
<path d="M311.277 283.852L315.854 281.193L304.196 274.466L299.619 277.125L311.277 283.852Z" fill="#B9E5F8"/>
<path d="M322.104 300.453L326.67 297.793L320.475 294.214L315.898 296.862L322.104 300.453Z" fill="#B9E5F8"/>
<path d="M322.094 302.037L326.671 299.378V297.793L322.105 300.453L322.094 302.037Z" fill="#B9E5F8"/>
<path d="M299.619 277.125V278.71L310.435 284.949L315.056 297.97L322.093 302.037L322.104 300.452L315.898 296.862L311.277 283.852L299.619 277.125Z" fill="#919DD6"/>
<path d="M298.699 306.714L303.276 304.054L298.655 291.033L294.078 293.693L298.699 306.714Z" fill="#B9E5F8"/>
<path d="M294.078 293.693L298.655 291.033L286.997 284.307L282.42 286.966L294.078 293.693Z" fill="#B9E5F8"/>
<path d="M304.905 310.294L309.482 307.634L303.276 304.055L298.699 306.714L304.905 310.294Z" fill="#B9E5F8"/>
<path d="M304.905 311.878L309.471 309.218L309.482 307.634L304.905 310.293V311.878Z" fill="#B9E5F8"/>
<path d="M282.42 286.967V288.552L293.236 294.802L297.857 307.812L304.905 311.879V310.294L298.699 306.715L294.078 293.693L282.42 286.967Z" fill="#919DD6"/>
<path d="M281.644 316.654L286.209 313.995L281.588 300.984L277.022 303.644L281.644 316.654Z" fill="#B9E5F8"/>
<path d="M277.022 303.645L281.588 300.985L269.93 294.247L265.364 296.907L277.022 303.645Z" fill="#B9E5F8"/>
<path d="M287.85 320.234L292.416 317.575L286.21 313.995L281.645 316.655L287.85 320.234Z" fill="#B9E5F8"/>
<path d="M287.839 321.819L292.416 319.17V317.574L287.85 320.234L287.839 321.819Z" fill="#B9E5F8"/>
<path d="M265.365 296.907L265.354 298.492L276.181 304.742L280.791 317.752L287.839 321.819L287.85 320.235L281.644 316.655L277.023 303.645L265.365 296.907Z" fill="#919DD6"/>
<path d="M264.589 326.529L269.155 323.87L264.534 310.859L259.968 313.508L264.589 326.529Z" fill="#B9E5F8"/>
<path d="M259.968 313.507L264.533 310.859L252.875 304.121L248.31 306.781L259.968 313.507Z" fill="#B9E5F8"/>
<path d="M270.795 330.108L275.36 327.449L269.155 323.869L264.589 326.529L270.795 330.108Z" fill="#B9E5F8"/>
<path d="M270.783 331.693L275.36 329.033V327.448L270.794 330.108L270.783 331.693Z" fill="#B9E5F8"/>
<path d="M248.31 306.781L248.299 308.366L259.126 314.616L263.736 327.626L270.784 331.693L270.795 330.109L264.589 326.529L259.968 313.508L248.31 306.781Z" fill="#919DD6"/>
<path d="M247.313 336.336L251.889 333.677L247.268 320.655L242.691 323.315L247.313 336.336Z" fill="#B9E5F8"/>
<path d="M242.691 323.315L247.268 320.655L235.61 313.929L231.033 316.588L242.691 323.315Z" fill="#B9E5F8"/>
<path d="M253.518 339.916L258.095 337.256L251.889 333.677L247.312 336.336L253.518 339.916Z" fill="#B9E5F8"/>
<path d="M253.519 341.5L258.095 338.841V337.256L253.519 339.916V341.5Z" fill="#B9E5F8"/>
<path d="M231.033 316.588V318.173L241.849 324.412L246.47 337.433L253.518 341.5V339.915L247.313 336.336L242.691 323.315L231.033 316.588Z" fill="#919DD6"/>
<path d="M230.379 346.221L234.956 343.561L230.324 330.551L225.758 333.21L230.379 346.221Z" fill="#B9E5F8"/>
<path d="M225.758 333.211L230.324 330.551L218.676 323.813L214.1 326.473L225.758 333.211Z" fill="#B9E5F8"/>
<path d="M236.586 349.801L241.151 347.141L234.957 343.562L230.38 346.221L236.586 349.801Z" fill="#B9E5F8"/>
<path d="M236.574 351.385L241.151 348.736V347.141L236.585 349.8L236.574 351.385Z" fill="#B9E5F8"/>
<path d="M214.1 326.474L214.089 328.058L224.916 334.309L229.526 347.319L236.574 351.386L236.585 349.801L230.379 346.222L225.758 333.211L214.1 326.474Z" fill="#919DD6"/>
<path d="M160.208 265.655L163.876 267.772L209.002 293.826V237.297L160.208 265.655Z" fill="#B9E5F8"/>
<path d="M209.001 237.297V293.826L209.311 294.014L254.448 267.783L258.105 265.655L209.001 237.297Z" fill="#B9E5F8"/>
<path d="M254.448 267.783L209.312 294.014L163.876 267.772L209.002 241.541L254.448 267.783Z" fill="#25A8E0"/>
<path d="M254.448 267.784L209.312 294.015L163.876 267.773L209.002 241.542L254.448 267.784Z" fill="#59585B"/>
<path d="M233.56 263.872L233.549 266.62L228.196 269.723V266.986L233.56 263.872Z" fill="#B9E5F8"/>
<path d="M228.196 266.986V269.723L204.248 255.904L204.259 253.167L228.196 266.986Z" fill="#B9E5F8"/>
<path d="M233.56 263.872L228.197 266.986L204.26 253.167L209.612 250.053L233.56 263.872Z" fill="#EEEFF2"/>
<path d="M206.908 268.393L206.897 271.131C205.489 270.743 204.148 270.377 202.863 270.034C201.577 269.69 200.391 269.38 199.294 269.103C198.197 268.826 197.244 268.582 196.413 268.371C195.582 268.161 194.928 267.995 194.44 267.884L194.452 265.146C194.939 265.257 195.593 265.424 196.424 265.634C197.255 265.845 198.219 266.088 199.305 266.366C200.402 266.643 201.588 266.953 202.874 267.296C204.159 267.64 205.511 268.006 206.908 268.393Z" fill="#25A8E0"/>
<mask id="mask0_212_1248" style="mask-type:luminance" maskUnits="userSpaceOnUse" x="194" y="265" width="13" height="7">
<path d="M206.908 268.393L206.897 271.131C205.489 270.743 204.148 270.377 202.863 270.034C201.577 269.69 200.391 269.38 199.294 269.103C198.197 268.826 197.244 268.582 196.413 268.371C195.582 268.161 194.928 267.995 194.44 267.884L194.452 265.146C194.939 265.257 195.593 265.424 196.424 265.634C197.255 265.845 198.219 266.088 199.305 266.366C200.402 266.643 201.588 266.953 202.874 267.296C204.159 267.64 205.511 268.006 206.908 268.393Z" fill="white"/>
</mask>
<g mask="url(#mask0_212_1248)">
<path d="M206.908 268.393L206.897 271.131C205.489 270.743 204.148 270.377 202.863 270.034C201.577 269.69 200.391 269.38 199.294 269.103C198.197 268.826 197.244 268.582 196.413 268.371C195.582 268.161 194.928 267.995 194.44 267.884L194.452 265.146C194.939 265.257 195.593 265.424 196.424 265.634C197.255 265.845 198.219 266.088 199.305 266.366C200.402 266.643 201.588 266.953 202.874 267.296C204.159 267.64 205.511 268.006 206.908 268.393Z" fill="#B9E5F8"/>
</g>
<path d="M215.995 271.108L215.984 273.846C214.798 273.513 213.624 273.192 212.46 272.859L212.471 270.122C213.635 270.455 214.809 270.787 215.995 271.108Z" fill="#25A8E0"/>
<mask id="mask1_212_1248" style="mask-type:luminance" maskUnits="userSpaceOnUse" x="212" y="270" width="4" height="4">
<path d="M215.995 271.108L215.984 273.846C214.798 273.513 213.624 273.192 212.46 272.859L212.471 270.122C213.635 270.455 214.809 270.787 215.995 271.108Z" fill="white"/>
</mask>
<g mask="url(#mask1_212_1248)">
<path d="M215.995 271.108L215.984 273.846C214.798 273.513 213.624 273.192 212.46 272.859L212.471 270.122C213.635 270.455 214.809 270.787 215.995 271.108Z" fill="#B9E5F8"/>
</g>
<path d="M219.408 272.095L219.397 274.832C218.3 274.511 217.158 274.178 215.983 273.846L215.994 271.108C217.18 271.441 218.311 271.773 219.408 272.095Z" fill="#25A8E0"/>
<mask id="mask2_212_1248" style="mask-type:luminance" maskUnits="userSpaceOnUse" x="215" y="271" width="5" height="4">
<path d="M219.408 272.095L219.397 274.832C218.3 274.511 217.158 274.178 215.983 273.846L215.994 271.108C217.18 271.441 218.311 271.773 219.408 272.095Z" fill="white"/>
</mask>
<g mask="url(#mask2_212_1248)">
<path d="M219.408 272.095L219.397 274.832C218.3 274.511 217.158 274.178 215.983 273.846L215.994 271.108C217.18 271.441 218.311 271.773 219.408 272.095Z" fill="#B9E5F8"/>
</g>
<path d="M225.148 268.759L225.137 271.507L219.396 274.832L219.408 272.094L225.148 268.759Z" fill="#B9E5F8"/>
<path d="M212.471 270.133L212.46 272.87L203.162 278.267L203.173 275.53L212.471 270.133Z" fill="#B9E5F8"/>
<path d="M201.045 282.767L201.034 285.504C199.35 283.498 197.82 281.625 196.435 279.896C195.05 278.168 193.775 276.516 192.612 274.954C191.448 273.391 190.362 271.884 189.376 270.455C188.39 269.014 187.459 267.584 186.605 266.166L186.617 263.429C187.47 264.847 188.401 266.288 189.387 267.717C190.384 269.158 191.459 270.654 192.623 272.217C193.787 273.779 195.061 275.43 196.446 277.159C197.831 278.888 199.361 280.761 201.045 282.767Z" fill="#25A8E0"/>
<mask id="mask3_212_1248" style="mask-type:luminance" maskUnits="userSpaceOnUse" x="186" y="263" width="16" height="23">
<path d="M201.045 282.767L201.034 285.504C199.35 283.498 197.82 281.625 196.435 279.896C195.05 278.168 193.775 276.516 192.612 274.954C191.448 273.391 190.362 271.884 189.376 270.455C188.39 269.014 187.459 267.584 186.605 266.166L186.617 263.429C187.47 264.847 188.401 266.288 189.387 267.717C190.384 269.158 191.459 270.654 192.623 272.217C193.787 273.779 195.061 275.43 196.446 277.159C197.831 278.888 199.361 280.761 201.045 282.767Z" fill="white"/>
</mask>
<g mask="url(#mask3_212_1248)">
<path d="M201.045 282.767L201.034 285.504C199.35 283.498 197.82 281.625 196.435 279.896C195.05 278.168 193.775 276.516 192.612 274.954C191.448 273.391 190.362 271.884 189.376 270.455C188.39 269.014 187.459 267.584 186.605 266.166L186.617 263.429C187.47 264.847 188.401 266.288 189.387 267.717C190.384 269.158 191.459 270.654 192.623 272.217C193.787 273.779 195.061 275.43 196.446 277.159C197.831 278.888 199.361 280.761 201.045 282.767Z" fill="#B9E5F8"/>
</g>
<path d="M206.608 279.53L206.597 282.268L201.045 285.503V282.766L206.608 279.53Z" fill="#B9E5F8"/>
<path d="M215.995 271.108C214.809 270.776 213.635 270.455 212.471 270.122L203.184 275.519C203.761 276.195 204.326 276.882 204.902 277.558C205.478 278.245 206.055 278.899 206.62 279.52L201.057 282.755C199.372 280.75 197.843 278.877 196.458 277.148C195.072 275.419 193.798 273.768 192.634 272.205C191.471 270.643 190.385 269.136 189.398 267.706C188.412 266.266 187.481 264.836 186.628 263.418L191.703 260.47C194.141 260.968 196.613 261.511 199.106 262.066C201.6 262.631 204.204 263.24 206.908 263.916C209.612 264.581 212.46 265.324 215.452 266.11C218.444 266.908 221.68 267.784 225.149 268.759L219.419 272.095C218.311 271.773 217.181 271.441 215.995 271.108ZM200.104 272.35L206.908 268.393C205.5 268.005 204.16 267.64 202.874 267.296C201.589 266.953 200.403 266.642 199.306 266.365C198.209 266.088 197.255 265.844 196.424 265.634C195.593 265.423 194.939 265.257 194.452 265.146C194.684 265.412 194.984 265.789 195.349 266.266C195.715 266.742 196.147 267.296 196.635 267.917C197.122 268.537 197.666 269.236 198.242 269.989C198.829 270.743 199.45 271.529 200.104 272.35Z" fill="#EEEFF2"/>
<path d="M209.689 379.622L47.5049 285.98L208.647 192.338L370.831 285.98L209.689 379.622ZM51.8047 285.969L209.678 377.118L366.52 285.969L208.647 194.82L51.8047 285.969Z" fill="#25A8E0"/>
<path d="M72.6615 299.256L60.6708 306.182C60.4935 306.282 60.2719 306.282 60.1057 306.182L47.8047 299.079L7.88769 322.129L4.16417 324.279C4.07552 324.334 3.97578 324.356 3.87604 324.356C3.67657 324.356 3.48817 324.257 3.38844 324.068C3.23329 323.802 3.32195 323.448 3.59899 323.293L6.73517 321.486L47.5166 297.937C47.6939 297.837 47.9045 297.837 48.0818 297.937L60.3827 305.041L71.52 298.613L72.6615 299.256Z" fill="#25A8E0"/>
<path d="M169.351 353.99L167.456 355.076L156.54 361.381C156.363 361.481 156.152 361.481 155.975 361.381L143.685 354.278L128.159 363.243L127.018 363.897L103.435 377.517L100.033 379.478C99.9447 379.533 99.8449 379.556 99.7452 379.556C99.5457 379.556 99.3573 379.456 99.2576 379.267C99.1024 378.99 99.1911 378.647 99.4681 378.492L102.493 376.741L125.876 363.243L127.018 362.589L143.397 353.136C143.574 353.037 143.785 353.037 143.962 353.136L156.252 360.24L166.314 354.433L168.209 353.336L169.351 353.99Z" fill="#25A8E0"/>
<path d="M132.038 332.446L130.143 333.543L119.538 339.672C119.36 339.771 119.15 339.771 118.972 339.672L106.683 332.568L90.8577 341.7L89.7163 342.353L67.0538 355.441L63.0421 357.757C62.9534 357.802 62.8537 357.835 62.754 357.835C62.5545 357.835 62.3661 357.735 62.2664 357.547C62.1112 357.27 62.1999 356.926 62.4769 356.771L66.145 354.654L88.5859 341.7L89.7273 341.046L106.406 331.416C106.583 331.316 106.793 331.316 106.971 331.416L119.261 338.519L129.013 332.89L130.908 331.792L132.038 332.446Z" fill="#25A8E0"/>
<path d="M102.272 315.258L100.377 316.355L60.2712 339.505L57.2569 341.245C57.1683 341.301 57.0686 341.323 56.9688 341.323C56.7693 341.323 56.5809 341.223 56.4812 341.035C56.3261 340.769 56.4147 340.414 56.6918 340.259L59.1963 338.807L99.2463 315.679L101.141 314.582L102.272 315.258Z" fill="#25A8E0"/>
<path d="M183.081 361.913L181.186 362.999L141.635 385.839L138.576 387.601C138.488 387.646 138.388 387.679 138.288 387.679C138.089 387.679 137.9 387.579 137.801 387.391C137.645 387.114 137.734 386.77 138.011 386.615L140.493 385.185L180.056 362.334L181.951 361.237L183.081 361.913Z" fill="#25A8E0"/>
<path d="M144.805 339.815L142.91 340.912L116.191 356.338L115.05 356.992L102.937 363.985L99.7677 365.813C99.679 365.869 99.5793 365.891 99.4796 365.891C99.2801 365.891 99.0917 365.791 98.992 365.603C98.8368 365.337 98.9255 364.982 99.2025 364.827L101.829 363.309L113.93 356.327L115.061 355.674L141.779 340.247L143.674 339.15L144.805 339.815Z" fill="#25A8E0"/>
<path d="M144.217 372.518L129.235 381.162L125.046 383.578L124.48 382.592L128.248 380.42L141.946 372.518L127.029 363.897L125.888 363.243L115.061 356.993L113.931 356.328L89.7165 342.354L88.5751 341.7L78.7344 336.015L106.384 319.824L108.268 318.716L109.398 319.37L107.514 320.478L80.9951 336.004L89.7165 341.046L90.8469 341.7L115.061 355.674L116.191 356.328L127.029 362.589L128.16 363.243L144.217 372.518Z" fill="#25A8E0"/>
<path d="M7.39994 321.796C9.09548 322.772 9.09548 324.356 7.39994 325.331C5.70441 326.307 2.96718 326.307 1.27165 325.331C-0.423883 324.356 -0.423883 322.772 1.27165 321.796C2.96718 320.81 5.71549 320.81 7.39994 321.796Z" fill="#25A8E0"/>
<path d="M81.8376 320.09C81.8376 320.289 81.7268 320.478 81.5495 320.578L47.1845 340.425L44.0372 342.243C43.9486 342.298 43.8488 342.32 43.7491 342.32C43.5496 342.32 43.3612 342.221 43.2615 342.032C43.1063 341.766 43.195 341.412 43.472 341.256L46.0874 339.749L80.1421 320.09L67.4976 312.787C67.3203 312.687 67.2095 312.499 67.2095 312.299C67.2095 312.1 67.3203 311.9 67.4976 311.812L80.0091 304.586L81.9041 303.489L83.0455 304.143L81.1505 305.24L68.9272 312.299L81.5716 319.591C81.7379 319.702 81.8376 319.89 81.8376 320.09Z" fill="#25A8E0"/>
<path d="M46.608 340.004C48.3035 340.979 48.3035 342.564 46.608 343.539C44.9124 344.514 42.1752 344.514 40.4797 343.539C38.7841 342.564 38.7841 340.979 40.4797 340.004C42.1641 339.029 44.9124 339.029 46.608 340.004Z" fill="#25A8E0"/>
<path d="M190.484 382.048C190.484 382.248 190.373 382.436 190.196 382.536L156.728 401.863L152.683 404.201C152.595 404.245 152.495 404.279 152.395 404.279C152.207 404.279 152.007 404.179 151.908 403.991C151.752 403.714 151.852 403.37 152.118 403.215L155.642 401.187L188.788 382.048L176.144 374.745C175.966 374.646 175.856 374.457 175.856 374.258C175.856 374.058 175.966 373.87 176.144 373.77L187.979 366.933L189.874 365.847L191.005 366.501L189.11 367.587L177.562 374.258L190.207 381.561C190.373 381.661 190.484 381.838 190.484 382.048Z" fill="#25A8E0"/>
<path d="M156.119 401.42C157.814 402.395 157.814 403.98 156.119 404.955C154.423 405.93 151.686 405.93 149.99 404.955C148.295 403.98 148.295 402.395 149.99 401.42C151.686 400.445 154.423 400.445 156.119 401.42Z" fill="#25A8E0"/>
<path d="M59.6177 339.029C61.3133 340.004 61.3133 341.589 59.6177 342.564C57.9222 343.54 55.185 343.54 53.4894 342.564C51.7939 341.589 51.7939 340.004 53.4894 339.029C55.185 338.054 57.9222 338.054 59.6177 339.029Z" fill="#25A8E0"/>
<path d="M66.1236 354.644C67.8191 355.619 67.8191 357.203 66.1236 358.179C64.428 359.154 61.6908 359.154 59.9953 358.179C58.2997 357.203 58.2997 355.619 59.9953 354.644C61.6908 353.668 64.428 353.668 66.1236 354.644Z" fill="#25A8E0"/>
<path d="M102.394 363.597C104.09 364.572 104.09 366.157 102.394 367.132C100.699 368.107 97.9613 368.107 96.2658 367.132C94.5703 366.157 94.5703 364.572 96.2658 363.597C97.9613 362.611 100.699 362.611 102.394 363.597Z" fill="#25A8E0"/>
<path d="M102.56 376.763C104.256 377.738 104.256 379.323 102.56 380.298C100.865 381.273 98.1273 381.273 96.4318 380.298C94.7363 379.323 94.7363 377.738 96.4318 376.763C98.1163 375.787 100.865 375.787 102.56 376.763Z" fill="#25A8E0"/>
<path d="M128.415 380.509C130.11 381.484 130.11 383.069 128.415 384.044C126.719 385.019 123.982 385.019 122.286 384.044C120.591 383.069 120.591 381.484 122.286 380.509C123.982 379.534 126.719 379.534 128.415 380.509Z" fill="#25A8E0"/>
<path d="M141.159 385.517C142.854 386.492 142.854 388.077 141.159 389.052C139.463 390.027 136.726 390.027 135.03 389.052C133.335 388.077 133.335 386.492 135.03 385.517C136.715 384.531 139.463 384.531 141.159 385.517Z" fill="#25A8E0"/>
<path d="M379.763 338.408C379.653 338.585 379.464 338.696 379.276 338.696C379.176 338.696 379.087 338.674 378.988 338.618L375.53 336.624L341.475 316.953C341.298 316.853 341.187 316.665 341.187 316.466C341.187 316.266 341.298 316.078 341.475 315.978L354.12 308.675L342.772 302.126L340.877 301.04L342.007 300.386L343.902 301.472L355.538 308.187C355.716 308.287 355.826 308.476 355.826 308.675C355.826 308.874 355.716 309.063 355.538 309.163L342.894 316.466L376.805 336.047L379.553 337.632C379.83 337.787 379.919 338.142 379.763 338.408Z" fill="#25A8E0"/>
<path d="M262.117 406.507C262.006 406.684 261.818 406.795 261.629 406.795C261.53 406.795 261.441 406.773 261.341 406.717L257.994 404.789L223.829 385.063C223.652 384.964 223.541 384.775 223.541 384.576C223.541 384.376 223.652 384.188 223.829 384.088L236.473 376.785L225.369 370.369L223.485 369.283L224.616 368.629L226.5 369.715L237.892 376.298C238.069 376.397 238.18 376.586 238.18 376.785C238.18 376.985 238.069 377.173 237.892 377.273L225.247 384.576L259.313 404.246L261.906 405.742C262.172 405.886 262.272 406.241 262.117 406.507Z" fill="#25A8E0"/>
<path d="M320.12 369.937C320.009 370.114 319.821 370.225 319.632 370.225C319.533 370.225 319.433 370.202 319.344 370.147L316.208 368.33L290.354 353.413C290.177 353.314 290.066 353.125 290.066 352.926C290.066 352.726 290.177 352.538 290.354 352.438L299.94 346.908L291.307 341.833L290.177 341.168L282.94 336.912L281.067 335.804L282.198 335.15L284.071 336.248L291.307 340.503L292.437 341.168L301.358 346.41C301.536 346.509 301.635 346.698 301.635 346.897C301.635 347.097 301.525 347.285 301.347 347.385L291.773 352.915L317.737 367.909L319.909 369.161C320.175 369.327 320.275 369.671 320.12 369.937Z" fill="#25A8E0"/>
<path d="M367.073 368.44C366.963 368.617 366.774 368.728 366.586 368.728C366.486 368.728 366.397 368.706 366.298 368.651L362.951 366.722L315.82 339.505C315.642 339.405 315.532 339.217 315.532 339.018C315.532 338.818 315.642 338.63 315.82 338.53L333.13 328.534L315.188 318.172L313.293 317.086L314.423 316.433L316.318 317.519L334.559 328.046C334.736 328.146 334.847 328.335 334.847 328.534C334.847 328.734 334.736 328.922 334.559 329.022L317.249 339.018L364.27 366.168L366.874 367.664C367.129 367.819 367.229 368.163 367.073 368.44Z" fill="#25A8E0"/>
<path d="M316.496 382.647C316.396 382.824 316.197 382.935 316.008 382.935C315.909 382.935 315.82 382.913 315.72 382.857L312.839 381.195L279.482 361.935L261.075 372.562C260.898 372.662 260.676 372.662 260.51 372.562L240.973 361.281L239.089 360.195L240.219 359.541L242.103 360.627L260.798 371.421L279.205 360.793C279.383 360.694 279.604 360.694 279.771 360.793L313.98 380.541L316.285 381.871C316.562 382.026 316.651 382.381 316.496 382.647Z" fill="#25A8E0"/>
<path d="M366.553 337.422C366.442 337.599 366.254 337.71 366.065 337.71C365.966 337.71 365.877 337.688 365.777 337.632L362.53 335.76L323.588 313.274L321.693 312.177L322.824 311.523L324.719 312.621L363.749 335.15L366.342 336.646C366.619 336.801 366.719 337.145 366.553 337.422Z" fill="#25A8E0"/>
<path d="M396.652 319.791C396.541 319.968 396.353 320.079 396.164 320.079C396.064 320.079 395.976 320.057 395.876 320.001L392.308 317.94L353.809 295.71L351.914 294.624L353.044 293.97L354.939 295.067L393.394 317.275L396.441 319.037C396.718 319.17 396.807 319.514 396.652 319.791Z" fill="#25A8E0"/>
<path d="M331.578 357.325C331.467 357.503 331.279 357.613 331.091 357.613C330.991 357.613 330.891 357.591 330.802 357.536L327.278 355.508L297.435 338.275L296.293 337.622L288.968 333.388L287.073 332.302L288.204 331.648L290.099 332.734L297.424 336.968L298.565 337.622L328.298 354.787L331.357 356.549C331.634 356.705 331.733 357.048 331.578 357.325Z" fill="#25A8E0"/>
<path d="M275.082 390.261C274.982 390.438 274.783 390.549 274.595 390.549C274.495 390.549 274.406 390.526 274.306 390.471L271.037 388.587L232.395 366.279L230.511 365.182L231.641 364.528L233.525 365.614L272.256 387.967L274.883 389.485C275.149 389.64 275.248 389.983 275.082 390.261Z" fill="#25A8E0"/>
<path d="M316.762 327.116L298.565 337.622L297.435 338.276L292.437 341.157L291.295 341.811L268.5 354.976L265.087 356.949L264.521 355.962L267.558 354.211L290.176 341.157L291.306 340.503L296.293 337.622L297.435 336.957L314.49 327.116L307.098 322.85L305.214 321.764L306.345 321.099L308.24 322.196L316.762 327.116Z" fill="#25A8E0"/>
<path d="M264.201 404.733C265.896 405.709 265.896 407.293 264.201 408.268C262.505 409.244 259.768 409.244 258.072 408.268C256.377 407.293 256.377 405.709 258.072 404.733C259.768 403.758 262.505 403.758 264.201 404.733Z" fill="#25A8E0"/>
<path d="M277.499 388.354C279.194 389.33 279.194 390.914 277.499 391.89C275.803 392.865 273.066 392.865 271.37 391.89C269.675 390.914 269.675 389.33 271.37 388.354C273.066 387.379 275.814 387.379 277.499 388.354Z" fill="#25A8E0"/>
<path d="M267.614 354.245C269.309 355.22 269.309 356.805 267.614 357.78C265.918 358.755 263.181 358.755 261.486 357.78C259.79 356.805 259.79 355.22 261.486 354.245C263.17 353.258 265.918 353.258 267.614 354.245Z" fill="#25A8E0"/>
<path d="M319.466 380.852C321.162 381.827 321.162 383.411 319.466 384.387C317.771 385.362 315.034 385.362 313.338 384.387C311.643 383.411 311.643 381.827 313.338 380.852C315.034 379.876 317.771 379.876 319.466 380.852Z" fill="#25A8E0"/>
<path d="M321.86 368.562C323.555 369.538 323.555 371.122 321.86 372.098C320.164 373.073 317.427 373.073 315.732 372.098C314.036 371.122 314.036 369.538 315.732 368.562C317.416 367.587 320.164 367.587 321.86 368.562Z" fill="#25A8E0"/>
<path d="M334.138 354.932C335.834 355.907 335.834 357.492 334.138 358.467C332.443 359.442 329.705 359.442 328.01 358.467C326.314 357.492 326.314 355.907 328.01 354.932C329.705 353.956 332.454 353.956 334.138 354.932Z" fill="#25A8E0"/>
<path d="M369.19 366.644C370.886 367.62 370.886 369.204 369.19 370.18C367.494 371.155 364.757 371.155 363.062 370.18C361.366 369.204 361.366 367.62 363.062 366.644C364.757 365.669 367.494 365.669 369.19 366.644Z" fill="#25A8E0"/>
<path d="M365.933 339.816C368.326 339.816 370.266 338.694 370.266 337.311C370.266 335.928 368.326 334.807 365.933 334.807C363.54 334.807 361.6 335.928 361.6 337.311C361.6 338.694 363.54 339.816 365.933 339.816Z" fill="#25A8E0"/>
<path d="M381.857 336.502C383.553 337.477 383.553 339.062 381.857 340.037C380.161 341.012 377.424 341.012 375.729 340.037C374.033 339.062 374.033 337.477 375.729 336.502C377.424 335.527 380.173 335.527 381.857 336.502Z" fill="#25A8E0"/>
<path d="M399.045 317.485C400.741 318.461 400.741 320.045 399.045 321.02C397.35 321.996 394.613 321.996 392.917 321.02C391.222 320.045 391.222 318.461 392.917 317.485C394.613 316.51 397.35 316.51 399.045 317.485Z" fill="#25A8E0"/>
<path d="M167.7 180.879C167.7 181.079 167.6 181.267 167.423 181.367L158.424 186.753L157.305 187.429L146.012 194.2L144.893 194.865L134.299 201.215L164.054 218.392L165.949 219.478L164.818 220.132L162.923 219.045L132.902 201.713C132.725 201.614 132.625 201.425 132.614 201.226C132.614 201.026 132.714 200.838 132.891 200.738L143.763 194.222L144.882 193.546L156.174 186.775L157.294 186.099L166.004 180.879L149.304 171.238L146.478 169.609C146.212 169.454 146.112 169.099 146.267 168.833C146.422 168.556 146.777 168.468 147.043 168.623L150.39 170.551L167.4 180.37C167.589 180.492 167.7 180.68 167.7 180.879Z" fill="#25A8E0"/>
<path d="M65.9781 276.494L36.7551 259.627L49.3996 252.324C49.5769 252.225 49.6877 252.036 49.6877 251.837C49.6877 251.637 49.5769 251.449 49.3996 251.349L32.2337 241.442L29.0421 239.602C28.7651 239.447 28.4215 239.536 28.2664 239.813C28.1112 240.079 28.1999 240.433 28.4769 240.589L30.9039 241.996L47.9811 251.848L35.3366 259.151C35.1593 259.251 35.0485 259.439 35.0485 259.638C35.0485 259.838 35.1593 260.026 35.3366 260.126L64.8478 277.159L65.9781 276.494Z" fill="#25A8E0"/>
<path d="M125.433 243.038L124.303 243.692L122.408 242.595L102.084 230.859C101.906 230.759 101.795 230.571 101.795 230.371C101.795 230.172 101.906 229.972 102.084 229.884L111.669 224.343L88.2089 210.546L85.9815 209.238C85.7044 209.083 85.6158 208.728 85.782 208.462C85.9372 208.196 86.2918 208.108 86.5577 208.263L89.3947 209.936L113.077 223.866C113.254 223.966 113.365 224.154 113.354 224.354C113.354 224.553 113.243 224.742 113.066 224.841L103.491 230.371L123.527 241.941L125.433 243.038Z" fill="#25A8E0"/>
<path d="M150.833 228.277L149.703 228.931L147.808 227.845L116.191 209.593C116.014 209.493 115.903 209.305 115.903 209.105C115.903 208.906 116.014 208.717 116.191 208.617L130.143 200.561L112.412 190.321L108.666 188.149C108.389 187.994 108.301 187.65 108.456 187.373C108.611 187.096 108.955 187.008 109.232 187.163L113.509 189.634L131.562 200.062C131.739 200.162 131.85 200.35 131.85 200.55C131.85 200.749 131.739 200.938 131.562 201.037L117.609 209.094L148.938 227.18L150.833 228.277Z" fill="#25A8E0"/>
<path d="M111.127 251.349L109.996 252.003L108.101 250.916L87.4556 239.003L72.6945 247.525C72.5172 247.625 72.3067 247.625 72.1294 247.525L52.1598 236L49.6996 234.582C49.4225 234.427 49.3339 234.072 49.489 233.806C49.6442 233.529 49.9877 233.44 50.2648 233.595L53.2015 235.291L72.4064 246.384L87.1675 237.862C87.3448 237.762 87.5665 237.762 87.7327 237.862L109.221 250.263L111.127 251.349Z" fill="#25A8E0"/>
<path d="M177.851 212.573L176.721 213.227L174.826 212.13L144.904 194.853L143.774 194.21L134.51 188.858L132.105 187.472C131.828 187.317 131.739 186.974 131.894 186.697C132.049 186.42 132.404 186.331 132.67 186.486L135.773 188.281L144.893 193.545L146.024 194.199L175.967 211.487L177.851 212.573Z" fill="#25A8E0"/>
<path d="M190.461 205.238L189.331 205.891L187.436 204.794L157.304 187.418L156.174 186.764L121.321 166.662L119.515 165.62C119.238 165.465 119.149 165.121 119.304 164.844C119.46 164.567 119.803 164.478 120.08 164.634L122.729 166.163L157.282 186.099L158.413 186.753L188.555 204.141L190.461 205.238Z" fill="#25A8E0"/>
<path d="M144.683 231.845L143.552 232.498L141.657 231.412L101.718 208.351L99.0472 206.8C98.7702 206.644 98.6815 206.29 98.8367 206.024C98.9918 205.747 99.3354 205.658 99.6124 205.813L102.959 207.741L142.788 230.736L144.683 231.845Z" fill="#25A8E0"/>
<path d="M88.5522 264.47L87.4219 265.124L85.5268 264.038L67.6961 253.743L63.4184 251.272C63.1525 251.117 63.0527 250.773 63.219 250.496C63.3741 250.23 63.7176 250.13 63.9947 250.285L68.8929 253.111L86.6683 263.373L88.5522 264.47Z" fill="#25A8E0"/>
<path d="M32.146 237.939C33.8416 238.915 33.8416 240.499 32.146 241.475C30.4505 242.45 27.7133 242.45 26.0177 241.475C24.3222 240.499 24.3222 238.915 26.0177 237.939C27.7133 236.964 30.4505 236.964 32.146 237.939Z" fill="#25A8E0"/>
<path d="M68.4839 249.842C70.1795 250.817 70.1795 252.402 68.4839 253.377C66.7884 254.352 64.0512 254.352 62.3556 253.377C60.6601 252.402 60.6601 250.817 62.3556 249.842C64.0512 248.867 66.7995 248.867 68.4839 249.842Z" fill="#25A8E0"/>
<path d="M52.5035 232.277C54.199 233.253 54.199 234.837 52.5035 235.812C50.8079 236.788 48.0707 236.788 46.3752 235.812C44.6796 234.837 44.6796 233.253 46.3752 232.277C48.0707 231.302 50.819 231.302 52.5035 232.277Z" fill="#25A8E0"/>
<path d="M89.0074 206.644C90.7029 207.62 90.7029 209.204 89.0074 210.18C87.3118 211.155 84.5746 211.155 82.8791 210.18C81.1835 209.204 81.1835 207.62 82.8791 206.644C84.5746 205.669 87.3229 205.669 89.0074 206.644Z" fill="#25A8E0"/>
<path d="M59.2193 223.877C60.9148 224.852 60.9148 226.437 59.2193 227.412C57.5237 228.387 54.7865 228.387 53.091 227.412C51.3955 226.437 51.3955 224.852 53.091 223.877C54.7865 222.902 57.5348 222.902 59.2193 223.877Z" fill="#25A8E0"/>
<path d="M118.606 247.005L117.476 247.659L115.581 246.573L68.2944 219.267L59.717 224.221L56.4811 226.082C56.2152 226.238 55.8605 226.149 55.7054 225.872C55.5502 225.606 55.65 225.251 55.9159 225.096L58.5756 223.567L68.0063 218.126C68.1836 218.026 68.3942 218.026 68.5715 218.126L116.711 245.919L118.606 247.005Z" fill="#25A8E0"/>
<path d="M197.621 201.081L196.491 201.735L194.596 200.649L174.05 188.78C173.872 188.681 173.762 188.492 173.762 188.293C173.762 188.093 173.872 187.905 174.05 187.805L183.636 182.264L160.175 168.467L157.948 167.16C157.682 167.004 157.593 166.65 157.748 166.384C157.903 166.107 158.258 166.018 158.524 166.184L161.361 167.847L185.043 181.788C185.22 181.887 185.32 182.076 185.32 182.275C185.32 182.475 185.209 182.663 185.032 182.763L175.457 188.293L195.726 199.995L197.621 201.081Z" fill="#25A8E0"/>
<path d="M160.962 164.566C162.658 165.542 162.658 167.126 160.962 168.101C159.267 169.077 156.53 169.077 154.834 168.101C153.139 167.126 153.139 165.542 154.834 164.566C156.53 163.591 159.278 163.591 160.962 164.566Z" fill="#25A8E0"/>
<path d="M102.693 204.394C104.388 205.37 104.388 206.954 102.693 207.93C100.997 208.905 98.2601 208.905 96.5646 207.93C94.8691 206.954 94.8691 205.37 96.5646 204.394C98.2491 203.419 100.997 203.419 102.693 204.394Z" fill="#25A8E0"/>
<path d="M112.911 186.519C114.606 187.495 114.606 189.079 112.911 190.055C111.215 191.03 108.478 191.03 106.782 190.055C105.087 189.079 105.087 187.495 106.782 186.519C108.478 185.544 111.226 185.544 112.911 186.519Z" fill="#25A8E0"/>
<path d="M122.884 162.572C124.58 163.547 124.58 165.132 122.884 166.107C121.189 167.082 118.452 167.082 116.756 166.107C115.06 165.132 115.06 163.547 116.756 162.572C118.452 161.585 121.189 161.585 122.884 162.572Z" fill="#25A8E0"/>
<path d="M149.78 167.481C151.475 168.457 151.475 170.041 149.78 171.017C148.084 171.992 145.347 171.992 143.652 171.017C141.956 170.041 141.956 168.457 143.652 167.481C145.347 166.506 148.095 166.506 149.78 167.481Z" fill="#25A8E0"/>
<path d="M135.551 184.879C137.247 185.855 137.247 187.439 135.551 188.414C133.856 189.39 131.119 189.39 129.423 188.414C127.727 187.439 127.727 185.855 129.423 184.879C131.119 183.893 133.867 183.893 135.551 184.879Z" fill="#25A8E0"/>
<path d="M359.006 246.04C359.006 246.239 358.895 246.428 358.718 246.528L330.481 262.829L328.586 263.915L327.445 263.261L329.34 262.164L357.311 246.018L331.645 230.636L330.526 229.96L324.198 226.17C324.021 226.07 323.921 225.882 323.921 225.682C323.921 225.483 324.032 225.295 324.209 225.195L341.22 215.376L344.566 213.448C344.832 213.293 345.187 213.382 345.342 213.659C345.497 213.936 345.409 214.279 345.143 214.434L342.317 216.063L325.616 225.705L331.656 229.328L332.775 229.993L358.729 245.541C358.895 245.652 359.006 245.84 359.006 246.04Z" fill="#25A8E0"/>
<path d="M331.944 210.224L329.717 211.531L306.257 225.328L315.842 230.858C316.02 230.958 316.13 231.146 316.13 231.346C316.13 231.545 316.02 231.734 315.842 231.833L296.327 243.104L294.432 244.19L293.302 243.536L295.197 242.45L314.424 231.346L304.849 225.816C304.672 225.716 304.561 225.528 304.561 225.328C304.561 225.129 304.672 224.941 304.838 224.841L328.52 210.9L331.357 209.237C331.634 209.082 331.978 209.171 332.133 209.437C332.31 209.714 332.221 210.058 331.944 210.224Z" fill="#25A8E0"/>
<path d="M307.719 185.599L304.073 187.705L285.766 198.277L300.04 206.511C300.217 206.61 300.328 206.799 300.328 206.998C300.328 207.198 300.217 207.386 300.04 207.486L267.348 226.358L265.453 227.455L264.312 226.802L266.207 225.715L298.621 206.998L284.348 198.764C284.17 198.665 284.059 198.476 284.059 198.277C284.059 198.077 284.17 197.889 284.348 197.789L303.087 186.973L307.165 184.624C307.442 184.469 307.786 184.557 307.941 184.834C308.085 185.089 307.985 185.433 307.719 185.599Z" fill="#25A8E0"/>
<path d="M389.526 257.267L387.088 258.674L370.609 268.182C370.432 268.282 370.221 268.282 370.044 268.182L357.643 261.023L342.494 269.767L340.599 270.864L339.458 270.21L341.353 269.124L357.355 259.893C357.533 259.793 357.754 259.793 357.92 259.893L370.321 267.052L385.836 258.098L388.95 256.302C389.227 256.147 389.57 256.236 389.726 256.513C389.892 256.757 389.803 257.1 389.526 257.267Z" fill="#25A8E0"/>
<path d="M284.691 188.647L282.287 190.032L243.356 212.518L241.461 213.604L240.319 212.95L242.214 211.864L281.034 189.456L284.137 187.661C284.414 187.506 284.758 187.594 284.913 187.871C285.057 188.149 284.968 188.492 284.691 188.647Z" fill="#25A8E0"/>
<path d="M298.411 166.628L296.604 167.669L231.088 205.448L229.193 206.534L228.052 205.88L229.947 204.794L295.186 167.171L297.835 165.641C298.112 165.486 298.455 165.575 298.61 165.852C298.777 166.118 298.688 166.473 298.411 166.628Z" fill="#25A8E0"/>
<path d="M318.89 207.796L316.208 209.337L277.023 231.966L275.128 233.063L273.986 232.409L275.881 231.323L314.967 208.76L318.325 206.821C318.602 206.666 318.946 206.755 319.101 207.032C319.256 207.286 319.167 207.641 318.89 207.796Z" fill="#25A8E0"/>
<path d="M276.424 207.287L272.147 209.758L255.335 219.466L253.44 220.552L252.299 219.898L254.194 218.812L270.95 209.137L275.837 206.311C276.114 206.156 276.457 206.245 276.613 206.522C276.79 206.777 276.701 207.12 276.424 207.287Z" fill="#25A8E0"/>
<path d="M274.429 210.124C276.822 210.124 278.762 209.003 278.762 207.62C278.762 206.237 276.822 205.115 274.429 205.115C272.036 205.115 270.096 206.237 270.096 207.62C270.096 209.003 272.036 210.124 274.429 210.124Z" fill="#25A8E0"/>
<path d="M386.102 254.695C384.406 255.67 384.406 257.255 386.102 258.23C387.797 259.206 390.534 259.206 392.23 258.23C393.926 257.255 393.926 255.67 392.23 254.695C390.534 253.72 387.797 253.72 386.102 254.695Z" fill="#25A8E0"/>
<path d="M328.93 207.63C327.234 208.605 327.234 210.19 328.93 211.165C330.625 212.14 333.363 212.14 335.058 211.165C336.754 210.19 336.754 208.605 335.058 207.63C333.363 206.655 330.614 206.655 328.93 207.63Z" fill="#25A8E0"/>
<path d="M358.719 224.862C357.023 225.837 357.023 227.422 358.719 228.397C360.414 229.373 363.152 229.373 364.847 228.397C366.543 227.422 366.543 225.837 364.847 224.862C363.152 223.887 360.414 223.887 358.719 224.862Z" fill="#25A8E0"/>
<path d="M362.231 226.858C362.076 227.135 361.733 227.224 361.455 227.068L358.231 225.207L349.653 220.253L332.787 229.994L331.656 230.648L303.209 247.071L301.314 248.168L300.184 247.515L302.079 246.428L330.559 229.983L331.689 229.34L349.398 219.123C349.576 219.023 349.797 219.023 349.964 219.123L359.394 224.575L362.054 226.104C362.287 226.237 362.386 226.592 362.231 226.858Z" fill="#25A8E0"/>
<path d="M260.001 168.145L257.784 169.453L234.324 183.25L243.91 188.78C244.087 188.879 244.198 189.068 244.198 189.267C244.198 189.467 244.087 189.655 243.91 189.755L223.929 201.291L222.034 202.377L214.908 206.488C214.82 206.544 214.72 206.566 214.631 206.566C214.432 206.566 214.243 206.466 214.144 206.278C213.989 206.001 214.077 205.657 214.343 205.502L220.893 201.712L222.788 200.626L242.48 189.256L232.905 183.726C232.728 183.626 232.628 183.438 232.617 183.239C232.617 183.039 232.728 182.851 232.894 182.751L256.576 168.81L259.413 167.148C259.679 166.992 260.034 167.081 260.189 167.347C260.355 167.635 260.267 167.99 260.001 168.145Z" fill="#25A8E0"/>
<path d="M256.976 165.553C255.28 166.528 255.28 168.113 256.976 169.088C258.671 170.063 261.409 170.063 263.104 169.088C264.8 168.113 264.8 166.528 263.104 165.553C261.409 164.577 258.66 164.577 256.976 165.553Z" fill="#25A8E0"/>
<path d="M315.255 205.381C313.56 206.356 313.56 207.941 315.255 208.916C316.951 209.891 319.688 209.891 321.383 208.916C323.079 207.941 323.079 206.356 321.383 205.381C319.688 204.406 316.939 204.406 315.255 205.381Z" fill="#25A8E0"/>
<path d="M306.933 188.337C309.326 188.337 311.266 187.216 311.266 185.833C311.266 184.449 309.326 183.328 306.933 183.328C304.54 183.328 302.6 184.449 302.6 185.833C302.6 187.216 304.54 188.337 306.933 188.337Z" fill="#25A8E0"/>
<path d="M295.053 163.558C293.357 164.533 293.357 166.118 295.053 167.093C296.748 168.068 299.486 168.068 301.181 167.093C302.877 166.118 302.877 164.533 301.181 163.558C299.497 162.582 296.748 162.582 295.053 163.558Z" fill="#25A8E0"/>
<path d="M341.84 212.296C340.144 213.271 340.144 214.856 341.84 215.831C343.536 216.806 346.273 216.806 347.968 215.831C349.664 214.856 349.664 213.271 347.968 212.296C346.273 211.321 343.536 211.321 341.84 212.296Z" fill="#25A8E0"/>
<path d="M281.234 186.054C279.538 187.029 279.538 188.614 281.234 189.589C282.929 190.564 285.666 190.564 287.362 189.589C289.057 188.614 289.057 187.029 287.362 186.054C285.666 185.078 282.929 185.078 281.234 186.054Z" fill="#25A8E0"/>
<path d="M151.026 205.282L141.618 199.818C140.587 199.22 139.823 198.034 139.523 196.161L148.932 201.625C149.231 203.497 149.996 204.672 151.026 205.282Z" fill="#B9E5F8"/>
<mask id="mask4_212_1248" style="mask-type:luminance" maskUnits="userSpaceOnUse" x="139" y="196" width="13" height="10">
<path d="M151.026 205.282L141.618 199.818C140.587 199.22 139.823 198.034 139.523 196.161L148.932 201.625C149.231 203.497 149.996 204.672 151.026 205.282Z" fill="white"/>
</mask>
<g mask="url(#mask4_212_1248)">
<path d="M151.027 205.282L141.619 199.818C140.588 199.22 139.834 198.045 139.535 196.194L148.944 201.658C149.243 203.508 150.008 204.683 151.027 205.282Z" fill="#B9E5F8"/>
<path d="M148.944 201.658L139.535 196.194C139.535 196.183 139.535 196.172 139.535 196.161L148.944 201.625C148.944 201.636 148.944 201.647 148.944 201.658Z" fill="#B9E5F8"/>
</g>
<path d="M159.127 107.118L168.536 112.581C165.788 110.986 161.987 111.185 157.72 113.645L148.312 108.182C152.578 105.722 156.379 105.522 159.127 107.118Z" fill="#B9E5F8"/>
<mask id="mask5_212_1248" style="mask-type:luminance" maskUnits="userSpaceOnUse" x="148" y="106" width="21" height="8">
<path d="M159.127 107.118L168.536 112.581C165.788 110.986 161.987 111.185 157.72 113.645L148.312 108.182C152.578 105.722 156.379 105.522 159.127 107.118Z" fill="white"/>
</mask>
<g mask="url(#mask5_212_1248)">
<path d="M157.72 113.645L148.312 108.182C152.578 105.722 156.379 105.522 159.127 107.118L168.536 112.581C165.788 110.986 161.987 111.185 157.72 113.645Z" fill="#B9E5F8"/>
</g>
<path d="M148.943 201.624L139.534 196.15L130.491 138.79L139.9 144.264L148.943 201.624Z" fill="#B9E5F8"/>
<path d="M154.85 115.307L145.441 109.833L148.312 108.182L157.72 113.645L154.85 115.307Z" fill="#B9E5F8"/>
<path d="M139.9 144.264L130.491 138.801C128.951 129.038 136.077 115.252 145.452 109.844L154.86 115.307C145.474 120.715 138.36 134.501 139.9 144.264Z" fill="#B9E5F8"/>
<mask id="mask6_212_1248" style="mask-type:luminance" maskUnits="userSpaceOnUse" x="130" y="109" width="25" height="36">
<path d="M139.9 144.264L130.491 138.801C128.951 129.038 136.077 115.252 145.452 109.844L154.86 115.307C145.474 120.715 138.36 134.501 139.9 144.264Z" fill="white"/>
</mask>
<g mask="url(#mask6_212_1248)">
<path d="M139.9 144.264L130.491 138.8C130.026 135.831 130.358 132.495 131.312 129.126L140.72 134.589C139.767 137.958 139.435 141.294 139.9 144.264Z" fill="#B9E5F8"/>
<path d="M140.72 134.59L131.312 129.127C132.386 125.337 134.237 121.524 136.631 118.178L146.039 123.641C143.646 126.988 141.784 130.811 140.72 134.59Z" fill="#B9E5F8"/>
<path d="M146.029 123.641L136.62 118.177C138.449 115.617 140.576 113.334 142.904 111.539L152.312 117.002C149.996 118.798 147.857 121.081 146.029 123.641Z" fill="#B9E5F8"/>
<path d="M152.323 117.003L142.914 111.54C143.734 110.908 144.576 110.332 145.452 109.833L154.86 115.296C153.985 115.806 153.143 116.371 152.323 117.003Z" fill="#B9E5F8"/>
</g>
<path d="M157.72 113.645C167.096 108.237 174.266 113.767 172.792 125.27L164.103 192.859C163.416 198.2 159.981 202.655 156.546 204.65C153.099 206.633 149.653 206.157 148.943 201.624L139.901 144.264C138.36 134.501 145.486 120.715 154.861 115.307L157.72 113.645Z" fill="#25A8E0"/>
<path d="M168.126 114.133L174.675 117.945C171.893 116.327 168.037 116.56 163.793 119.009L157.243 115.197C161.499 112.748 165.344 112.515 168.126 114.133Z" fill="#25A8E0"/>
<mask id="mask7_212_1248" style="mask-type:luminance" maskUnits="userSpaceOnUse" x="157" y="113" width="18" height="7">
<path d="M168.126 114.133L174.675 117.945C171.893 116.327 168.037 116.56 163.793 119.009L157.243 115.197C161.499 112.748 165.344 112.515 168.126 114.133Z" fill="white"/>
</mask>
<g mask="url(#mask7_212_1248)">
<path d="M163.793 119.009L157.243 115.197C161.499 112.737 165.344 112.515 168.126 114.133L174.675 117.945C171.905 116.327 168.048 116.56 163.793 119.009Z" fill="#25A8E0"/>
</g>
<path d="M165.322 125.414C171.107 122.067 175.827 124.76 175.85 131.42C175.872 138.07 171.184 146.193 165.388 149.528C159.603 152.875 154.872 150.182 154.86 143.533C154.838 136.884 159.526 128.75 165.322 125.414Z" fill="#25A8E0"/>
<path d="M153.01 155.247L146.46 151.434C143.712 149.839 142.005 146.448 141.994 141.616C141.972 131.908 148.798 120.073 157.254 115.186L163.803 118.998C155.348 123.874 148.521 135.709 148.544 145.428C148.555 150.26 150.261 153.651 153.01 155.247Z" fill="#25A8E0"/>
<mask id="mask8_212_1248" style="mask-type:luminance" maskUnits="userSpaceOnUse" x="141" y="115" width="23" height="41">
<path d="M153.01 155.247L146.46 151.434C143.712 149.839 142.005 146.448 141.994 141.616C141.972 131.908 148.798 120.073 157.254 115.186L163.803 118.998C155.348 123.874 148.521 135.709 148.544 145.428C148.555 150.26 150.261 153.651 153.01 155.247Z" fill="white"/>
</mask>
<g mask="url(#mask8_212_1248)">
<path d="M153.009 155.247L146.46 151.434C144.022 150.016 142.404 147.179 142.061 143.189L148.61 147.002C148.953 150.991 150.56 153.828 153.009 155.247Z" fill="#25A8E0"/>
<path d="M148.61 147.001L142.061 143.189C142.016 142.69 141.994 142.158 141.994 141.627C141.972 133.249 147.048 123.297 153.863 117.59L160.412 121.402C153.597 127.109 148.521 137.061 148.544 145.439C148.544 145.971 148.566 146.491 148.61 147.001Z" fill="#25A8E0"/>
<path d="M160.413 121.402L153.863 117.59C154.949 116.681 156.091 115.872 157.254 115.196L163.804 119.008C162.629 119.684 161.499 120.482 160.413 121.402Z" fill="#25A8E0"/>
</g>
<path d="M165.322 125.414L163.804 119.009C172.259 114.133 179.13 118.045 179.152 127.764C179.174 137.471 172.348 149.307 163.904 154.183C155.448 159.059 148.577 155.147 148.544 145.439C148.522 135.731 155.348 123.896 163.804 119.009L165.322 125.414C159.537 128.75 154.839 136.884 154.861 143.533C154.872 150.182 159.604 152.875 165.388 149.528C171.173 146.193 175.872 138.07 175.85 131.421C175.828 124.76 171.107 122.067 165.322 125.414Z" fill="#25A8E0"/>
<mask id="mask9_212_1248" style="mask-type:luminance" maskUnits="userSpaceOnUse" x="148" y="116" width="32" height="41">
<path d="M165.322 125.414L163.804 119.009C172.259 114.133 179.13 118.045 179.152 127.764C179.174 137.471 172.348 149.307 163.904 154.183C155.448 159.059 148.577 155.147 148.544 145.439C148.522 135.731 155.348 123.896 163.804 119.009L165.322 125.414C159.537 128.75 154.839 136.884 154.861 143.533C154.872 150.182 159.604 152.875 165.388 149.528C171.173 146.193 175.872 138.07 175.85 131.421C175.828 124.76 171.107 122.067 165.322 125.414Z" fill="white"/>
</mask>
<g mask="url(#mask9_212_1248)">
<path d="M165.322 125.414L163.804 119.009C172.259 114.133 179.13 118.045 179.152 127.764C179.174 137.471 172.348 149.307 163.904 154.183C155.448 159.059 148.577 155.147 148.544 145.439C148.522 135.731 155.348 123.896 163.804 119.009L165.322 125.414C159.537 128.75 154.839 136.884 154.861 143.533C154.872 150.182 159.604 152.875 165.388 149.528C171.173 146.193 175.872 138.07 175.85 131.421C175.828 124.76 171.107 122.067 165.322 125.414Z" fill="#12B0F3"/>
</g>
<path d="M147.452 8.51355L144.263 9.49023L161.246 64.9524L164.435 63.9757L147.452 8.51355Z" fill="#59585B"/>
<path d="M183.076 238.594C167.494 228.964 163.981 216.042 162.485 210.523C163.693 215.82 167.838 221.084 174.908 225.34C192.573 235.967 221.818 236.267 240.236 226.005C248.137 221.594 252.77 215.953 254.066 210.113C252.869 214.69 251.063 221.616 244.159 229.617C241.544 232.643 235.781 238.283 226.572 241.974C212.564 247.592 195.487 246.262 183.076 238.594Z" fill="#B9E5F8"/>
<path d="M240.535 112.315C257.756 122.677 257.169 139.2 239.216 149.207C221.264 159.214 192.761 158.926 175.54 148.564C158.318 138.202 158.906 121.679 176.858 111.672C194.8 101.665 223.314 101.954 240.535 112.315Z" fill="#B9E5F8"/>
<path d="M162.452 210.368L148.566 149.694C150.184 156.764 155.57 163.613 164.757 169.143C187.708 182.962 225.708 183.339 249.633 169.996C259.906 164.267 265.913 156.942 267.608 149.351L254.066 210.102C252.759 215.942 248.137 221.582 240.236 225.993C221.829 236.255 192.573 235.967 174.908 225.328C167.838 221.084 163.693 215.82 162.452 210.368Z" fill="#25A8E0"/>
<path d="M169.467 110.708C192.916 97.9753 226.118 98.3521 248.414 111.606C246.431 110.409 243.649 110.498 240.524 112.238C223.303 101.876 194.789 101.588 176.847 111.595C158.895 121.602 158.307 138.114 175.529 148.487C192.75 158.848 221.264 159.136 239.205 149.129C257.158 139.122 257.745 122.61 240.524 112.238C243.649 110.498 246.431 110.409 248.414 111.606C253.08 114.62 260.139 119.186 265.048 128.783C269.625 137.737 268.24 145.772 267.641 149.207C265.902 156.998 259.895 164.323 249.622 170.041C225.696 183.384 187.697 182.996 164.746 169.188C155.57 163.669 150.184 156.831 148.555 149.761C147.979 146.68 147.436 143.766 147.99 139.2C148.677 133.482 150.96 129.16 151.06 128.983C152.777 125.78 157.31 117.302 169.467 110.708Z" fill="#B9E5F8"/>
<path d="M233.022 37.4233C246.231 45.369 245.777 58.0467 232.013 65.7154C218.249 73.3952 196.374 73.1735 183.164 65.2167C169.954 57.271 170.409 44.6044 184.173 36.9246C197.947 29.2559 219.812 29.4776 233.022 37.4233Z" fill="#B9E5F8"/>
<path d="M165.721 132.208C144.455 119.054 139.789 101.644 139.623 89.354C139.656 99.228 145.995 109.091 158.717 116.749C184.937 132.529 228.356 132.972 255.684 117.735C269.747 109.889 276.817 99.4275 276.784 88.9551C276.551 95.3826 276.196 98.7072 273.614 105.91C271.586 111.551 267.974 116.35 266.023 118.932C265.115 120.14 256.681 130.878 240.402 137.228C212.165 148.221 182.543 142.625 165.721 132.208Z" fill="#25A8E0"/>
<path d="M167.682 34.9414C180.139 28.1593 194.113 24.8236 209.229 25.0231C224.754 25.2226 238.695 28.9128 250.653 36.0053C246.176 33.3124 239.925 33.5672 233.021 37.4237C219.812 29.478 197.947 29.2564 184.172 36.9251C170.409 44.6048 169.954 57.2715 183.164 65.2172C196.374 73.1629 218.238 73.3845 232.013 65.7159C245.777 58.0361 246.231 45.3695 233.021 37.4237C239.925 33.5672 246.176 33.3124 250.653 36.0053C256.958 40.0723 276.141 52.4619 276.751 78.859C276.784 89.3203 269.714 99.7927 255.651 107.639C228.323 122.876 184.904 122.444 158.684 106.664C145.962 99.0059 139.623 89.1319 139.59 79.269C139.734 75.4347 139.889 71.0795 141.574 65.7713C143.557 59.4767 145.275 56.7728 148.112 52.2957C150.35 48.7605 157.321 40.5821 167.682 34.9414Z" fill="#B9E5F8"/>
<path d="M221.663 117.989C199.454 120.605 175.518 116.793 158.684 106.653C146.029 99.0394 139.69 89.2319 139.59 79.4244C139.568 73.0523 142.194 67.1678 146.616 62.458C146.705 71.257 152.39 80.045 163.737 86.8825C178.842 95.9697 200.308 99.394 220.222 97.0446C221.109 104.259 221.652 111.617 221.663 117.989Z" fill="#25A8E0"/>
<path d="M139.623 89.3539L139.59 79.2694C139.623 89.1434 145.962 99.0063 158.684 106.664C184.904 122.445 228.323 122.888 255.651 107.639C269.714 99.7931 276.784 89.3318 276.751 78.8594L276.784 88.9439C276.817 99.4052 269.747 109.878 255.684 117.724C228.356 132.961 184.937 132.529 158.717 116.737C145.984 109.091 139.645 99.2279 139.623 89.3539Z" fill="#B9E5F8"/>
<path d="M150.738 89.6527C149.386 93.4649 147.081 93.7198 145.486 90.229C142.815 84.411 145.53 77.3851 148.999 78.3824C149.63 78.5598 149.963 78.9255 150.306 79.3133C152.523 82.4717 151.326 87.9683 150.738 89.6527Z" fill="#B9E5F8"/>
<path d="M189.614 106.896C188.605 112.615 181.413 113.579 177.778 108.481C173.988 103.162 178.144 97.0224 183.452 97.6874C183.652 97.7095 183.907 97.7649 184.095 97.7982C188.772 99.1502 190.135 103.938 189.614 106.896Z" fill="#B9E5F8"/>
<path d="M249.046 87.1033C248.536 87.1033 248.038 86.8706 247.705 86.4384C247.151 85.6959 247.306 84.6542 248.038 84.1001L286.747 55.0434C287.478 54.4893 288.531 54.6333 289.085 55.3758C289.639 56.1072 289.484 57.16 288.753 57.7141L250.043 86.7709C249.744 86.9925 249.39 87.1033 249.046 87.1033Z" fill="#59585B"/>
<path d="M297.58 54.3012C297.58 49.3255 293.546 45.3027 288.582 45.3027C283.606 45.3027 279.583 49.3365 279.583 54.3012C279.583 59.277 283.617 63.2998 288.582 63.2998C293.546 63.2998 297.58 59.2659 297.58 54.3012Z" fill="#25A8E0"/>
<path d="M154.041 8.99851C154.041 4.02273 150.007 0 145.042 0C140.067 0 136.044 4.03381 136.044 8.99851C136.044 13.9632 140.078 17.997 145.042 17.997C150.007 17.997 154.041 13.9743 154.041 8.99851Z" fill="#25A8E0"/>
<path d="M261.624 146.447L268.173 150.259C265.391 148.641 261.535 148.874 257.291 151.323L250.741 147.511C254.997 145.062 258.842 144.829 261.624 146.447Z" fill="#25A8E0"/>
<mask id="mask10_212_1248" style="mask-type:luminance" maskUnits="userSpaceOnUse" x="250" y="145" width="19" height="7">
<path d="M261.624 146.447L268.173 150.259C265.391 148.641 261.535 148.874 257.291 151.323L250.741 147.511C254.997 145.062 258.842 144.829 261.624 146.447Z" fill="white"/>
</mask>
<g mask="url(#mask10_212_1248)">
<path d="M257.291 151.324L250.741 147.512C254.997 145.051 258.842 144.83 261.624 146.448L268.173 150.26C265.403 148.642 261.546 148.864 257.291 151.324Z" fill="#25A8E0"/>
</g>
<path d="M258.809 157.728C264.594 154.382 269.315 157.075 269.337 163.735C269.359 170.384 264.671 178.507 258.876 181.843C253.08 185.189 248.359 182.497 248.348 175.847C248.326 169.187 253.024 161.064 258.809 157.728Z" fill="#25A8E0"/>
<path d="M246.497 187.561L239.948 183.749C237.199 182.153 235.493 178.762 235.481 173.941C235.459 164.233 242.286 152.398 250.741 147.511L257.291 151.323C248.835 156.199 242.009 168.034 242.031 177.753C242.053 182.574 243.76 185.965 246.497 187.561Z" fill="#25A8E0"/>
<mask id="mask11_212_1248" style="mask-type:luminance" maskUnits="userSpaceOnUse" x="235" y="147" width="23" height="41">
<path d="M246.497 187.561L239.948 183.749C237.199 182.153 235.493 178.762 235.481 173.941C235.459 164.233 242.286 152.398 250.741 147.511L257.291 151.323C248.835 156.199 242.009 168.034 242.031 177.753C242.053 182.574 243.76 185.965 246.497 187.561Z" fill="white"/>
</mask>
<g mask="url(#mask11_212_1248)">
<path d="M246.497 187.561L239.947 183.749C237.509 182.33 235.891 179.493 235.548 175.504L242.097 179.316C242.441 183.306 244.059 186.143 246.497 187.561Z" fill="#25A8E0"/>
<path d="M242.108 179.317L235.559 175.504C235.514 175.006 235.492 174.474 235.492 173.942C235.47 165.564 240.546 155.612 247.361 149.905L253.91 153.717C247.095 159.425 242.019 169.376 242.042 177.754C242.042 178.286 242.064 178.807 242.108 179.317Z" fill="#25A8E0"/>
<path d="M253.91 153.706L247.36 149.894C248.446 148.985 249.588 148.176 250.751 147.5L257.301 151.312C256.126 151.988 254.996 152.797 253.91 153.706Z" fill="#25A8E0"/>
</g>
<path d="M258.809 157.729L257.291 151.323C265.747 146.447 272.617 150.359 272.64 160.078C272.662 169.786 265.835 181.61 257.391 186.497C248.935 191.373 242.065 187.461 242.031 177.754C242.009 168.046 248.836 156.21 257.291 151.323L258.809 157.729C253.025 161.064 248.326 169.198 248.348 175.848C248.359 182.497 253.091 185.19 258.876 181.843C264.661 178.507 269.359 170.384 269.337 163.735C269.326 157.075 264.605 154.382 258.809 157.729Z" fill="#25A8E0"/>
<mask id="mask12_212_1248" style="mask-type:luminance" maskUnits="userSpaceOnUse" x="242" y="149" width="31" height="40">
<path d="M258.809 157.729L257.291 151.323C265.747 146.447 272.617 150.359 272.64 160.078C272.662 169.786 265.835 181.61 257.391 186.497C248.935 191.373 242.065 187.461 242.031 177.754C242.009 168.046 248.836 156.21 257.291 151.323L258.809 157.729C253.025 161.064 248.326 169.198 248.348 175.848C248.359 182.497 253.091 185.19 258.876 181.843C264.661 178.507 269.359 170.384 269.337 163.735C269.326 157.075 264.605 154.382 258.809 157.729Z" fill="white"/>
</mask>
<g mask="url(#mask12_212_1248)">
<path d="M258.809 157.729L257.291 151.323C265.747 146.447 272.617 150.359 272.64 160.078C272.662 169.786 265.835 181.61 257.391 186.497C248.935 191.373 242.065 187.461 242.031 177.754C242.009 168.046 248.836 156.21 257.291 151.323L258.809 157.729C253.025 161.064 248.326 169.198 248.348 175.848C248.359 182.497 253.091 185.19 258.876 181.843C264.661 178.507 269.359 170.384 269.337 163.735C269.326 157.075 264.605 154.382 258.809 157.729Z" fill="#12B0F3"/>
</g>
<path d="M261.701 247.559L252.293 242.096C251.262 241.497 250.497 240.311 250.198 238.438L259.607 243.902C259.906 245.775 260.671 246.949 261.701 247.559Z" fill="#B9E5F8"/>
<mask id="mask13_212_1248" style="mask-type:luminance" maskUnits="userSpaceOnUse" x="250" y="238" width="12" height="10">
<path d="M261.701 247.559L252.293 242.096C251.262 241.497 250.497 240.311 250.198 238.438L259.607 243.902C259.906 245.775 260.671 246.949 261.701 247.559Z" fill="white"/>
</mask>
<g mask="url(#mask13_212_1248)">
<path d="M261.701 247.559L252.292 242.095C251.262 241.497 250.508 240.322 250.209 238.472L259.618 243.935C259.917 245.786 260.67 246.96 261.701 247.559Z" fill="#B9E5F8"/>
<path d="M259.618 243.935L250.209 238.472C250.209 238.461 250.209 238.45 250.198 238.438L259.607 243.902C259.607 243.913 259.618 243.924 259.618 243.935Z" fill="#B9E5F8"/>
</g>
<path d="M269.802 149.395L279.211 154.859C276.462 153.263 272.661 153.462 268.395 155.923L258.986 150.459C263.242 147.999 267.054 147.8 269.802 149.395Z" fill="#B9E5F8"/>
<mask id="mask14_212_1248" style="mask-type:luminance" maskUnits="userSpaceOnUse" x="258" y="148" width="22" height="8">
<path d="M269.802 149.395L279.211 154.859C276.462 153.263 272.661 153.462 268.395 155.923L258.986 150.459C263.242 147.999 267.054 147.8 269.802 149.395Z" fill="white"/>
</mask>
<g mask="url(#mask14_212_1248)">
<path d="M268.395 155.923L258.986 150.459C263.253 147.999 267.054 147.8 269.802 149.395L279.211 154.859C276.462 153.263 272.65 153.462 268.395 155.923Z" fill="#B9E5F8"/>
</g>
<path d="M259.607 243.902L250.198 238.427L241.155 181.067L250.564 186.542L259.607 243.902Z" fill="#B9E5F8"/>
<path d="M265.525 157.585L256.116 152.11L258.986 150.459L268.395 155.922L265.525 157.585Z" fill="#B9E5F8"/>
<path d="M250.564 186.542L241.155 181.078C239.615 171.315 246.741 157.529 256.116 152.121L265.525 157.584C256.149 162.992 249.035 176.778 250.564 186.542Z" fill="#B9E5F8"/>
<path d="M256.702 165.919L247.294 160.455C249.122 157.896 251.25 155.613 253.577 153.817L262.986 159.281C260.659 161.076 258.531 163.359 256.702 165.919Z" fill="#B9E5F8"/>
<path d="M262.986 159.28L253.577 153.817C254.397 153.185 255.251 152.609 256.115 152.11L265.523 157.574C264.659 158.084 263.817 158.649 262.986 159.28Z" fill="#B9E5F8"/>
<path d="M268.395 155.922C277.77 150.515 284.94 156.044 283.466 167.547L274.778 235.136C274.091 240.477 270.656 244.932 267.22 246.927C263.774 248.911 260.327 248.434 259.618 243.902L250.575 186.542C249.035 176.779 256.161 162.993 265.536 157.585L268.395 155.922Z" fill="#25A8E0"/>
</svg>
